<?xml version="1.0" standalone="no"?>
<!DOCTYPE svg PUBLIC "-//W3C//DTD SVG 20010904//EN"
 "http://www.w3.org/TR/2001/REC-SVG-20010904/DTD/svg10.dtd">
<svg version="1.0" xmlns="http://www.w3.org/2000/svg"
 width="118.000000pt" height="118.000000pt" viewBox="0 0 118.000000 118.000000"
 preserveAspectRatio="xMidYMid meet">
<metadata>
Created by potrace 1.11, written by Peter Selinger 2001-2013
</metadata>
<g transform="translate(0.000000,118.000000) scale(0.100000,-0.100000)"
fill="#000000" stroke="none">
<path d="M644 1108 c-26 -35 -51 -68 -56 -75 -5 -7 15 1 44 17 77 42 177 57
276 43 42 -6 89 -16 105 -22 26 -10 27 -12 27 -91 0 -44 -2 -80 -5 -80 -3 0
-16 7 -28 14 -29 20 -132 46 -177 46 -90 0 -149 -42 -136 -95 7 -28 52 -53
191 -105 128 -48 195 -119 195 -210 0 -173 -241 -273 -490 -203 -30 8 -61 20
-67 25 -14 11 -19 172 -5 166 4 -1 32 -15 62 -30 143 -72 320 -54 320 32 0 39
-30 60 -148 105 -53 21 -116 49 -140 63 -76 44 -115 129 -93 207 6 21 7 34 2
29 -5 -5 -117 -155 -251 -333 l-242 -323 1 -72 c0 -39 0 -77 0 -83 1 -10 76
-13 341 -13 l340 0 0 -60 0 -61 128 3 127 3 3 58 3 57 84 0 85 0 0 105 0 105
-84 0 c-47 0 -87 4 -90 8 -3 5 15 25 40 46 57 48 84 101 84 166 0 69 -19 109
-73 156 l-46 39 -2 85 c-1 47 1 84 5 83 3 -2 20 -10 36 -18 17 -9 35 -13 40
-10 6 3 10 44 10 89 0 90 -6 101 -57 115 -22 6 -29 14 -33 42 l-5 34 -137 3
-136 3 -48 -63z m16 -441 l45 -22 3 -83 3 -83 -28 7 c-28 6 -137 55 -162 72
-11 8 -4 22 33 71 26 34 50 61 54 60 4 0 27 -10 52 -22z m-127 -319 c30 -12
24 -13 -77 -16 -60 -1 -111 -1 -113 2 -2 2 31 52 74 110 l78 107 3 -95 3 -94
32 -14z"/>
</g>
</svg>
