<svg width="487" height="448" viewBox="0 0 487 448" fill="none" xmlns="http://www.w3.org/2000/svg">
<path d="M-39.1559 434.004L-180.317 352.504C-188.117 348.001 -190.786 338.037 -186.284 330.238L-6.98444 19.6828C-2.48158 11.8836 7.4825 9.21376 15.2817 13.7166L156.443 95.2162C164.242 99.7191 166.912 109.683 162.409 117.482L-16.8898 428.038C-21.3927 435.837 -31.3568 438.507 -39.1559 434.004Z" fill="#ECF8FF"/>
<path d="M-35.0811 426.946L-176.243 345.446C-180.139 343.197 -181.475 338.209 -179.226 334.313L0.0734563 23.7578C2.32285 19.8617 7.31045 18.5253 11.2065 20.7747L152.368 102.274C156.264 104.524 157.6 109.511 155.351 113.407L-23.9481 423.963C-26.1975 427.859 -31.1851 429.195 -35.0811 426.946Z" fill="#E1F4FF"/>
<path d="M155.351 113.407L-23.9478 423.963C-26.189 427.845 -31.1989 429.187 -35.0809 426.946L-176.242 345.446C-180.124 343.205 -181.467 338.195 -179.225 334.313L155.351 113.407Z" fill="#E3EEEC"/>
<path d="M91.6917 86.0645L55.5756 65.2128C49.4986 61.7043 46.3515 54.702 47.761 47.8271L50.5718 34.0916L121.153 74.8414L110.663 84.1434C105.414 88.8014 97.7687 89.573 91.6917 86.0645Z" fill="#2A2D2C"/>
<path d="M155.351 113.407L-23.9478 423.963C-26.189 427.845 -31.1989 429.187 -35.0809 426.946L-176.242 345.446C-180.124 343.205 -181.467 338.195 -179.225 334.313L155.351 113.407Z" fill="#CEEDFF"/>
<path d="M-182.355 356.033L-41.1936 437.533C-31.4675 443.148 -18.9763 439.801 -13.361 430.075L165.938 119.52C171.554 109.794 168.207 97.3024 158.481 91.6871L123.19 71.3122L52.6094 30.5624L17.319 10.1875C7.59299 4.57213 -4.8983 7.91916 -10.5136 17.6452L-189.813 328.2C-195.428 337.926 -192.081 350.418 -182.355 356.033ZM114.217 75.5422L107.95 81.0995C104.012 84.5948 98.2959 85.1718 93.7364 82.5394L57.6203 61.6877C53.0608 59.0553 50.7024 53.8164 51.7576 48.6474L53.4327 40.4485L114.217 75.5422ZM-3.45555 21.7202C-0.0855409 15.8831 7.407 13.8755 13.244 17.2455L45.9935 36.1534L43.7717 47.0106C42.0098 55.6206 45.9296 64.3489 53.5453 68.7458L89.6614 89.5974C97.27 93.9903 106.796 93.0248 113.36 87.197L121.656 79.8372L154.406 98.7452C160.243 102.115 162.25 109.608 158.88 115.445L-20.419 426C-23.789 431.837 -31.2816 433.845 -37.1186 430.475L-178.28 348.975C-184.117 345.605 -186.125 338.112 -182.755 332.275L-3.45555 21.7202Z" fill="black"/>
<rect x="203" y="50.1304" width="284" height="49" rx="24.5" fill="#0066FF"/>
<path d="M240.2 80.1304C240.093 80.1304 240.008 80.0984 239.944 80.0344C239.88 79.9704 239.848 79.885 239.848 79.7784V69.2984C239.848 69.1917 239.88 69.1064 239.944 69.0424C240.008 68.9677 240.093 68.9304 240.2 68.9304H247.672C247.789 68.9304 247.88 68.9624 247.944 69.0264C248.008 69.0904 248.04 69.181 248.04 69.2984V79.7784C248.04 79.885 248.002 79.9704 247.928 80.0344C247.864 80.0984 247.778 80.1304 247.672 80.1304H247.384C247.277 80.1304 247.192 80.0984 247.128 80.0344C247.064 79.9704 247.032 79.885 247.032 79.7784V69.8904H240.856V79.7784C240.856 79.885 240.818 79.9704 240.744 80.0344C240.68 80.0984 240.594 80.1304 240.488 80.1304H240.2ZM253.995 80.2904C252.886 80.2904 252.027 79.9704 251.419 79.3304C250.811 78.6797 250.491 77.773 250.459 76.6104L250.443 75.9704L250.459 75.3304C250.491 74.1677 250.811 73.2664 251.419 72.6264C252.027 71.9757 252.886 71.6504 253.995 71.6504C254.699 71.6504 255.296 71.7784 255.787 72.0344C256.288 72.2797 256.662 72.5997 256.907 72.9944C257.152 73.3784 257.286 73.7784 257.307 74.1944C257.318 74.2904 257.286 74.3757 257.211 74.4504C257.136 74.5144 257.051 74.5464 256.955 74.5464H256.731C256.624 74.5464 256.544 74.525 256.491 74.4824C256.448 74.429 256.4 74.3384 256.347 74.2104C256.134 73.6237 255.835 73.2077 255.451 72.9624C255.067 72.7064 254.582 72.5784 253.995 72.5784C253.227 72.5784 252.614 72.813 252.155 73.2824C251.707 73.741 251.467 74.4504 251.435 75.4104L251.419 75.9704L251.435 76.5304C251.467 77.4904 251.707 78.205 252.155 78.6744C252.614 79.133 253.227 79.3624 253.995 79.3624C254.582 79.3624 255.067 79.2397 255.451 78.9944C255.835 78.7384 256.134 78.317 256.347 77.7304C256.4 77.6024 256.448 77.517 256.491 77.4744C256.544 77.421 256.624 77.3944 256.731 77.3944H256.955C257.051 77.3944 257.136 77.4317 257.211 77.5064C257.286 77.5704 257.318 77.6504 257.307 77.7464C257.286 78.1624 257.152 78.5677 256.907 78.9624C256.662 79.3464 256.288 79.6664 255.787 79.9224C255.296 80.1677 254.699 80.2904 253.995 80.2904ZM262.573 80.2904C261.464 80.2904 260.605 79.9704 259.997 79.3304C259.389 78.6797 259.069 77.773 259.037 76.6104L259.021 75.9704L259.037 75.3304C259.069 74.1677 259.389 73.2664 259.997 72.6264C260.605 71.9757 261.464 71.6504 262.573 71.6504C263.277 71.6504 263.874 71.7784 264.365 72.0344C264.866 72.2797 265.24 72.5997 265.485 72.9944C265.73 73.3784 265.864 73.7784 265.885 74.1944C265.896 74.2904 265.864 74.3757 265.789 74.4504C265.714 74.5144 265.629 74.5464 265.533 74.5464H265.309C265.202 74.5464 265.122 74.525 265.069 74.4824C265.026 74.429 264.978 74.3384 264.925 74.2104C264.712 73.6237 264.413 73.2077 264.029 72.9624C263.645 72.7064 263.16 72.5784 262.573 72.5784C261.805 72.5784 261.192 72.813 260.733 73.2824C260.285 73.741 260.045 74.4504 260.013 75.4104L259.997 75.9704L260.013 76.5304C260.045 77.4904 260.285 78.205 260.733 78.6744C261.192 79.133 261.805 79.3624 262.573 79.3624C263.16 79.3624 263.645 79.2397 264.029 78.9944C264.413 78.7384 264.712 78.317 264.925 77.7304C264.978 77.6024 265.026 77.517 265.069 77.4744C265.122 77.421 265.202 77.3944 265.309 77.3944H265.533C265.629 77.3944 265.714 77.4317 265.789 77.5064C265.864 77.5704 265.896 77.6504 265.885 77.7464C265.864 78.1624 265.73 78.5677 265.485 78.9624C265.24 79.3464 264.866 79.6664 264.365 79.9224C263.874 80.1677 263.277 80.2904 262.573 80.2904ZM271.151 80.2904C270.042 80.2904 269.183 79.9704 268.575 79.3304C267.967 78.6797 267.647 77.773 267.615 76.6104L267.599 75.9704L267.615 75.3304C267.647 74.1677 267.967 73.2664 268.575 72.6264C269.183 71.9757 270.042 71.6504 271.151 71.6504C271.855 71.6504 272.452 71.7784 272.943 72.0344C273.444 72.2797 273.818 72.5997 274.063 72.9944C274.308 73.3784 274.442 73.7784 274.463 74.1944C274.474 74.2904 274.442 74.3757 274.367 74.4504C274.292 74.5144 274.207 74.5464 274.111 74.5464H273.887C273.78 74.5464 273.7 74.525 273.647 74.4824C273.604 74.429 273.556 74.3384 273.503 74.2104C273.29 73.6237 272.991 73.2077 272.607 72.9624C272.223 72.7064 271.738 72.5784 271.151 72.5784C270.383 72.5784 269.77 72.813 269.311 73.2824C268.863 73.741 268.623 74.4504 268.591 75.4104L268.575 75.9704L268.591 76.5304C268.623 77.4904 268.863 78.205 269.311 78.6744C269.77 79.133 270.383 79.3624 271.151 79.3624C271.738 79.3624 272.223 79.2397 272.607 78.9944C272.991 78.7384 273.29 78.317 273.503 77.7304C273.556 77.6024 273.604 77.517 273.647 77.4744C273.7 77.421 273.78 77.3944 273.887 77.3944H274.111C274.207 77.3944 274.292 77.4317 274.367 77.5064C274.442 77.5704 274.474 77.6504 274.463 77.7464C274.442 78.1624 274.308 78.5677 274.063 78.9624C273.818 79.3464 273.444 79.6664 272.943 79.9224C272.452 80.1677 271.855 80.2904 271.151 80.2904ZM276.433 81.3304C276.348 81.3304 276.284 81.2984 276.241 81.2344C276.209 81.1917 276.193 81.1437 276.193 81.0904C276.193 81.0584 276.199 81.0264 276.209 80.9944L276.513 79.0744C276.545 78.7864 276.679 78.6424 276.913 78.6424H277.633C277.708 78.6424 277.767 78.669 277.809 78.7224C277.852 78.7757 277.873 78.8344 277.873 78.8984C277.873 78.9944 277.852 79.0904 277.809 79.1864L277.121 80.9944C277.068 81.1117 277.009 81.197 276.945 81.2504C276.892 81.3037 276.812 81.3304 276.705 81.3304H276.433ZM287.587 80.2904C286.574 80.2904 285.758 79.9597 285.139 79.2984C284.52 78.6264 284.168 77.7304 284.083 76.6104L284.067 75.9704L284.083 75.3304C284.168 74.221 284.515 73.3304 285.123 72.6584C285.742 71.9864 286.563 71.6504 287.587 71.6504C288.696 71.6504 289.56 72.0184 290.179 72.7544C290.808 73.4904 291.123 74.4984 291.123 75.7784V76.0184C291.123 76.125 291.086 76.2104 291.011 76.2744C290.947 76.3384 290.862 76.3704 290.755 76.3704H285.059V76.5304C285.08 77.0317 285.192 77.501 285.395 77.9384C285.608 78.365 285.902 78.7117 286.275 78.9784C286.648 79.2344 287.086 79.3624 287.587 79.3624C288.174 79.3624 288.648 79.2504 289.011 79.0264C289.384 78.7917 289.651 78.557 289.811 78.3224C289.907 78.1944 289.976 78.1144 290.019 78.0824C290.072 78.0504 290.163 78.0344 290.291 78.0344H290.547C290.643 78.0344 290.723 78.061 290.787 78.1144C290.851 78.1677 290.883 78.237 290.883 78.3224C290.883 78.5464 290.739 78.8184 290.451 79.1384C290.174 79.4477 289.784 79.7197 289.283 79.9544C288.782 80.1784 288.216 80.2904 287.587 80.2904ZM290.147 75.4744V75.4104C290.147 74.589 289.912 73.9117 289.443 73.3784C288.984 72.845 288.366 72.5784 287.587 72.5784C286.808 72.5784 286.19 72.845 285.731 73.3784C285.283 73.9117 285.059 74.589 285.059 75.4104V75.4744H290.147ZM296.322 80.2904C295.308 80.2904 294.492 79.9597 293.874 79.2984C293.255 78.6264 292.903 77.7304 292.818 76.6104L292.802 75.9704L292.818 75.3304C292.903 74.221 293.25 73.3304 293.858 72.6584C294.476 71.9864 295.298 71.6504 296.322 71.6504C297.431 71.6504 298.295 72.0184 298.914 72.7544C299.543 73.4904 299.858 74.4984 299.858 75.7784V76.0184C299.858 76.125 299.82 76.2104 299.746 76.2744C299.682 76.3384 299.596 76.3704 299.49 76.3704H293.794V76.5304C293.815 77.0317 293.927 77.501 294.13 77.9384C294.343 78.365 294.636 78.7117 295.01 78.9784C295.383 79.2344 295.82 79.3624 296.322 79.3624C296.908 79.3624 297.383 79.2504 297.746 79.0264C298.119 78.7917 298.386 78.557 298.546 78.3224C298.642 78.1944 298.711 78.1144 298.754 78.0824C298.807 78.0504 298.898 78.0344 299.026 78.0344H299.282C299.378 78.0344 299.458 78.061 299.522 78.1144C299.586 78.1677 299.618 78.237 299.618 78.3224C299.618 78.5464 299.474 78.8184 299.186 79.1384C298.908 79.4477 298.519 79.7197 298.018 79.9544C297.516 80.1784 296.951 80.2904 296.322 80.2904ZM298.882 75.4744V75.4104C298.882 74.589 298.647 73.9117 298.178 73.3784C297.719 72.845 297.1 72.5784 296.322 72.5784C295.543 72.5784 294.924 72.845 294.466 73.3784C294.018 73.9117 293.794 74.589 293.794 75.4104V75.4744H298.882ZM308.592 71.8104C308.677 71.8104 308.752 71.8424 308.816 71.9064C308.88 71.9704 308.912 72.0397 308.912 72.1144V79.7784C308.912 79.885 308.88 79.9704 308.816 80.0344C308.752 80.0984 308.667 80.1304 308.56 80.1304H308.288C308.181 80.1304 308.096 80.0984 308.032 80.0344C307.968 79.9704 307.936 79.885 307.936 79.7784V73.4424L303.008 79.8904C302.891 80.0504 302.752 80.1304 302.592 80.1304H302.288C302.203 80.1304 302.128 80.0984 302.064 80.0344C302 79.9704 301.968 79.8957 301.968 79.8104V72.1624C301.968 72.0557 302 71.9704 302.064 71.9064C302.128 71.8424 302.213 71.8104 302.32 71.8104H302.592C302.699 71.8104 302.784 71.8424 302.848 71.9064C302.912 71.9704 302.944 72.0557 302.944 72.1624V78.4984L307.872 72.0504C307.989 71.8904 308.128 71.8104 308.288 71.8104H308.592ZM305.44 70.6904C304.619 70.6904 304.037 70.5144 303.696 70.1624C303.365 69.8104 303.2 69.3677 303.2 68.8344C303.2 68.749 303.227 68.6797 303.28 68.6264C303.333 68.5624 303.408 68.5304 303.504 68.5304H303.744C303.84 68.5304 303.915 68.5624 303.968 68.6264C304.021 68.6797 304.048 68.749 304.048 68.8344C304.048 69.133 304.149 69.3837 304.352 69.5864C304.565 69.789 304.928 69.8904 305.44 69.8904C305.952 69.8904 306.309 69.789 306.512 69.5864C306.725 69.3837 306.832 69.133 306.832 68.8344C306.832 68.749 306.859 68.6797 306.912 68.6264C306.965 68.5624 307.04 68.5304 307.136 68.5304H307.376C307.472 68.5304 307.547 68.5624 307.6 68.6264C307.653 68.6797 307.68 68.749 307.68 68.8344C307.68 69.3677 307.509 69.8104 307.168 70.1624C306.837 70.5144 306.261 70.6904 305.44 70.6904ZM311.355 81.3304C311.27 81.3304 311.206 81.2984 311.163 81.2344C311.131 81.1917 311.115 81.1437 311.115 81.0904C311.115 81.0584 311.12 81.0264 311.131 80.9944L311.435 79.0744C311.467 78.7864 311.6 78.6424 311.835 78.6424H312.555C312.63 78.6424 312.688 78.669 312.731 78.7224C312.774 78.7757 312.795 78.8344 312.795 78.8984C312.795 78.9944 312.774 79.0904 312.731 79.1864L312.043 80.9944C311.99 81.1117 311.931 81.197 311.867 81.2504C311.814 81.3037 311.734 81.3304 311.627 81.3304H311.355ZM319.789 83.1704C319.682 83.1704 319.597 83.1384 319.533 83.0744C319.469 83.0104 319.437 82.925 319.437 82.8184V72.1624C319.437 72.0557 319.469 71.9704 319.533 71.9064C319.597 71.8424 319.682 71.8104 319.789 71.8104H320.061C320.168 71.8104 320.253 71.8424 320.317 71.9064C320.381 71.9704 320.413 72.0557 320.413 72.1624V72.9144C321.032 72.0717 321.928 71.6504 323.101 71.6504C324.253 71.6504 325.101 72.0184 325.645 72.7544C326.2 73.4797 326.493 74.3757 326.525 75.4424C326.536 75.549 326.541 75.725 326.541 75.9704C326.541 76.2157 326.536 76.3917 326.525 76.4984C326.493 77.565 326.2 78.4664 325.645 79.2024C325.101 79.9277 324.253 80.2904 323.101 80.2904C321.938 80.2904 321.042 79.869 320.413 79.0264V82.8184C320.413 82.925 320.381 83.0104 320.317 83.0744C320.253 83.1384 320.168 83.1704 320.061 83.1704H319.789ZM323.005 79.3624C323.869 79.3624 324.498 79.0904 324.893 78.5464C325.298 77.9917 325.517 77.2824 325.549 76.4184C325.56 76.3117 325.565 76.1624 325.565 75.9704C325.565 74.9784 325.373 74.1677 324.989 73.5384C324.605 72.8984 323.944 72.5784 323.005 72.5784C322.162 72.5784 321.528 72.861 321.101 73.4264C320.674 73.981 320.445 74.637 320.413 75.3944L320.397 76.0184L320.413 76.6424C320.424 77.101 320.525 77.5384 320.717 77.9544C320.909 78.3597 321.197 78.6957 321.581 78.9624C321.965 79.229 322.44 79.3624 323.005 79.3624ZM331.806 80.2904C330.793 80.2904 329.977 79.9597 329.358 79.2984C328.739 78.6264 328.387 77.7304 328.302 76.6104L328.286 75.9704L328.302 75.3304C328.387 74.221 328.734 73.3304 329.342 72.6584C329.961 71.9864 330.782 71.6504 331.806 71.6504C332.915 71.6504 333.779 72.0184 334.398 72.7544C335.027 73.4904 335.342 74.4984 335.342 75.7784V76.0184C335.342 76.125 335.305 76.2104 335.23 76.2744C335.166 76.3384 335.081 76.3704 334.974 76.3704H329.278V76.5304C329.299 77.0317 329.411 77.501 329.614 77.9384C329.827 78.365 330.121 78.7117 330.494 78.9784C330.867 79.2344 331.305 79.3624 331.806 79.3624C332.393 79.3624 332.867 79.2504 333.23 79.0264C333.603 78.7917 333.87 78.557 334.03 78.3224C334.126 78.1944 334.195 78.1144 334.238 78.0824C334.291 78.0504 334.382 78.0344 334.51 78.0344H334.766C334.862 78.0344 334.942 78.061 335.006 78.1144C335.07 78.1677 335.102 78.237 335.102 78.3224C335.102 78.5464 334.958 78.8184 334.67 79.1384C334.393 79.4477 334.003 79.7197 333.502 79.9544C333.001 80.1784 332.435 80.2904 331.806 80.2904ZM334.366 75.4744V75.4104C334.366 74.589 334.131 73.9117 333.662 73.3784C333.203 72.845 332.585 72.5784 331.806 72.5784C331.027 72.5784 330.409 72.845 329.95 73.3784C329.502 73.9117 329.278 74.589 329.278 75.4104V75.4744H334.366ZM345.164 71.8104C345.25 71.8104 345.324 71.8424 345.388 71.9064C345.452 71.9704 345.484 72.0397 345.484 72.1144V79.7784C345.484 79.885 345.452 79.9704 345.388 80.0344C345.324 80.0984 345.239 80.1304 345.132 80.1304H344.86C344.754 80.1304 344.668 80.0984 344.604 80.0344C344.54 79.9704 344.508 79.885 344.508 79.7784V73.7944L342.172 78.3224C342.087 78.4717 342.007 78.5837 341.932 78.6584C341.868 78.733 341.767 78.7704 341.628 78.7704H341.308C341.17 78.7704 341.063 78.733 340.988 78.6584C340.924 78.5837 340.85 78.4717 340.764 78.3224L338.428 73.9224V79.7784C338.428 79.885 338.396 79.9704 338.332 80.0344C338.268 80.0984 338.183 80.1304 338.076 80.1304H337.804C337.698 80.1304 337.612 80.0984 337.548 80.0344C337.484 79.9704 337.452 79.885 337.452 79.7784V72.1144C337.452 72.0397 337.484 71.9704 337.548 71.9064C337.612 71.8424 337.687 71.8104 337.772 71.8104H338.14C338.3 71.8104 338.423 71.8904 338.508 72.0504L341.468 77.6504L344.428 72.0504C344.514 71.8904 344.636 71.8104 344.796 71.8104H345.164ZM351.245 80.2904C350.136 80.2904 349.272 79.9544 348.653 79.2824C348.045 78.5997 347.725 77.7197 347.693 76.6424L347.677 75.9704L347.693 75.2984C347.725 74.221 348.045 73.3464 348.653 72.6744C349.272 71.9917 350.136 71.6504 351.245 71.6504C352.355 71.6504 353.213 71.9917 353.821 72.6744C354.44 73.3464 354.765 74.221 354.797 75.2984C354.808 75.405 354.813 75.629 354.813 75.9704C354.813 76.3117 354.808 76.5357 354.797 76.6424C354.765 77.7197 354.44 78.5997 353.821 79.2824C353.213 79.9544 352.355 80.2904 351.245 80.2904ZM351.245 79.3624C352.003 79.3624 352.611 79.1224 353.069 78.6424C353.539 78.1517 353.789 77.4584 353.821 76.5624C353.832 76.4557 353.837 76.2584 353.837 75.9704C353.837 75.6824 353.832 75.485 353.821 75.3784C353.789 74.4824 353.539 73.7944 353.069 73.3144C352.611 72.8237 352.003 72.5784 351.245 72.5784C350.488 72.5784 349.875 72.8237 349.405 73.3144C348.947 73.7944 348.701 74.4824 348.669 75.3784L348.653 75.9704L348.669 76.5624C348.701 77.4584 348.947 78.1517 349.405 78.6424C349.875 79.1224 350.488 79.3624 351.245 79.3624ZM357.351 80.1304C357.244 80.1304 357.159 80.0984 357.095 80.0344C357.031 79.9704 356.999 79.885 356.999 79.7784V72.1624C356.999 72.0557 357.031 71.9704 357.095 71.9064C357.159 71.8424 357.244 71.8104 357.351 71.8104H357.623C357.73 71.8104 357.815 71.8424 357.879 71.9064C357.943 71.9704 357.975 72.0557 357.975 72.1624V75.4104H362.967V72.1624C362.967 72.0557 362.999 71.9704 363.063 71.9064C363.127 71.8424 363.212 71.8104 363.319 71.8104H363.591C363.698 71.8104 363.783 71.8424 363.847 71.9064C363.911 71.9704 363.943 72.0557 363.943 72.1624V79.7784C363.943 79.885 363.911 79.9704 363.847 80.0344C363.783 80.0984 363.698 80.1304 363.591 80.1304H363.319C363.212 80.1304 363.127 80.0984 363.063 80.0344C362.999 79.9704 362.967 79.885 362.967 79.7784V76.3384H357.975V79.7784C357.975 79.885 357.943 79.9704 357.879 80.0344C357.815 80.0984 357.73 80.1304 357.623 80.1304H357.351ZM369.074 80.1304C368.968 80.1304 368.882 80.0984 368.818 80.0344C368.754 79.9704 368.722 79.885 368.722 79.7784V72.7384H365.794C365.688 72.7384 365.602 72.7064 365.538 72.6424C365.474 72.5784 365.442 72.493 365.442 72.3864V72.1624C365.442 72.0557 365.474 71.9704 365.538 71.9064C365.602 71.8424 365.688 71.8104 365.794 71.8104H372.626C372.733 71.8104 372.818 71.8424 372.882 71.9064C372.946 71.9704 372.978 72.0557 372.978 72.1624V72.3864C372.978 72.493 372.946 72.5784 372.882 72.6424C372.818 72.7064 372.733 72.7384 372.626 72.7384H369.698V79.7784C369.698 79.885 369.666 79.9704 369.602 80.0344C369.538 80.0984 369.453 80.1304 369.346 80.1304H369.074ZM378.961 80.1304C378.854 80.1304 378.769 80.0984 378.705 80.0344C378.641 79.9704 378.609 79.885 378.609 79.7784V72.1624C378.609 72.0557 378.641 71.9704 378.705 71.9064C378.769 71.8424 378.854 71.8104 378.961 71.8104H384.881C384.987 71.8104 385.073 71.8424 385.137 71.9064C385.201 71.9704 385.233 72.0557 385.233 72.1624V79.7784C385.233 79.885 385.201 79.9704 385.137 80.0344C385.073 80.0984 384.987 80.1304 384.881 80.1304H384.609C384.502 80.1304 384.417 80.0984 384.353 80.0344C384.289 79.9704 384.257 79.885 384.257 79.7784V72.7384H379.585V79.7784C379.585 79.885 379.553 79.9704 379.489 80.0344C379.425 80.0984 379.339 80.1304 379.233 80.1304H378.961ZM390.995 80.2904C389.886 80.2904 389.022 79.9544 388.403 79.2824C387.795 78.5997 387.475 77.7197 387.443 76.6424L387.427 75.9704L387.443 75.2984C387.475 74.221 387.795 73.3464 388.403 72.6744C389.022 71.9917 389.886 71.6504 390.995 71.6504C392.105 71.6504 392.963 71.9917 393.571 72.6744C394.19 73.3464 394.515 74.221 394.547 75.2984C394.558 75.405 394.563 75.629 394.563 75.9704C394.563 76.3117 394.558 76.5357 394.547 76.6424C394.515 77.7197 394.19 78.5997 393.571 79.2824C392.963 79.9544 392.105 80.2904 390.995 80.2904ZM390.995 79.3624C391.753 79.3624 392.361 79.1224 392.819 78.6424C393.289 78.1517 393.539 77.4584 393.571 76.5624C393.582 76.4557 393.587 76.2584 393.587 75.9704C393.587 75.6824 393.582 75.485 393.571 75.3784C393.539 74.4824 393.289 73.7944 392.819 73.3144C392.361 72.8237 391.753 72.5784 390.995 72.5784C390.238 72.5784 389.625 72.8237 389.155 73.3144C388.697 73.7944 388.451 74.4824 388.419 75.3784L388.403 75.9704L388.419 76.5624C388.451 77.4584 388.697 78.1517 389.155 78.6424C389.625 79.1224 390.238 79.3624 390.995 79.3624ZM399.293 80.1304C399.186 80.1304 399.101 80.0984 399.037 80.0344C398.973 79.9704 398.941 79.885 398.941 79.7784V72.7384H396.013C395.906 72.7384 395.821 72.7064 395.757 72.6424C395.693 72.5784 395.661 72.493 395.661 72.3864V72.1624C395.661 72.0557 395.693 71.9704 395.757 71.9064C395.821 71.8424 395.906 71.8104 396.013 71.8104H402.845C402.952 71.8104 403.037 71.8424 403.101 71.9064C403.165 71.9704 403.197 72.0557 403.197 72.1624V72.3864C403.197 72.493 403.165 72.5784 403.101 72.6424C403.037 72.7064 402.952 72.7384 402.845 72.7384H399.917V79.7784C399.917 79.885 399.885 79.9704 399.821 80.0344C399.757 80.0984 399.672 80.1304 399.565 80.1304H399.293ZM405.07 83.1704C404.964 83.1704 404.878 83.1384 404.814 83.0744C404.75 83.0104 404.718 82.925 404.718 82.8184V72.1624C404.718 72.0557 404.75 71.9704 404.814 71.9064C404.878 71.8424 404.964 71.8104 405.07 71.8104H405.342C405.449 71.8104 405.534 71.8424 405.598 71.9064C405.662 71.9704 405.694 72.0557 405.694 72.1624V72.9144C406.313 72.0717 407.209 71.6504 408.382 71.6504C409.534 71.6504 410.382 72.0184 410.926 72.7544C411.481 73.4797 411.774 74.3757 411.806 75.4424C411.817 75.549 411.822 75.725 411.822 75.9704C411.822 76.2157 411.817 76.3917 411.806 76.4984C411.774 77.565 411.481 78.4664 410.926 79.2024C410.382 79.9277 409.534 80.2904 408.382 80.2904C407.22 80.2904 406.324 79.869 405.694 79.0264V82.8184C405.694 82.925 405.662 83.0104 405.598 83.0744C405.534 83.1384 405.449 83.1704 405.342 83.1704H405.07ZM408.286 79.3624C409.15 79.3624 409.78 79.0904 410.174 78.5464C410.58 77.9917 410.798 77.2824 410.83 76.4184C410.841 76.3117 410.846 76.1624 410.846 75.9704C410.846 74.9784 410.654 74.1677 410.27 73.5384C409.886 72.8984 409.225 72.5784 408.286 72.5784C407.444 72.5784 406.809 72.861 406.382 73.4264C405.956 73.981 405.726 74.637 405.694 75.3944L405.678 76.0184L405.694 76.6424C405.705 77.101 405.806 77.5384 405.998 77.9544C406.19 78.3597 406.478 78.6957 406.862 78.9624C407.246 79.229 407.721 79.3624 408.286 79.3624ZM414.175 70.0984C414.068 70.0984 413.983 70.0664 413.919 70.0024C413.855 69.9384 413.823 69.853 413.823 69.7464V69.1384C413.823 69.0317 413.855 68.9464 413.919 68.8824C413.983 68.8077 414.068 68.7704 414.175 68.7704H414.783C414.89 68.7704 414.975 68.8077 415.039 68.8824C415.114 68.9464 415.151 69.0317 415.151 69.1384V69.7464C415.151 69.853 415.114 69.9384 415.039 70.0024C414.975 70.0664 414.89 70.0984 414.783 70.0984H414.175ZM414.351 80.1304C414.244 80.1304 414.159 80.0984 414.095 80.0344C414.031 79.9704 413.999 79.885 413.999 79.7784V72.1624C413.999 72.0557 414.031 71.9704 414.095 71.9064C414.159 71.8424 414.244 71.8104 414.351 71.8104H414.623C414.73 71.8104 414.815 71.8424 414.879 71.9064C414.943 71.9704 414.975 72.0557 414.975 72.1624V79.7784C414.975 79.885 414.943 79.9704 414.879 80.0344C414.815 80.0984 414.73 80.1304 414.623 80.1304H414.351ZM424.426 75.7784C424.436 75.885 424.442 76.045 424.442 76.2584C424.442 76.4397 424.436 76.5677 424.426 76.6424C424.394 77.7197 424.068 78.5997 423.45 79.2824C422.842 79.9544 421.983 80.2904 420.874 80.2904C419.764 80.2904 418.9 79.9544 418.282 79.2824C417.663 78.5997 417.338 77.7197 417.306 76.6424V74.7384C417.306 73.2024 417.487 72.0504 417.85 71.2824C418.223 70.5144 418.751 69.965 419.434 69.6344C420.116 69.3037 421.204 68.9357 422.698 68.5304C422.847 68.4984 423.071 68.4397 423.37 68.3544L423.45 68.3384C423.524 68.3384 423.588 68.365 423.642 68.4184C423.706 68.461 423.748 68.5197 423.77 68.5944L423.834 68.8984C423.844 68.9197 423.85 68.9517 423.85 68.9944C423.85 69.069 423.828 69.133 423.786 69.1864C423.743 69.229 423.684 69.261 423.61 69.2824L422.57 69.5544C421.396 69.8637 420.543 70.1357 420.01 70.3704C419.476 70.5944 419.055 70.9517 418.746 71.4424C418.447 71.933 418.287 72.6584 418.266 73.6184C418.532 73.1704 418.916 72.813 419.418 72.5464C419.919 72.269 420.458 72.1304 421.034 72.1304C422.068 72.1304 422.884 72.4717 423.482 73.1544C424.079 73.837 424.394 74.7117 424.426 75.7784ZM423.45 76.5624C423.46 76.4984 423.466 76.397 423.466 76.2584C423.466 76.0984 423.46 75.965 423.45 75.8584C423.418 74.973 423.178 74.285 422.73 73.7944C422.282 73.3037 421.716 73.0584 421.034 73.0584C420.266 73.0584 419.626 73.3037 419.114 73.7944C418.602 74.285 418.33 74.973 418.298 75.8584L418.282 76.2584L418.298 76.5624C418.33 77.4584 418.575 78.1517 419.034 78.6424C419.503 79.1224 420.116 79.3624 420.874 79.3624C421.631 79.3624 422.239 79.1224 422.698 78.6424C423.167 78.1517 423.418 77.4584 423.45 76.5624ZM429.728 80.2904C428.714 80.2904 427.898 79.9597 427.28 79.2984C426.661 78.6264 426.309 77.7304 426.224 76.6104L426.208 75.9704L426.224 75.3304C426.309 74.221 426.656 73.3304 427.264 72.6584C427.882 71.9864 428.704 71.6504 429.728 71.6504C430.837 71.6504 431.701 72.0184 432.32 72.7544C432.949 73.4904 433.264 74.4984 433.264 75.7784V76.0184C433.264 76.125 433.226 76.2104 433.152 76.2744C433.088 76.3384 433.002 76.3704 432.896 76.3704H427.2V76.5304C427.221 77.0317 427.333 77.501 427.536 77.9384C427.749 78.365 428.042 78.7117 428.416 78.9784C428.789 79.2344 429.226 79.3624 429.728 79.3624C430.314 79.3624 430.789 79.2504 431.152 79.0264C431.525 78.7917 431.792 78.557 431.952 78.3224C432.048 78.1944 432.117 78.1144 432.16 78.0824C432.213 78.0504 432.304 78.0344 432.432 78.0344H432.688C432.784 78.0344 432.864 78.061 432.928 78.1144C432.992 78.1677 433.024 78.237 433.024 78.3224C433.024 78.5464 432.88 78.8184 432.592 79.1384C432.314 79.4477 431.925 79.7197 431.424 79.9544C430.922 80.1784 430.357 80.2904 429.728 80.2904ZM432.288 75.4744V75.4104C432.288 74.589 432.053 73.9117 431.584 73.3784C431.125 72.845 430.506 72.5784 429.728 72.5784C428.949 72.5784 428.33 72.845 427.872 73.3784C427.424 73.9117 427.2 74.589 427.2 75.4104V75.4744H432.288ZM435.726 80.1304C435.619 80.1304 435.534 80.0984 435.47 80.0344C435.406 79.9704 435.374 79.885 435.374 79.7784V72.1624C435.374 72.0557 435.406 71.9704 435.47 71.9064C435.534 71.8424 435.619 71.8104 435.726 71.8104H435.998C436.105 71.8104 436.19 71.8424 436.254 71.9064C436.318 71.9704 436.35 72.0557 436.35 72.1624V75.4104H441.342V72.1624C441.342 72.0557 441.374 71.9704 441.438 71.9064C441.502 71.8424 441.587 71.8104 441.694 71.8104H441.966C442.073 71.8104 442.158 71.8424 442.222 71.9064C442.286 71.9704 442.318 72.0557 442.318 72.1624V79.7784C442.318 79.885 442.286 79.9704 442.222 80.0344C442.158 80.0984 442.073 80.1304 441.966 80.1304H441.694C441.587 80.1304 441.502 80.0984 441.438 80.0344C441.374 79.9704 441.342 79.885 441.342 79.7784V76.3384H436.35V79.7784C436.35 79.885 436.318 79.9704 436.254 80.0344C436.19 80.0984 436.105 80.1304 435.998 80.1304H435.726ZM447.561 77.8424C447.455 77.8424 447.369 77.8104 447.305 77.7464C447.241 77.6824 447.209 77.597 447.209 77.4904V76.7224C447.209 76.285 447.284 75.8904 447.433 75.5384C447.583 75.1864 447.764 74.8824 447.977 74.6264C448.191 74.3597 448.473 74.045 448.825 73.6824C449.263 73.2237 449.577 72.8504 449.769 72.5624C449.972 72.2637 450.073 71.9277 450.073 71.5544C450.073 70.989 449.833 70.541 449.353 70.2104C448.873 69.869 448.319 69.6984 447.689 69.6984C447.017 69.6984 446.457 69.8744 446.009 70.2264C445.561 70.5784 445.273 71.1437 445.145 71.9224C445.103 72.157 444.975 72.2744 444.761 72.2744H444.505C444.409 72.2744 444.329 72.2477 444.265 72.1944C444.201 72.1304 444.169 72.0504 444.169 71.9544C444.18 71.3677 444.34 70.8344 444.649 70.3544C444.959 69.8637 445.375 69.4797 445.897 69.2024C446.431 68.9144 447.028 68.7704 447.689 68.7704C448.404 68.7704 449.012 68.8984 449.513 69.1544C450.025 69.4104 450.404 69.7517 450.649 70.1784C450.905 70.605 451.033 71.0637 451.033 71.5544C451.033 72.109 450.905 72.589 450.649 72.9944C450.393 73.3997 450.015 73.8637 449.513 74.3864C449.065 74.8557 448.729 75.2557 448.505 75.5864C448.292 75.917 448.185 76.2957 448.185 76.7224V77.4904C448.185 77.597 448.153 77.6824 448.089 77.7464C448.025 77.8104 447.94 77.8424 447.833 77.8424H447.561ZM447.369 80.1304C447.263 80.1304 447.177 80.0984 447.113 80.0344C447.049 79.9704 447.017 79.885 447.017 79.7784V79.1704C447.017 79.0637 447.049 78.9784 447.113 78.9144C447.177 78.8397 447.263 78.8024 447.369 78.8024H447.977C448.084 78.8024 448.169 78.8397 448.233 78.9144C448.308 78.9784 448.345 79.0637 448.345 79.1704V79.7784C448.345 79.885 448.308 79.9704 448.233 80.0344C448.169 80.0984 448.084 80.1304 447.977 80.1304H447.369Z" fill="white"/>
<circle cx="195.5" cy="106.63" r="7.5" fill="#0066FF"/>
</svg>
