<svg width="455" height="184" viewBox="0 0 455 184" fill="none" xmlns="http://www.w3.org/2000/svg">
<path d="M80.4179 98.4911L28.2609 110.953C26.0442 111.482 23.8199 110.116 23.2902 107.899L2.20127 19.6337C1.67164 17.417 3.03808 15.1926 5.25475 14.663L57.4117 2.20133C59.6284 1.67171 61.8527 3.03814 62.3824 5.25481L83.4713 93.5204C84.001 95.7371 82.6345 97.9615 80.4179 98.4911Z" fill="#6DA8FF"/>
<path d="M62.3824 5.25481L62.8617 7.26085C62.3344 5.05421 60.0976 3.68014 57.891 4.20737L5.73404 16.669C3.5274 17.1963 2.15334 19.4331 2.68056 21.6397L2.20127 19.6337C1.67404 17.427 3.04811 15.1902 5.25475 14.663L57.4117 2.20133C59.6183 1.6741 61.8551 3.04817 62.3824 5.25481Z" fill="#E3EEEC"/>
<path d="M52.4224 96.6977C62.3935 94.3154 68.5454 84.3009 66.163 74.3297C63.7807 64.3586 53.7662 58.2067 43.7951 60.5891C33.8239 62.9714 27.672 72.9859 30.0544 82.957C32.4367 92.9282 42.4512 99.0801 52.4224 96.6977Z" fill="#ECF8FF"/>
<path d="M50.0255 86.6675C54.4571 85.6087 57.1913 81.1578 56.1325 76.7262C55.0736 72.2946 50.6228 69.5604 46.1911 70.6192C41.7595 71.678 39.0253 76.1289 40.0842 80.5605C41.143 84.9921 45.5939 87.7263 50.0255 86.6675Z" fill="#6DA8FF"/>
<path d="M8.69873 20.2018L56.8436 8.69871L65.4709 44.8074L17.326 56.3104L8.69873 20.2018Z" fill="#E1F4FF"/>
<path d="M17.326 56.3104L56.8436 8.69871L65.4709 44.8074L17.326 56.3104Z" fill="#CEEDFF"/>
<path d="M80.6575 99.494C83.4238 98.8331 85.1353 96.047 84.4743 93.2807L63.3854 5.01511C62.7244 2.24878 59.9384 0.537306 57.172 1.19825L5.01509 13.6599C2.24877 14.3209 0.537289 17.1069 1.19824 19.8732L22.2872 108.139C22.9482 110.905 25.7342 112.617 28.5005 111.956L80.6575 99.494ZM24.2932 107.66L3.20427 19.394C2.8079 17.735 3.83539 16.0623 5.49439 15.666L57.6513 3.20429C59.3103 2.80791 60.983 3.83541 61.3793 5.4944L82.4683 93.76C82.8647 95.419 81.8372 97.0916 80.1782 97.488L28.0212 109.95C26.3622 110.346 24.6896 109.319 24.2932 107.66Z" fill="black"/>
<path d="M43.5554 59.586C33.0478 62.0965 26.5408 72.689 29.0513 83.1966C31.5619 93.7043 42.1544 100.211 52.662 97.7007C63.1696 95.1901 69.6766 84.5977 67.166 74.09C64.6555 63.5824 54.063 57.0754 43.5554 59.586ZM52.1827 95.6946C42.7804 97.9411 33.3038 92.1196 31.0574 82.7173C28.8109 73.315 34.6324 63.8385 44.0347 61.592C53.437 59.3456 62.9136 65.167 65.16 74.5693C67.4065 83.9716 61.585 93.4482 52.1827 95.6946Z" fill="black"/>
<path d="M45.9515 69.6162C40.9745 70.8054 37.892 75.8233 39.0811 80.8002C40.2703 85.7772 45.2882 88.8597 50.2651 87.6706C55.2421 86.4814 58.3246 81.4636 57.1355 76.4866C55.9463 71.5096 50.9285 68.4271 45.9515 69.6162ZM49.7858 85.6645C45.9142 86.5896 42.0122 84.1926 41.0872 80.3209C40.1621 76.4493 42.5591 72.5473 46.4308 71.6223C50.3024 70.6972 54.2044 73.0942 55.1294 76.9659C56.0545 80.8375 53.6575 84.7395 49.7858 85.6645Z" fill="black"/>
<path d="M17.5657 57.3134L65.7106 45.8103C66.2642 45.678 66.6062 45.1213 66.4739 44.5677L57.8466 8.459C57.7143 7.90534 57.1576 7.56335 56.604 7.69563L8.45907 19.1987C7.90541 19.331 7.56342 19.8877 7.6957 20.4414L16.323 56.55C16.4553 57.1037 17.012 57.4457 17.5657 57.3134ZM9.94139 20.9651L56.0802 9.94132L64.2282 44.0439L18.0894 55.0677L9.94139 20.9651Z" fill="black"/>
<rect x="84" y="136" width="371" height="48" rx="24" fill="#0066FF"/>
<path d="M117.341 151.66H124.861V164.2H126.381V167.68H125.541V165H115.581V167.68H114.741V164.2C115.194 164.213 115.608 164.053 115.981 163.72C116.354 163.373 116.648 162.933 116.861 162.4C117.181 161.586 117.341 160.42 117.341 158.9V151.66ZM118.221 152.46V158.9C118.221 160.54 118.061 161.78 117.741 162.62C117.514 163.22 117.174 163.746 116.721 164.2H123.981V152.46H118.221ZM134.748 158.26V156.84H135.548V165H134.748V163.54C134.015 164.66 132.955 165.22 131.568 165.22C130.461 165.22 129.521 164.826 128.748 164.04C127.975 163.253 127.588 162.213 127.588 160.92C127.588 159.653 127.955 158.626 128.688 157.84C129.421 157.053 130.381 156.66 131.568 156.66C132.928 156.66 133.988 157.193 134.748 158.26ZM131.608 157.42C130.741 157.42 129.995 157.733 129.368 158.36C128.741 158.973 128.428 159.806 128.428 160.86C128.428 161.833 128.715 162.68 129.288 163.4C129.861 164.106 130.641 164.46 131.628 164.46C132.601 164.46 133.368 164.113 133.928 163.42C134.501 162.713 134.788 161.86 134.788 160.86C134.788 159.753 134.461 158.906 133.808 158.32C133.155 157.72 132.421 157.42 131.608 157.42ZM138.42 156.84H141.08C141.84 156.84 142.42 157 142.82 157.32C143.3 157.706 143.54 158.226 143.54 158.88C143.54 159.626 143.24 160.193 142.64 160.58C143.014 160.633 143.347 160.786 143.64 161.04C144.107 161.453 144.34 162 144.34 162.68C144.34 163.44 144.067 164.026 143.52 164.44C143.04 164.813 142.374 165 141.52 165H138.42V156.84ZM139.22 160.4H141.08C141.574 160.4 141.96 160.286 142.24 160.06C142.574 159.793 142.74 159.433 142.74 158.98C142.74 158.54 142.574 158.186 142.24 157.92C141.974 157.706 141.587 157.6 141.08 157.6H139.22V160.4ZM139.22 164.24H141.52C142.134 164.24 142.6 164.12 142.92 163.88C143.307 163.586 143.5 163.18 143.5 162.66C143.5 162.18 143.32 161.8 142.96 161.52C142.64 161.28 142.16 161.16 141.52 161.16H139.22V164.24ZM146.702 165V156.84H147.502V160.44H152.102V156.84H152.902V165H152.102V161.2H147.502V165H146.702ZM156.484 157.9C157.31 157.073 158.33 156.66 159.544 156.66C160.757 156.66 161.77 157.073 162.584 157.9C163.41 158.713 163.824 159.726 163.824 160.94C163.824 162.153 163.41 163.173 162.584 164C161.77 164.813 160.757 165.22 159.544 165.22C158.33 165.22 157.31 164.813 156.484 164C155.67 163.173 155.264 162.153 155.264 160.94C155.264 159.726 155.67 158.713 156.484 157.9ZM157.084 163.44C157.75 164.12 158.57 164.46 159.544 164.46C160.517 164.46 161.33 164.12 161.984 163.44C162.65 162.76 162.984 161.926 162.984 160.94C162.984 159.953 162.65 159.12 161.984 158.44C161.33 157.76 160.517 157.42 159.544 157.42C158.57 157.42 157.75 157.76 157.084 158.44C156.43 159.12 156.104 159.953 156.104 160.94C156.104 161.926 156.43 162.76 157.084 163.44ZM169.882 165L171.802 156.34L175.062 163.7L178.322 156.34L180.242 165H179.402L178.082 158.62L175.062 165.5L172.042 158.62L170.722 165H169.882ZM189.47 161.02H182.49C182.437 162.02 182.737 162.846 183.39 163.5C184.044 164.14 184.824 164.46 185.73 164.46C186.37 164.46 186.937 164.293 187.43 163.96C187.924 163.613 188.304 163.16 188.57 162.6L189.25 163C188.944 163.586 188.497 164.106 187.91 164.56C187.324 165 186.577 165.22 185.67 165.22C184.43 165.22 183.45 164.82 182.73 164.02C182.01 163.206 181.65 162.186 181.65 160.96C181.65 159.613 182.037 158.56 182.81 157.8C183.597 157.04 184.53 156.66 185.61 156.66C186.73 156.66 187.664 157.066 188.41 157.88C189.157 158.693 189.51 159.74 189.47 161.02ZM182.55 160.26H188.63C188.524 159.433 188.19 158.753 187.63 158.22C187.084 157.686 186.41 157.42 185.61 157.42C184.797 157.42 184.11 157.693 183.55 158.24C182.99 158.773 182.657 159.446 182.55 160.26ZM191.838 165V156.84H192.638V160.44H197.238V156.84H198.038V165H197.238V161.2H192.638V165H191.838ZM208.22 161.02H201.24C201.187 162.02 201.487 162.846 202.14 163.5C202.794 164.14 203.574 164.46 204.48 164.46C205.12 164.46 205.687 164.293 206.18 163.96C206.674 163.613 207.054 163.16 207.32 162.6L208 163C207.694 163.586 207.247 164.106 206.66 164.56C206.074 165 205.327 165.22 204.42 165.22C203.18 165.22 202.2 164.82 201.48 164.02C200.76 163.206 200.4 162.186 200.4 160.96C200.4 159.613 200.787 158.56 201.56 157.8C202.347 157.04 203.28 156.66 204.36 156.66C205.48 156.66 206.414 157.066 207.16 157.88C207.907 158.693 208.26 159.74 208.22 161.02ZM201.3 160.26H207.38C207.274 159.433 206.94 158.753 206.38 158.22C205.834 157.686 205.16 157.42 204.36 157.42C203.547 157.42 202.86 157.693 202.3 158.24C201.74 158.773 201.407 159.446 201.3 160.26ZM216.816 165V157.6H213.976V156.84H220.456V157.6H217.616V165H216.816ZM228.693 158.26V156.84H229.493V165H228.693V163.54C227.96 164.66 226.9 165.22 225.513 165.22C224.407 165.22 223.467 164.826 222.693 164.04C221.92 163.253 221.533 162.213 221.533 160.92C221.533 159.653 221.9 158.626 222.633 157.84C223.367 157.053 224.327 156.66 225.513 156.66C226.873 156.66 227.933 157.193 228.693 158.26ZM225.553 157.42C224.687 157.42 223.94 157.733 223.313 158.36C222.687 158.973 222.373 159.806 222.373 160.86C222.373 161.833 222.66 162.68 223.233 163.4C223.807 164.106 224.587 164.46 225.573 164.46C226.547 164.46 227.313 164.113 227.873 163.42C228.447 162.713 228.733 161.86 228.733 160.86C228.733 159.753 228.407 158.906 227.753 158.32C227.1 157.72 226.367 157.42 225.553 157.42ZM232.366 156.84H233.166V160.72L237.286 156.84H238.366L234.206 160.72L238.686 165H237.526L233.606 161.26L233.166 161.68V165H232.366V156.84ZM244.963 165V156.84H249.363V157.6H245.763V165H244.963ZM257.6 158.26V156.84H258.4V165H257.6V163.54C256.866 164.66 255.806 165.22 254.42 165.22C253.313 165.22 252.373 164.826 251.6 164.04C250.826 163.253 250.44 162.213 250.44 160.92C250.44 159.653 250.806 158.626 251.54 157.84C252.273 157.053 253.233 156.66 254.42 156.66C255.78 156.66 256.84 157.193 257.6 158.26ZM254.46 157.42C253.593 157.42 252.846 157.733 252.22 158.36C251.593 158.973 251.28 159.806 251.28 160.86C251.28 161.833 251.566 162.68 252.14 163.4C252.713 164.106 253.493 164.46 254.48 164.46C255.453 164.46 256.22 164.113 256.78 163.42C257.353 162.713 257.64 161.86 257.64 160.86C257.64 159.753 257.313 158.906 256.66 158.32C256.006 157.72 255.273 157.42 254.46 157.42ZM262.072 163.54V169.78H261.272V156.84H262.072V158.26C262.859 157.193 263.925 156.66 265.272 156.66C266.472 156.66 267.432 157.06 268.152 157.86C268.872 158.646 269.232 159.646 269.232 160.86C269.232 162.1 268.865 163.14 268.132 163.98C267.412 164.806 266.445 165.22 265.232 165.22C264.619 165.22 264.065 165.1 263.572 164.86C263.079 164.606 262.739 164.38 262.552 164.18C262.365 163.966 262.205 163.753 262.072 163.54ZM262.872 163.44C263.432 164.12 264.212 164.46 265.212 164.46C266.212 164.46 266.992 164.12 267.552 163.44C268.112 162.76 268.392 161.9 268.392 160.86C268.392 159.78 268.085 158.94 267.472 158.34C266.859 157.726 266.112 157.42 265.232 157.42C264.365 157.42 263.612 157.72 262.972 158.32C262.345 158.92 262.032 159.753 262.032 160.82C262.032 161.873 262.312 162.746 262.872 163.44ZM271.585 165V156.84H272.385V160.44H276.985V156.84H277.785V165H276.985V161.2H272.385V165H271.585ZM281.367 157.9C282.193 157.073 283.213 156.66 284.427 156.66C285.64 156.66 286.653 157.073 287.467 157.9C288.293 158.713 288.707 159.726 288.707 160.94C288.707 162.153 288.293 163.173 287.467 164C286.653 164.813 285.64 165.22 284.427 165.22C283.213 165.22 282.193 164.813 281.367 164C280.553 163.173 280.147 162.153 280.147 160.94C280.147 159.726 280.553 158.713 281.367 157.9ZM281.967 163.44C282.633 164.12 283.453 164.46 284.427 164.46C285.4 164.46 286.213 164.12 286.867 163.44C287.533 162.76 287.867 161.926 287.867 160.94C287.867 159.953 287.533 159.12 286.867 158.44C286.213 157.76 285.4 157.42 284.427 157.42C283.453 157.42 282.633 157.76 281.967 158.44C281.313 159.12 280.987 159.953 280.987 160.94C280.987 161.926 281.313 162.76 281.967 163.44ZM295.725 165V156.84H296.525V160.44H301.125V156.84H301.925V165H301.125V161.2H296.525V165H295.725ZM312.107 161.02H305.127C305.074 162.02 305.374 162.846 306.027 163.5C306.681 164.14 307.461 164.46 308.367 164.46C309.007 164.46 309.574 164.293 310.067 163.96C310.561 163.613 310.941 163.16 311.207 162.6L311.887 163C311.581 163.586 311.134 164.106 310.547 164.56C309.961 165 309.214 165.22 308.307 165.22C307.067 165.22 306.087 164.82 305.367 164.02C304.647 163.206 304.287 162.186 304.287 160.96C304.287 159.613 304.674 158.56 305.447 157.8C306.234 157.04 307.167 156.66 308.247 156.66C309.367 156.66 310.301 157.066 311.047 157.88C311.794 158.693 312.147 159.74 312.107 161.02ZM305.187 160.26H311.267C311.161 159.433 310.827 158.753 310.267 158.22C309.721 157.686 309.047 157.42 308.247 157.42C307.434 157.42 306.747 157.693 306.187 158.24C305.627 158.773 305.294 159.446 305.187 160.26ZM319.943 163.54V169.78H319.143V156.84H319.943V158.26C320.73 157.193 321.796 156.66 323.143 156.66C324.343 156.66 325.303 157.06 326.023 157.86C326.743 158.646 327.103 159.646 327.103 160.86C327.103 162.1 326.736 163.14 326.003 163.98C325.283 164.806 324.316 165.22 323.103 165.22C322.49 165.22 321.936 165.1 321.443 164.86C320.95 164.606 320.61 164.38 320.423 164.18C320.236 163.966 320.076 163.753 319.943 163.54ZM320.743 163.44C321.303 164.12 322.083 164.46 323.083 164.46C324.083 164.46 324.863 164.12 325.423 163.44C325.983 162.76 326.263 161.9 326.263 160.86C326.263 159.78 325.956 158.94 325.343 158.34C324.73 157.726 323.983 157.42 323.103 157.42C322.236 157.42 321.483 157.72 320.843 158.32C320.216 158.92 319.903 159.753 319.903 160.82C319.903 161.873 320.183 162.746 320.743 163.44ZM336.756 161.02H329.776C329.722 162.02 330.022 162.846 330.676 163.5C331.329 164.14 332.109 164.46 333.016 164.46C333.656 164.46 334.222 164.293 334.716 163.96C335.209 163.613 335.589 163.16 335.856 162.6L336.536 163C336.229 163.586 335.782 164.106 335.196 164.56C334.609 165 333.862 165.22 332.956 165.22C331.716 165.22 330.736 164.82 330.016 164.02C329.296 163.206 328.936 162.186 328.936 160.96C328.936 159.613 329.322 158.56 330.096 157.8C330.882 157.04 331.816 156.66 332.896 156.66C334.016 156.66 334.949 157.066 335.696 157.88C336.442 158.693 336.796 159.74 336.756 161.02ZM329.836 160.26H335.916C335.809 159.433 335.476 158.753 334.916 158.22C334.369 157.686 333.696 157.42 332.896 157.42C332.082 157.42 331.396 157.693 330.836 158.24C330.276 158.773 329.942 159.446 329.836 160.26ZM338.164 165L340.084 156.34L343.344 163.7L346.604 156.34L348.524 165H347.684L346.364 158.62L343.344 165.5L340.324 158.62L339.004 165H338.164ZM351.152 157.9C351.978 157.073 352.998 156.66 354.212 156.66C355.425 156.66 356.438 157.073 357.252 157.9C358.078 158.713 358.492 159.726 358.492 160.94C358.492 162.153 358.078 163.173 357.252 164C356.438 164.813 355.425 165.22 354.212 165.22C352.998 165.22 351.978 164.813 351.152 164C350.338 163.173 349.932 162.153 349.932 160.94C349.932 159.726 350.338 158.713 351.152 157.9ZM351.752 163.44C352.418 164.12 353.238 164.46 354.212 164.46C355.185 164.46 355.998 164.12 356.652 163.44C357.318 162.76 357.652 161.926 357.652 160.94C357.652 159.953 357.318 159.12 356.652 158.44C355.998 157.76 355.185 157.42 354.212 157.42C353.238 157.42 352.418 157.76 351.752 158.44C351.098 159.12 350.772 159.953 350.772 160.94C350.772 161.926 351.098 162.76 351.752 163.44ZM360.842 165V156.84H361.642V160.44H366.242V156.84H367.042V165H366.242V161.2H361.642V165H360.842ZM371.484 165V157.6H368.644V156.84H375.124V157.6H372.284V165H371.484ZM377.321 169.78L379.321 165.14L375.441 156.84H376.361L379.781 164.1L382.761 156.84H383.681L378.241 169.78H377.321ZM385.276 156.84H387.936C388.696 156.84 389.276 157 389.676 157.32C390.156 157.706 390.396 158.226 390.396 158.88C390.396 159.626 390.096 160.193 389.496 160.58C389.869 160.633 390.203 160.786 390.496 161.04C390.963 161.453 391.196 162 391.196 162.68C391.196 163.44 390.923 164.026 390.376 164.44C389.896 164.813 389.229 165 388.376 165H385.276V156.84ZM386.076 160.4H387.936C388.429 160.4 388.816 160.286 389.096 160.06C389.429 159.793 389.596 159.433 389.596 158.98C389.596 158.54 389.429 158.186 389.096 157.92C388.829 157.706 388.443 157.6 387.936 157.6H386.076V160.4ZM386.076 164.24H388.376C388.989 164.24 389.456 164.12 389.776 163.88C390.163 163.586 390.356 163.18 390.356 162.66C390.356 162.18 390.176 161.8 389.816 161.52C389.496 161.28 389.016 161.16 388.376 161.16H386.076V164.24ZM400.197 158.26V156.84H400.997V165H400.197V163.54C399.464 164.66 398.404 165.22 397.017 165.22C395.911 165.22 394.971 164.826 394.197 164.04C393.424 163.253 393.037 162.213 393.037 160.92C393.037 159.653 393.404 158.626 394.137 157.84C394.871 157.053 395.831 156.66 397.017 156.66C398.377 156.66 399.437 157.193 400.197 158.26ZM397.057 157.42C396.191 157.42 395.444 157.733 394.817 158.36C394.191 158.973 393.877 159.806 393.877 160.86C393.877 161.833 394.164 162.68 394.737 163.4C395.311 164.106 396.091 164.46 397.077 164.46C398.051 164.46 398.817 164.113 399.377 163.42C399.951 162.713 400.237 161.86 400.237 160.86C400.237 159.753 399.911 158.906 399.257 158.32C398.604 157.72 397.871 157.42 397.057 157.42ZM409.59 156.84V165H408.79V157.6H405.03V162.32C405.03 163.213 404.87 163.873 404.55 164.3C404.19 164.793 403.67 165.04 402.99 165.04C402.91 165.04 402.776 165.026 402.59 165V164.24C402.723 164.266 402.823 164.28 402.89 164.28C403.343 164.28 403.696 164.1 403.95 163.74C404.136 163.446 404.23 162.973 404.23 162.32V156.84H409.59ZM412.463 156.84H413.263V163.38L419.063 156.38V165H418.263V158.5L412.463 165.5V156.84ZM421.976 164.94C421.843 164.793 421.776 164.613 421.776 164.4C421.776 164.186 421.843 164.013 421.976 163.88C422.123 163.733 422.303 163.66 422.516 163.66C422.729 163.66 422.903 163.733 423.036 163.88C423.183 164.013 423.256 164.186 423.256 164.4C423.256 164.613 423.183 164.793 423.036 164.94C422.903 165.073 422.729 165.14 422.516 165.14C422.303 165.14 422.123 165.073 421.976 164.94Z" fill="white"/>
<circle cx="81.5" cy="128.5" r="7.5" fill="#0066FF"/>
</svg>
