<svg width="386" height="200" viewBox="0 0 386 200" fill="none" xmlns="http://www.w3.org/2000/svg">
<path d="M380.946 149.434L355.417 193.652C354.007 196.095 350.886 196.931 348.443 195.52L251.165 139.357C248.722 137.947 247.886 134.825 249.296 132.382L274.825 88.1653C276.235 85.7223 279.356 84.886 281.799 86.2965L379.077 142.46C381.52 143.87 382.356 146.991 380.946 149.434Z" fill="#F4F8F7"/>
<path d="M378.491 149.859L354.558 191.312C353.235 193.603 350.247 194.351 347.881 192.985L253.643 138.576C251.276 137.21 250.43 134.248 251.753 131.958L275.686 90.5045C277.008 88.2141 279.996 87.4658 282.363 88.8322L376.601 143.24C378.967 144.607 379.813 147.569 378.491 149.859Z" fill="#6DA8FF"/>
<path d="M270.387 123.924C270.74 123.314 270.53 122.533 269.92 122.181C269.309 121.828 268.529 122.037 268.176 122.648C267.824 123.258 268.033 124.039 268.644 124.392C269.254 124.744 270.035 124.535 270.387 123.924Z" fill="#FFD9B5"/>
<path fill-rule="evenodd" clip-rule="evenodd" d="M273.72 87.5272C275.48 84.4784 279.389 83.4309 282.438 85.1911L379.716 141.354C382.765 143.115 383.812 147.024 382.052 150.073L356.523 194.29C354.764 197.336 350.854 198.386 347.805 196.626L250.527 140.463C247.478 138.702 246.432 134.791 248.191 131.744L254.573 120.69L267.338 98.5815L273.72 87.5272ZM268.664 101.39L257.669 120.434L250.402 133.021C249.346 134.849 249.975 137.196 251.804 138.252L349.081 194.415C350.91 195.471 353.257 194.842 354.312 193.013L379.841 148.796C380.897 146.968 380.268 144.621 378.439 143.565L281.162 87.402C279.333 86.3464 276.986 86.9753 275.931 88.8036L268.664 101.39Z" fill="black"/>
<path d="M282.551 130.947L277.445 139.791C276.034 142.234 272.913 143.07 270.47 141.66L261.627 136.554C259.184 135.143 258.347 132.022 259.758 129.579L264.864 120.736C266.274 118.293 269.395 117.457 271.838 118.867L280.682 123.973C283.125 125.383 283.961 128.504 282.551 130.947Z" fill="#2A2D2C"/>
<path d="M266.391 133.409C267.095 132.188 266.677 130.626 265.456 129.921C264.235 129.216 262.674 129.635 261.969 130.856C261.264 132.077 261.682 133.638 262.903 134.343C264.124 135.048 265.686 134.63 266.391 133.409Z" fill="#555756"/>
<path d="M275.234 138.514C275.939 137.293 275.521 135.732 274.3 135.027C273.079 134.322 271.518 134.74 270.813 135.961C270.108 137.182 270.526 138.744 271.747 139.449C272.968 140.154 274.529 139.735 275.234 138.514Z" fill="#555756"/>
<path d="M280.34 129.671C281.045 128.45 280.626 126.889 279.405 126.184C278.184 125.479 276.623 125.897 275.918 127.118C275.213 128.339 275.631 129.9 276.852 130.605C278.073 131.31 279.635 130.892 280.34 129.671Z" fill="#555756"/>
<path d="M269.675 122.605C270.046 122.819 270.173 123.294 269.959 123.666C269.745 124.037 269.27 124.164 268.898 123.95C268.527 123.735 268.4 123.26 268.614 122.889C268.829 122.518 269.303 122.39 269.675 122.605Z" fill="black" stroke="#555756"/>
<path d="M258.653 128.941C256.894 131.988 257.94 135.899 260.989 137.659L269.832 142.765C272.881 144.525 276.792 143.476 278.551 140.429L283.656 131.586C285.415 128.539 284.369 124.627 281.32 122.867L272.477 117.762C269.428 116.001 265.518 117.051 263.759 120.098L258.653 128.941ZM271.201 119.972L280.044 125.078C281.872 126.134 282.501 128.481 281.446 130.309L276.34 139.153C275.284 140.981 272.937 141.61 271.109 140.554L262.265 135.448C260.437 134.393 259.808 132.046 260.864 130.217L265.97 121.374C267.025 119.546 269.372 118.917 271.201 119.972Z" fill="black"/>
<path d="M249.793 23.9865C249.353 23.4316 248.77 22.9741 248.047 22.7115L231.189 16.5841C230.466 16.3215 229.725 16.2975 229.032 16.441C231.694 13.9186 234.513 9.31294 236.797 4.71726C237.388 3.54152 238.741 2.96991 239.981 3.42071L249.831 7.00086C251.072 7.45166 251.742 8.75857 251.44 10.0394C250.24 15.0289 249.372 20.3436 249.793 23.9865Z" fill="#6DA8FF"/>
<path d="M242.469 49.3123C241.742 51.3112 239.542 52.3383 237.543 51.6118L220.685 45.4844C218.686 44.7579 217.659 42.5578 218.385 40.5589L226.263 18.8837C226.727 17.6072 227.796 16.7281 229.028 16.4531L229.032 16.4411C229.725 16.2976 230.466 16.3215 231.189 16.5841L248.047 22.7115C248.77 22.9741 249.353 23.4316 249.792 23.9865L249.788 23.9986C250.555 25 250.811 26.3607 250.347 27.6371L248.158 33.658L242.469 49.3123Z" fill="#CEEDFF"/>
<path d="M218.161 41.6633C218.064 43.3184 219.047 44.8891 220.685 45.4843L237.543 51.6117C239.538 52.337 241.743 51.3075 242.469 49.3122L250.347 27.637C250.811 26.3606 250.555 25 249.788 23.9985L249.792 23.9865C249.577 23.7172 249.328 23.4633 249.038 23.2488C249.028 23.6133 248.945 23.9921 248.814 24.3533L247.063 29.17C242.971 40.4291 230.411 46.2929 219.152 42.2006C218.79 42.0693 218.451 41.8778 218.161 41.6633Z" fill="#E1F4FF"/>
<path d="M251.095 11.5501L236.091 6.09667C236.327 5.63688 236.562 5.17709 236.797 4.7173C237.388 3.54156 238.741 2.96995 239.981 3.42075L249.831 7.0009C251.072 7.4517 251.742 8.7586 251.44 10.0394C251.325 10.5429 251.198 11.0421 251.095 11.5501Z" fill="#DCEBFF"/>
<path d="M250.337 15.3638L234.201 9.49901C234.858 8.40207 235.493 7.25588 236.092 6.09656L251.096 11.5499C250.81 12.8231 250.549 14.1049 250.337 15.3638Z" fill="#AFCFFF"/>
<path d="M249.806 19.2609L232.081 12.8183C232.793 11.7958 233.512 10.6803 234.2 9.49905L250.336 15.3638C250.106 16.7114 249.928 18.0239 249.806 19.2609Z" fill="#8BB8FB"/>
<path d="M239.699 51.7548C239.007 51.8983 238.266 51.8743 237.543 51.6117L220.685 45.4843C219.962 45.2217 219.378 44.7643 218.939 44.2094C219.36 47.8523 218.564 53.1932 217.364 58.1828C217.062 59.4635 217.732 60.7704 218.973 61.2212L228.823 64.8014C230.063 65.2522 231.416 64.6806 232.007 63.5048C234.291 58.9092 237.038 54.2773 239.699 51.7548Z" fill="#6DA8FF"/>
<path d="M232.713 62.1255L217.709 56.6721C217.594 57.1757 217.479 57.6792 217.364 58.1828C217.062 59.4636 217.733 60.7705 218.973 61.2213L228.823 64.8014C230.063 65.2522 231.416 64.6806 232.007 63.5049C232.242 63.0451 232.466 62.5809 232.713 62.1255Z" fill="#DCEBFF"/>
<path d="M234.58 58.7143L218.444 52.8495C218.244 54.1127 217.995 55.399 217.709 56.6721L232.713 62.1255C233.312 60.9662 233.935 59.8156 234.58 58.7143Z" fill="#AFCFFF"/>
<path d="M236.676 55.3862L218.95 48.9437C218.84 50.1851 218.675 51.502 218.444 52.8495L234.58 58.7143C235.268 57.5331 235.975 56.4131 236.676 55.3862Z" fill="#8BB8FB"/>
<path d="M249.188 30L250.393 30.4377C251.057 30.6793 251.401 31.4148 251.159 32.0795L249.846 35.6921C249.605 36.3568 248.869 36.7002 248.204 36.4586L247 36.0209L249.188 30Z" fill="#6DA8FF"/>
<path d="M230.818 18.7766L231.537 20.2019C231.774 20.6711 232.194 21.0391 232.702 21.2238L243.907 25.2963C244.416 25.4814 244.973 25.4684 245.456 25.2609L246.922 24.6295C248.004 24.1641 247.905 22.6598 246.765 22.2453L232.471 17.0501C231.331 16.6357 230.289 17.7251 230.818 18.7766Z" fill="#E1F4FF"/>
<path d="M220.466 46.0865L237.325 52.2139C239.649 53.0586 242.226 51.8552 243.071 49.5311C243.192 49.1988 243.02 48.831 242.688 48.7102C242.356 48.5894 241.988 48.7611 241.867 49.0935C241.264 50.7528 239.423 51.6133 237.762 51.0097L220.904 44.8823C219.243 44.2788 218.384 42.4371 218.988 40.7777L226.866 19.1025C227.24 18.0729 228.101 17.317 229.167 17.0774C229.198 17.0697 229.23 17.0608 229.26 17.0499C229.852 16.9434 230.427 16.9888 230.97 17.1862L247.829 23.3136C248.371 23.5106 248.841 23.8438 249.226 24.3053C249.242 24.3345 249.26 24.3613 249.281 24.3882C249.945 25.2564 250.119 26.3887 249.745 27.4182L247.557 33.4391C247.436 33.7715 247.608 34.1393 247.94 34.2601C248.272 34.3809 248.64 34.2092 248.761 33.8768L249.855 30.8664L250.457 31.0852C250.788 31.2056 250.961 31.5738 250.84 31.9061L249.527 35.5187C249.407 35.851 249.038 36.0223 248.706 35.9019L247.502 35.4642C247.17 35.3434 246.802 35.5151 246.681 35.8475C246.561 36.1799 246.732 36.5476 247.065 36.6684L248.269 37.1061C249.265 37.468 250.37 36.9522 250.732 35.9563L252.045 32.3438C252.407 31.3479 251.891 30.243 250.895 29.881L250.293 29.6622L250.949 27.8559C251.46 26.4506 251.242 24.9058 250.368 23.702C250.348 23.6634 250.324 23.6247 250.295 23.5899C249.757 22.9074 249.054 22.3957 248.266 22.1094L231.408 15.982C230.62 15.6958 229.753 15.6368 228.902 15.8142C228.86 15.8236 228.819 15.8359 228.78 15.8543C228.774 15.8561 228.768 15.8596 228.762 15.8615L228.76 15.8623C227.324 16.2249 226.171 17.2632 225.662 18.6648L217.783 40.34C216.939 42.6641 218.142 45.2418 220.466 46.0865Z" fill="black"/>
<path d="M230.891 14.3995C230.944 14.4406 231.002 14.4714 231.061 14.4928C231.318 14.586 231.613 14.508 231.789 14.2801C231.963 14.0529 232.132 13.8147 232.302 13.5806L246.733 18.8256C247.065 18.9464 247.433 18.7747 247.554 18.4424C247.675 18.11 247.503 17.7422 247.171 17.6214L233.066 12.495C233.56 11.7665 234.034 11.0254 234.483 10.2836L246.842 14.7754C247.174 14.8962 247.542 14.7245 247.663 14.3921C247.784 14.0598 247.612 13.692 247.279 13.5712L235.147 9.16168C235.598 8.37817 236.019 7.61492 236.402 6.89119L248.155 11.1629C248.487 11.2837 248.855 11.112 248.976 10.7796C249.097 10.4473 248.925 10.0795 248.593 9.95869L236.996 5.74391C237.125 5.49201 237.253 5.23891 237.369 5.00409C237.818 4.11232 238.847 3.69007 239.762 4.0227L249.612 7.60285C250.529 7.93592 251.045 8.91971 250.817 9.88795C249.826 13.9773 249.224 17.6669 249.077 20.5597C249.058 20.9126 249.333 21.2171 249.683 21.2326C250.038 21.251 250.338 20.9782 250.356 20.6249C250.499 17.8114 251.089 14.2033 252.062 10.1865C252.442 8.5807 251.577 6.95364 250.05 6.39867L240.2 2.81852C238.673 2.26355 236.965 2.95574 236.223 4.43221C234.975 6.95457 233.014 10.5744 230.773 13.5006C230.557 13.7821 230.61 14.1844 230.891 14.3995Z" fill="black"/>
<path d="M234.424 54.5678C234.545 54.2354 234.373 53.8677 234.041 53.7469L219.611 48.5022C219.631 48.2122 219.654 47.9222 219.667 47.6364C219.682 47.2833 219.41 46.9854 219.055 46.9682C218.701 46.9526 218.403 47.2275 218.388 47.5805C218.227 51.2641 217.406 55.298 216.743 58.036C216.365 59.6405 217.23 61.268 218.756 61.8226L228.606 65.4027C230.133 65.9577 231.841 65.2655 232.584 63.7878C234.414 60.0867 236.28 56.9421 237.975 54.6928C238.188 54.4103 238.133 54.01 237.85 53.7953C237.569 53.5815 237.166 53.6379 236.953 53.922C235.208 56.2324 233.301 59.4476 231.438 63.216C230.988 64.1077 229.961 64.5304 229.044 64.1973L219.194 60.6172C218.278 60.2841 217.761 59.3003 217.989 58.3321C218.051 58.0764 218.115 57.7984 218.179 57.5217L229.774 61.736C230.106 61.8568 230.474 61.6851 230.595 61.3528C230.716 61.0204 230.544 60.6527 230.212 60.5319L218.459 56.2602C218.63 55.4594 218.798 54.6043 218.955 53.714L231.087 58.1235C231.419 58.2443 231.787 58.0726 231.908 57.7402C232.029 57.4079 231.857 57.0401 231.525 56.9193L219.166 52.4275C219.298 51.5701 219.41 50.6977 219.5 49.8222L233.604 54.9486C233.936 55.0718 234.303 54.9001 234.424 54.5678Z" fill="black"/>
<path d="M244.931 40.6641L242.742 46.685C242.621 47.0173 242.793 47.3851 243.125 47.5059C243.458 47.6267 243.826 47.455 243.946 47.1227L246.135 41.1018C246.256 40.7694 246.084 40.4016 245.752 40.2808C245.419 40.1601 245.051 40.3317 244.931 40.6641Z" fill="black"/>
<path d="M246.191 39.08C246.523 39.2008 246.891 39.0293 247.012 38.6967C247.133 38.3642 246.961 37.9967 246.628 37.8758C246.296 37.755 245.928 37.9265 245.808 38.2591C245.687 38.5916 245.858 38.9591 246.191 39.08Z" fill="black"/>
<rect y="117" width="203" height="49" rx="24.5" fill="#0066FF"/>
<path d="M37.2779 147C37.1712 147 37.0859 146.968 37.0219 146.904C36.9579 146.84 36.9259 146.755 36.9259 146.648V136.168C36.9259 136.061 36.9579 135.976 37.0219 135.912C37.0859 135.837 37.1712 135.8 37.2779 135.8H37.5659C37.6832 135.8 37.7739 135.832 37.8379 135.896C37.9019 135.96 37.9339 136.051 37.9339 136.168V140.84H44.1099V136.168C44.1099 136.061 44.1419 135.976 44.2059 135.912C44.2699 135.837 44.3552 135.8 44.4619 135.8H44.7499C44.8672 135.8 44.9579 135.832 45.0219 135.896C45.0859 135.96 45.1179 136.051 45.1179 136.168V146.648C45.1179 146.755 45.0805 146.84 45.0059 146.904C44.9419 146.968 44.8565 147 44.7499 147H44.4619C44.3552 147 44.2699 146.968 44.2059 146.904C44.1419 146.84 44.1099 146.755 44.1099 146.648V141.8H37.9339V146.648C37.9339 146.755 37.8965 146.84 37.8219 146.904C37.7579 146.968 37.6725 147 37.5659 147H37.2779ZM50.161 147.16C49.649 147.16 49.1743 147.053 48.737 146.84C48.2997 146.627 47.9477 146.339 47.681 145.976C47.425 145.613 47.297 145.213 47.297 144.776C47.297 144.072 47.5797 143.496 48.145 143.048C48.721 142.6 49.4943 142.312 50.465 142.184L52.993 141.832V141.272C52.993 140.685 52.8117 140.237 52.449 139.928C52.097 139.608 51.553 139.448 50.817 139.448C50.273 139.448 49.825 139.555 49.473 139.768C49.1317 139.981 48.913 140.237 48.817 140.536C48.7743 140.664 48.721 140.755 48.657 140.808C48.6037 140.851 48.529 140.872 48.433 140.872H48.209C48.113 140.872 48.0277 140.84 47.953 140.776C47.889 140.701 47.857 140.616 47.857 140.52C47.857 140.285 47.9637 140.013 48.177 139.704C48.3903 139.384 48.721 139.107 49.169 138.872C49.617 138.637 50.1663 138.52 50.817 138.52C51.9583 138.52 52.769 138.792 53.249 139.336C53.729 139.88 53.969 140.541 53.969 141.32V146.648C53.969 146.755 53.937 146.84 53.873 146.904C53.809 146.968 53.7237 147 53.617 147H53.345C53.2383 147 53.153 146.968 53.089 146.904C53.025 146.84 52.993 146.755 52.993 146.648V145.896C52.7583 146.248 52.4117 146.547 51.953 146.792C51.505 147.037 50.9077 147.16 50.161 147.16ZM50.321 146.232C51.0997 146.232 51.7397 145.976 52.241 145.464C52.7423 144.952 52.993 144.216 52.993 143.256V142.712L50.929 143C50.0543 143.117 49.393 143.32 48.945 143.608C48.497 143.896 48.273 144.259 48.273 144.696C48.273 145.187 48.4757 145.565 48.881 145.832C49.297 146.099 49.777 146.232 50.321 146.232ZM59.6511 147.16C58.5418 147.16 57.6831 146.84 57.0751 146.2C56.4671 145.549 56.1471 144.643 56.1151 143.48L56.0991 142.84L56.1151 142.2C56.1471 141.037 56.4671 140.136 57.0751 139.496C57.6831 138.845 58.5418 138.52 59.6511 138.52C60.3551 138.52 60.9525 138.648 61.4431 138.904C61.9445 139.149 62.3178 139.469 62.5631 139.864C62.8085 140.248 62.9418 140.648 62.9631 141.064C62.9738 141.16 62.9418 141.245 62.8671 141.32C62.7925 141.384 62.7071 141.416 62.6111 141.416H62.3871C62.2805 141.416 62.2005 141.395 62.1471 141.352C62.1045 141.299 62.0565 141.208 62.0031 141.08C61.7898 140.493 61.4911 140.077 61.1071 139.832C60.7231 139.576 60.2378 139.448 59.6511 139.448C58.8831 139.448 58.2698 139.683 57.8111 140.152C57.3631 140.611 57.1231 141.32 57.0911 142.28L57.0751 142.84L57.0911 143.4C57.1231 144.36 57.3631 145.075 57.8111 145.544C58.2698 146.003 58.8831 146.232 59.6511 146.232C60.2378 146.232 60.7231 146.109 61.1071 145.864C61.4911 145.608 61.7898 145.187 62.0031 144.6C62.0565 144.472 62.1045 144.387 62.1471 144.344C62.2005 144.291 62.2805 144.264 62.3871 144.264H62.6111C62.7071 144.264 62.7925 144.301 62.8671 144.376C62.9418 144.44 62.9738 144.52 62.9631 144.616C62.9418 145.032 62.8085 145.437 62.5631 145.832C62.3178 146.216 61.9445 146.536 61.4431 146.792C60.9525 147.037 60.3551 147.16 59.6511 147.16ZM71.7463 147C71.6396 147 71.5543 146.968 71.4903 146.904C71.4263 146.84 71.3943 146.755 71.3943 146.648V139.608H68.4663C68.3596 139.608 68.2743 139.576 68.2103 139.512C68.1463 139.448 68.1143 139.363 68.1143 139.256V139.032C68.1143 138.925 68.1463 138.84 68.2103 138.776C68.2743 138.712 68.3596 138.68 68.4663 138.68H75.2983C75.4049 138.68 75.4903 138.712 75.5543 138.776C75.6183 138.84 75.6503 138.925 75.6503 139.032V139.256C75.6503 139.363 75.6183 139.448 75.5543 139.512C75.4903 139.576 75.4049 139.608 75.2983 139.608H72.3703V146.648C72.3703 146.755 72.3383 146.84 72.2743 146.904C72.2103 146.968 72.1249 147 72.0182 147H71.7463ZM80.2434 147.16C79.23 147.16 78.414 146.829 77.7954 146.168C77.1767 145.496 76.8247 144.6 76.7394 143.48L76.7234 142.84L76.7394 142.2C76.8247 141.091 77.1714 140.2 77.7794 139.528C78.398 138.856 79.2194 138.52 80.2434 138.52C81.3527 138.52 82.2167 138.888 82.8354 139.624C83.4647 140.36 83.7794 141.368 83.7794 142.648V142.888C83.7794 142.995 83.742 143.08 83.6674 143.144C83.6034 143.208 83.518 143.24 83.4114 143.24H77.7154V143.4C77.7367 143.901 77.8487 144.371 78.0514 144.808C78.2647 145.235 78.558 145.581 78.9314 145.848C79.3047 146.104 79.742 146.232 80.2434 146.232C80.83 146.232 81.3047 146.12 81.6674 145.896C82.0407 145.661 82.3074 145.427 82.4674 145.192C82.5634 145.064 82.6327 144.984 82.6754 144.952C82.7287 144.92 82.8194 144.904 82.9474 144.904H83.2034C83.2994 144.904 83.3794 144.931 83.4434 144.984C83.5074 145.037 83.5394 145.107 83.5394 145.192C83.5394 145.416 83.3954 145.688 83.1074 146.008C82.83 146.317 82.4407 146.589 81.9394 146.824C81.438 147.048 80.8727 147.16 80.2434 147.16ZM82.8034 142.344V142.28C82.8034 141.459 82.5687 140.781 82.0994 140.248C81.6407 139.715 81.022 139.448 80.2434 139.448C79.4647 139.448 78.846 139.715 78.3874 140.248C77.9394 140.781 77.7154 141.459 77.7154 142.28V142.344H82.8034ZM96.0978 146.568C96.1511 146.632 96.1778 146.701 96.1778 146.776C96.1778 146.925 96.0764 147 95.8738 147H95.4578C95.2978 147 95.1591 146.925 95.0418 146.776L92.5138 143.208H91.0898V146.648C91.0898 146.755 91.0578 146.84 90.9938 146.904C90.9298 146.968 90.8444 147 90.7378 147H90.4658C90.3591 147 90.2738 146.968 90.2098 146.904C90.1458 146.84 90.1138 146.755 90.1138 146.648V143.208H88.6898L86.1298 146.776C86.0338 146.925 85.8951 147 85.7138 147H85.2978C85.0951 147 84.9938 146.925 84.9938 146.776C84.9938 146.723 85.0204 146.653 85.0738 146.568L87.8738 142.632L85.3778 139.096C85.3351 139.021 85.3138 138.957 85.3138 138.904C85.3138 138.755 85.4151 138.68 85.6178 138.68H85.9378C86.0978 138.68 86.2364 138.76 86.3538 138.92L88.7057 142.28H90.1138V139.032C90.1138 138.925 90.1458 138.84 90.2098 138.776C90.2738 138.712 90.3591 138.68 90.4658 138.68H90.7378C90.8444 138.68 90.9298 138.712 90.9938 138.776C91.0578 138.84 91.0898 138.925 91.0898 139.032V142.28H92.4338L94.8178 138.92C94.9351 138.76 95.0738 138.68 95.2338 138.68H95.5538C95.6498 138.68 95.7244 138.701 95.7778 138.744C95.8418 138.776 95.8738 138.829 95.8738 138.904C95.8738 138.947 95.8471 139.011 95.7938 139.096L93.2978 142.632L96.0978 146.568ZM97.7301 148.2C97.6448 148.2 97.5808 148.168 97.5381 148.104C97.5061 148.061 97.4901 148.013 97.4901 147.96C97.4901 147.928 97.4955 147.896 97.5061 147.864L97.8101 145.944C97.8421 145.656 97.9755 145.512 98.2101 145.512H98.9301C99.0048 145.512 99.0635 145.539 99.1061 145.592C99.1488 145.645 99.1701 145.704 99.1701 145.768C99.1701 145.864 99.1488 145.96 99.1061 146.056L98.4181 147.864C98.3648 147.981 98.3061 148.067 98.2421 148.12C98.1888 148.173 98.1088 148.2 98.0021 148.2H97.7301ZM106.148 147C106.041 147 105.956 146.968 105.892 146.904C105.828 146.84 105.796 146.755 105.796 146.648V139.032C105.796 138.925 105.828 138.84 105.892 138.776C105.956 138.712 106.041 138.68 106.148 138.68H106.42C106.527 138.68 106.612 138.712 106.676 138.776C106.74 138.84 106.772 138.925 106.772 139.032V142.28H111.764V139.032C111.764 138.925 111.796 138.84 111.86 138.776C111.924 138.712 112.009 138.68 112.116 138.68H112.388C112.495 138.68 112.58 138.712 112.644 138.776C112.708 138.84 112.74 138.925 112.74 139.032V146.648C112.74 146.755 112.708 146.84 112.644 146.904C112.58 146.968 112.495 147 112.388 147H112.116C112.009 147 111.924 146.968 111.86 146.904C111.796 146.84 111.764 146.755 111.764 146.648V143.208H106.772V146.648C106.772 146.755 106.74 146.84 106.676 146.904C106.612 146.968 106.527 147 106.42 147H106.148ZM117.567 147.16C117.055 147.16 116.581 147.053 116.143 146.84C115.706 146.627 115.354 146.339 115.087 145.976C114.831 145.613 114.703 145.213 114.703 144.776C114.703 144.072 114.986 143.496 115.551 143.048C116.127 142.6 116.901 142.312 117.871 142.184L120.399 141.832V141.272C120.399 140.685 120.218 140.237 119.855 139.928C119.503 139.608 118.959 139.448 118.223 139.448C117.679 139.448 117.231 139.555 116.879 139.768C116.538 139.981 116.319 140.237 116.223 140.536C116.181 140.664 116.127 140.755 116.063 140.808C116.01 140.851 115.935 140.872 115.839 140.872H115.615C115.519 140.872 115.434 140.84 115.359 140.776C115.295 140.701 115.263 140.616 115.263 140.52C115.263 140.285 115.37 140.013 115.583 139.704C115.797 139.384 116.127 139.107 116.575 138.872C117.023 138.637 117.573 138.52 118.223 138.52C119.365 138.52 120.175 138.792 120.655 139.336C121.135 139.88 121.375 140.541 121.375 141.32V146.648C121.375 146.755 121.343 146.84 121.279 146.904C121.215 146.968 121.13 147 121.023 147H120.751C120.645 147 120.559 146.968 120.495 146.904C120.431 146.84 120.399 146.755 120.399 146.648V145.896C120.165 146.248 119.818 146.547 119.359 146.792C118.911 147.037 118.314 147.16 117.567 147.16ZM117.727 146.232C118.506 146.232 119.146 145.976 119.647 145.464C120.149 144.952 120.399 144.216 120.399 143.256V142.712L118.335 143C117.461 143.117 116.799 143.32 116.351 143.608C115.903 143.896 115.679 144.259 115.679 144.696C115.679 145.187 115.882 145.565 116.287 145.832C116.703 146.099 117.183 146.232 117.727 146.232ZM127.057 147.16C125.948 147.16 125.089 146.84 124.481 146.2C123.873 145.549 123.553 144.643 123.521 143.48L123.505 142.84L123.521 142.2C123.553 141.037 123.873 140.136 124.481 139.496C125.089 138.845 125.948 138.52 127.057 138.52C127.761 138.52 128.359 138.648 128.849 138.904C129.351 139.149 129.724 139.469 129.969 139.864C130.215 140.248 130.348 140.648 130.369 141.064C130.38 141.16 130.348 141.245 130.273 141.32C130.199 141.384 130.113 141.416 130.017 141.416H129.793C129.687 141.416 129.607 141.395 129.553 141.352C129.511 141.299 129.463 141.208 129.409 141.08C129.196 140.493 128.897 140.077 128.513 139.832C128.129 139.576 127.644 139.448 127.057 139.448C126.289 139.448 125.676 139.683 125.217 140.152C124.769 140.611 124.529 141.32 124.497 142.28L124.481 142.84L124.497 143.4C124.529 144.36 124.769 145.075 125.217 145.544C125.676 146.003 126.289 146.232 127.057 146.232C127.644 146.232 128.129 146.109 128.513 145.864C128.897 145.608 129.196 145.187 129.409 144.6C129.463 144.472 129.511 144.387 129.553 144.344C129.607 144.291 129.687 144.264 129.793 144.264H130.017C130.113 144.264 130.199 144.301 130.273 144.376C130.348 144.44 130.38 144.52 130.369 144.616C130.348 145.032 130.215 145.437 129.969 145.832C129.724 146.216 129.351 146.536 128.849 146.792C128.359 147.037 127.761 147.16 127.057 147.16ZM139.153 147C139.046 147 138.961 146.968 138.897 146.904C138.833 146.84 138.801 146.755 138.801 146.648V139.608H135.873C135.766 139.608 135.681 139.576 135.617 139.512C135.553 139.448 135.521 139.363 135.521 139.256V139.032C135.521 138.925 135.553 138.84 135.617 138.776C135.681 138.712 135.766 138.68 135.873 138.68H142.705C142.811 138.68 142.897 138.712 142.961 138.776C143.025 138.84 143.057 138.925 143.057 139.032V139.256C143.057 139.363 143.025 139.448 142.961 139.512C142.897 139.576 142.811 139.608 142.705 139.608H139.777V146.648C139.777 146.755 139.745 146.84 139.681 146.904C139.617 146.968 139.531 147 139.424 147H139.153ZM147.65 147.16C146.636 147.16 145.82 146.829 145.202 146.168C144.583 145.496 144.231 144.6 144.146 143.48L144.13 142.84L144.146 142.2C144.231 141.091 144.578 140.2 145.186 139.528C145.804 138.856 146.626 138.52 147.65 138.52C148.759 138.52 149.623 138.888 150.242 139.624C150.871 140.36 151.186 141.368 151.186 142.648V142.888C151.186 142.995 151.148 143.08 151.074 143.144C151.01 143.208 150.924 143.24 150.818 143.24H145.122V143.4C145.143 143.901 145.255 144.371 145.458 144.808C145.671 145.235 145.964 145.581 146.338 145.848C146.711 146.104 147.148 146.232 147.65 146.232C148.236 146.232 148.711 146.12 149.074 145.896C149.447 145.661 149.714 145.427 149.874 145.192C149.97 145.064 150.039 144.984 150.082 144.952C150.135 144.92 150.226 144.904 150.354 144.904H150.61C150.706 144.904 150.786 144.931 150.85 144.984C150.914 145.037 150.946 145.107 150.946 145.192C150.946 145.416 150.802 145.688 150.514 146.008C150.236 146.317 149.847 146.589 149.346 146.824C148.844 147.048 148.279 147.16 147.65 147.16ZM150.21 142.344V142.28C150.21 141.459 149.975 140.781 149.506 140.248C149.047 139.715 148.428 139.448 147.65 139.448C146.871 139.448 146.252 139.715 145.794 140.248C145.346 140.781 145.122 141.459 145.122 142.28V142.344H150.21ZM163.504 146.568C163.557 146.632 163.584 146.701 163.584 146.776C163.584 146.925 163.483 147 163.28 147H162.864C162.704 147 162.565 146.925 162.448 146.776L159.92 143.208H158.496V146.648C158.496 146.755 158.464 146.84 158.4 146.904C158.336 146.968 158.251 147 158.144 147H157.872C157.765 147 157.68 146.968 157.616 146.904C157.552 146.84 157.52 146.755 157.52 146.648V143.208H156.096L153.536 146.776C153.44 146.925 153.301 147 153.12 147H152.704C152.501 147 152.4 146.925 152.4 146.776C152.4 146.723 152.427 146.653 152.48 146.568L155.28 142.632L152.784 139.096C152.741 139.021 152.72 138.957 152.72 138.904C152.72 138.755 152.821 138.68 153.024 138.68H153.344C153.504 138.68 153.643 138.76 153.76 138.92L156.112 142.28H157.52V139.032C157.52 138.925 157.552 138.84 157.616 138.776C157.68 138.712 157.765 138.68 157.872 138.68H158.144C158.251 138.68 158.336 138.712 158.4 138.776C158.464 138.84 158.496 138.925 158.496 139.032V142.28H159.84L162.224 138.92C162.341 138.76 162.48 138.68 162.64 138.68H162.96C163.056 138.68 163.131 138.701 163.184 138.744C163.248 138.776 163.28 138.829 163.28 138.904C163.28 138.947 163.253 139.011 163.2 139.096L160.704 142.632L163.504 146.568ZM165.648 144.712C165.542 144.712 165.456 144.68 165.392 144.616C165.328 144.552 165.296 144.467 165.296 144.36V136.152C165.296 136.045 165.328 135.96 165.392 135.896C165.456 135.832 165.542 135.8 165.648 135.8H165.92C166.027 135.8 166.112 135.832 166.176 135.896C166.24 135.96 166.272 136.045 166.272 136.152V144.36C166.272 144.467 166.24 144.552 166.176 144.616C166.112 144.68 166.027 144.712 165.92 144.712H165.648ZM165.472 147C165.366 147 165.28 146.968 165.216 146.904C165.152 146.84 165.12 146.755 165.12 146.648V146.04C165.12 145.933 165.152 145.848 165.216 145.784C165.28 145.709 165.366 145.672 165.472 145.672H166.08C166.187 145.672 166.272 145.709 166.336 145.784C166.411 145.848 166.448 145.933 166.448 146.04V146.648C166.448 146.755 166.411 146.84 166.336 146.904C166.272 146.968 166.187 147 166.08 147H165.472Z" fill="white"/>
<circle cx="210.5" cy="109.5" r="7.5" fill="#0066FF"/>
</svg>
