<svg width="272" height="134" viewBox="0 0 272 134" fill="none" xmlns="http://www.w3.org/2000/svg">
<path d="M205.271 23.5777L219.31 2.93189C220.086 1.79121 221.638 1.49555 222.778 2.27119L268.199 33.1564C269.34 33.9321 269.635 35.4842 268.86 36.6249L254.821 57.2706C254.045 58.4113 252.493 58.707 251.353 57.9313L205.932 27.0461C204.791 26.2705 204.496 24.7183 205.271 23.5777Z" fill="#ECF8FF"/>
<path d="M206.303 24.2796L220.342 3.6338C220.73 3.06398 221.507 2.91598 222.076 3.30345L267.497 34.1887C268.067 34.5762 268.215 35.3531 267.827 35.9229L253.789 56.5687C253.401 57.1385 252.624 57.2865 252.054 56.899L206.634 26.0138C206.064 25.6263 205.916 24.8494 206.303 24.2796Z" fill="#E1F4FF"/>
<path d="M252.054 56.8991L206.634 26.0138C206.066 25.6278 205.917 24.8474 206.303 24.2796L220.342 3.63383C220.728 3.06607 221.509 2.91741 222.076 3.30348L252.054 56.8991Z" fill="#E3EEEC"/>
<path d="M256.948 47.4824L260.54 42.2001C261.145 41.3113 262.25 40.9094 263.284 41.2021L265.351 41.7861L258.331 52.109L257.028 50.4019C256.376 49.5476 256.344 48.3712 256.948 47.4824Z" fill="#2A2D2C"/>
<path d="M252.054 56.8991L206.634 26.0138C206.066 25.6278 205.917 24.8474 206.303 24.2796L220.342 3.63383C220.728 3.06607 221.509 2.91741 222.076 3.30348L252.054 56.8991Z" fill="#CEEDFF"/>
<path d="M211.362 20.171L218.381 9.84814C218.575 9.56323 218.964 9.48923 219.249 9.68297C219.533 9.8767 219.607 10.2652 219.414 10.5501L212.394 20.873C212.201 21.1579 211.812 21.2319 211.527 21.0381C211.242 20.8444 211.168 20.4559 211.362 20.171Z" fill="#8CB5AD"/>
<path d="M218.794 2.58081L204.755 23.2266C203.788 24.6491 204.159 26.5949 205.581 27.5621L251.002 58.4474C252.424 59.4147 254.37 59.044 255.337 57.6215L258.847 52.4601L265.866 42.1372L269.376 36.9757C270.343 35.5532 269.973 33.6074 268.55 32.6402L223.129 1.75494C221.707 0.787665 219.761 1.15832 218.794 2.58081ZM258.302 51.0417L257.523 50.0218C257.034 49.381 257.01 48.5013 257.464 47.8344L261.055 42.5522C261.509 41.8854 262.336 41.5841 263.113 41.8035L264.347 42.1517L258.302 51.0417ZM267.848 33.6725C268.702 34.253 268.924 35.4201 268.344 36.2738L265.087 41.0636L263.453 40.602C262.158 40.2359 260.78 40.7364 260.023 41.8503L256.431 47.1325C255.675 48.2453 255.715 49.7113 256.531 50.7797L257.562 52.1298L254.305 56.9196C253.724 57.7733 252.557 57.9956 251.704 57.4151L206.283 26.5299C205.429 25.9494 205.207 24.7822 205.787 23.9285L219.826 3.28275C220.407 2.42905 221.574 2.20672 222.428 2.78722L267.848 33.6725Z" fill="black"/>
<path d="M218.381 9.84814L211.362 20.171C211.168 20.4559 211.242 20.8444 211.527 21.0381C211.812 21.2319 212.201 21.1579 212.394 20.873L219.414 10.5501C219.607 10.2652 219.533 9.8767 219.249 9.68297C218.964 9.48923 218.575 9.56323 218.381 9.84814Z" fill="black"/>
<rect y="85" width="234" height="49" rx="24.5" fill="#0066FF"/>
<path d="M36.9888 115C36.8821 115 36.7968 114.968 36.7328 114.904C36.6688 114.84 36.6368 114.755 36.6368 114.648V104.168C36.6368 104.061 36.6688 103.976 36.7328 103.912C36.7968 103.837 36.8821 103.8 36.9888 103.8H41.1648C42.2208 103.8 43.0208 104.072 43.5648 104.616C44.1088 105.16 44.3808 105.843 44.3808 106.664C44.3808 107.293 44.2421 107.811 43.9648 108.216C43.6875 108.621 43.3568 108.915 42.9728 109.096C43.4315 109.331 43.8155 109.688 44.1248 110.168C44.4448 110.648 44.6048 111.203 44.6048 111.832C44.6048 112.387 44.4715 112.909 44.2048 113.4C43.9488 113.88 43.5701 114.269 43.0688 114.568C42.5675 114.856 41.9701 115 41.2768 115H36.9888ZM40.9568 108.664C41.7461 108.664 42.3435 108.493 42.7488 108.152C43.1648 107.8 43.3728 107.304 43.3728 106.664C43.3728 106.035 43.1648 105.56 42.7488 105.24C42.3435 104.92 41.7461 104.76 40.9568 104.76H37.6448V108.664H40.9568ZM41.1168 114.04C41.8955 114.04 42.5035 113.837 42.9408 113.432C43.3781 113.016 43.5968 112.483 43.5968 111.832C43.5968 111.171 43.3781 110.637 42.9408 110.232C42.5035 109.827 41.8955 109.624 41.1168 109.624H37.6448V114.04H41.1168ZM57.0899 114.568C57.1433 114.632 57.1699 114.701 57.1699 114.776C57.1699 114.925 57.0686 115 56.8659 115H56.4499C56.2899 115 56.1513 114.925 56.0339 114.776L53.5059 111.208H52.0819V114.648C52.0819 114.755 52.0499 114.84 51.9859 114.904C51.9219 114.968 51.8366 115 51.7299 115H51.4579C51.3513 115 51.2659 114.968 51.2019 114.904C51.1379 114.84 51.1059 114.755 51.1059 114.648V111.208H49.6819L47.1219 114.776C47.0259 114.925 46.8873 115 46.7059 115H46.2899C46.0873 115 45.9859 114.925 45.9859 114.776C45.9859 114.723 46.0126 114.653 46.0659 114.568L48.8659 110.632L46.3699 107.096C46.3273 107.021 46.3059 106.957 46.3059 106.904C46.3059 106.755 46.4073 106.68 46.6099 106.68H46.9299C47.0899 106.68 47.2286 106.76 47.3459 106.92L49.6979 110.28H51.1059V107.032C51.1059 106.925 51.1379 106.84 51.2019 106.776C51.2659 106.712 51.3513 106.68 51.4579 106.68H51.7299C51.8366 106.68 51.9219 106.712 51.9859 106.776C52.0499 106.84 52.0819 106.925 52.0819 107.032V110.28H53.4259L55.8099 106.92C55.9273 106.76 56.0659 106.68 56.2259 106.68H56.5459C56.6419 106.68 56.7166 106.701 56.7699 106.744C56.8339 106.776 56.8659 106.829 56.8659 106.904C56.8659 106.947 56.8393 107.011 56.7859 107.096L54.2899 110.632L57.0899 114.568ZM65.2183 106.68C65.3036 106.68 65.3783 106.712 65.4423 106.776C65.5063 106.84 65.5383 106.915 65.5383 107C65.5383 107.053 65.5063 107.16 65.4423 107.32L62.4023 114.456L62.1783 115C61.9223 115.629 61.6876 116.141 61.4743 116.536C61.2716 116.941 61.0103 117.293 60.6903 117.592C60.381 117.891 60.0183 118.04 59.6023 118.04H59.0583C58.9516 118.04 58.8663 118.008 58.8023 117.944C58.7383 117.88 58.7063 117.795 58.7063 117.688V117.464C58.7063 117.357 58.7383 117.272 58.8023 117.208C58.8663 117.144 58.9516 117.112 59.0583 117.112H59.4263C59.6823 117.112 59.885 117.059 60.0343 116.952C60.1943 116.845 60.3383 116.675 60.4663 116.44C60.5943 116.216 60.765 115.853 60.9783 115.352L61.3303 114.52L58.2263 107.32C58.1623 107.16 58.1303 107.053 58.1303 107C58.1303 106.915 58.1623 106.84 58.2263 106.776C58.2903 106.712 58.365 106.68 58.4503 106.68H58.7543C58.925 106.68 59.0476 106.76 59.1223 106.92L61.8583 113.288L64.5623 106.92C64.637 106.76 64.7596 106.68 64.9303 106.68H65.2183ZM73.6871 106.68C73.7724 106.68 73.8471 106.712 73.9111 106.776C73.9751 106.84 74.0071 106.915 74.0071 107C74.0071 107.053 73.9751 107.16 73.9111 107.32L70.8711 114.456L70.6471 115C70.3911 115.629 70.1564 116.141 69.9431 116.536C69.7404 116.941 69.4791 117.293 69.1591 117.592C68.8497 117.891 68.4871 118.04 68.0711 118.04H67.5271C67.4204 118.04 67.3351 118.008 67.2711 117.944C67.2071 117.88 67.1751 117.795 67.1751 117.688V117.464C67.1751 117.357 67.2071 117.272 67.2711 117.208C67.3351 117.144 67.4204 117.112 67.5271 117.112H67.8951C68.1511 117.112 68.3537 117.059 68.5031 116.952C68.6631 116.845 68.8071 116.675 68.9351 116.44C69.0631 116.216 69.2337 115.853 69.4471 115.352L69.7991 114.52L66.6951 107.32C66.6311 107.16 66.5991 107.053 66.5991 107C66.5991 106.915 66.6311 106.84 66.6951 106.776C66.7591 106.712 66.8337 106.68 66.9191 106.68H67.2231C67.3937 106.68 67.5164 106.76 67.5911 106.92L70.3271 113.288L73.0311 106.92C73.1057 106.76 73.2284 106.68 73.3991 106.68H73.6871ZM75.3878 115C75.3025 115 75.2278 114.968 75.1638 114.904C75.0998 114.84 75.0678 114.765 75.0678 114.68C75.0678 114.573 75.1105 114.467 75.1958 114.36L78.0118 110.744L75.3398 107.32C75.2545 107.213 75.2118 107.107 75.2118 107C75.2118 106.915 75.2438 106.84 75.3078 106.776C75.3718 106.712 75.4465 106.68 75.5318 106.68H75.8678C75.9638 106.68 76.0331 106.701 76.0758 106.744C76.1291 106.776 76.1931 106.835 76.2678 106.92L78.6678 110.008L81.0678 106.936C81.0785 106.925 81.1051 106.893 81.1478 106.84C81.1905 106.787 81.2385 106.749 81.2918 106.728C81.3451 106.696 81.4038 106.68 81.4678 106.68H81.7878C81.8731 106.68 81.9478 106.712 82.0118 106.776C82.0758 106.84 82.1078 106.915 82.1078 107C82.1078 107.107 82.0651 107.213 81.9798 107.32L79.2758 110.792L82.0918 114.36C82.1771 114.467 82.2198 114.573 82.2198 114.68C82.2198 114.765 82.1878 114.84 82.1238 114.904C82.0598 114.968 81.9851 115 81.8998 115H81.5638C81.4145 115 81.2811 114.92 81.1638 114.76L78.6358 111.528L76.1078 114.76C76.0331 114.845 75.9691 114.909 75.9158 114.952C75.8731 114.984 75.8038 115 75.7078 115H75.3878ZM88.3861 104.968C88.2794 104.968 88.1941 104.936 88.1301 104.872C88.0661 104.808 88.0341 104.723 88.0341 104.616V104.008C88.0341 103.901 88.0661 103.816 88.1301 103.752C88.1941 103.677 88.2794 103.64 88.3861 103.64H88.9941C89.1007 103.64 89.1861 103.677 89.2501 103.752C89.3247 103.816 89.3621 103.901 89.3621 104.008V104.616C89.3621 104.723 89.3247 104.808 89.2501 104.872C89.1861 104.936 89.1007 104.968 88.9941 104.968H88.3861ZM88.5621 115C88.4554 115 88.3701 114.968 88.3061 114.904C88.2421 114.84 88.2101 114.755 88.2101 114.648V107.032C88.2101 106.925 88.2421 106.84 88.3061 106.776C88.3701 106.712 88.4554 106.68 88.5621 106.68H88.8341C88.9407 106.68 89.0261 106.712 89.0901 106.776C89.1541 106.84 89.1861 106.925 89.1861 107.032V114.648C89.1861 114.755 89.1541 114.84 89.0901 114.904C89.0261 114.968 88.9407 115 88.8341 115H88.5621ZM101.258 106.68C101.364 106.68 101.45 106.712 101.514 106.776C101.578 106.84 101.61 106.925 101.61 107.032V114.648C101.61 114.755 101.578 114.84 101.514 114.904C101.45 114.968 101.364 115 101.258 115H100.986C100.879 115 100.794 114.968 100.73 114.904C100.666 114.84 100.634 114.755 100.634 114.648V111.896H98.6976L96.6816 114.76C96.5429 114.92 96.3989 115 96.2496 115H95.9616C95.8762 115 95.8016 114.968 95.7376 114.904C95.6736 114.84 95.6416 114.765 95.6416 114.68C95.6416 114.563 95.6842 114.456 95.7696 114.36L97.6256 111.704C97.0282 111.555 96.5802 111.261 96.2816 110.824C95.9936 110.387 95.8496 109.853 95.8496 109.224C95.8496 108.339 96.1002 107.693 96.6016 107.288C97.1029 106.883 97.8869 106.68 98.9536 106.68H101.258ZM100.634 107.608H98.8096C98.1056 107.608 97.5989 107.731 97.2896 107.976C96.9802 108.211 96.8256 108.627 96.8256 109.224C96.8256 109.757 96.9749 110.184 97.2736 110.504C97.5829 110.813 98.0416 110.968 98.6496 110.968H100.634V107.608ZM110.514 114.568C110.568 114.632 110.594 114.701 110.594 114.776C110.594 114.925 110.493 115 110.29 115H109.874C109.714 115 109.576 114.925 109.458 114.776L106.93 111.24H105.17V114.648C105.17 114.755 105.138 114.84 105.074 114.904C105.01 114.968 104.925 115 104.818 115H104.546C104.44 115 104.354 114.968 104.29 114.904C104.226 114.84 104.194 114.755 104.194 114.648V107.032C104.194 106.925 104.226 106.84 104.29 106.776C104.354 106.712 104.44 106.68 104.546 106.68H104.818C104.925 106.68 105.01 106.712 105.074 106.776C105.138 106.84 105.17 106.925 105.17 107.032V110.28H106.882L109.234 106.92C109.352 106.76 109.49 106.68 109.65 106.68H109.97C110.066 106.68 110.141 106.701 110.194 106.744C110.258 106.776 110.29 106.829 110.29 106.904C110.29 106.947 110.264 107.011 110.21 107.096L107.73 110.648L110.514 114.568ZM116.765 115C116.659 115 116.573 114.968 116.509 114.904C116.445 114.84 116.413 114.755 116.413 114.648V107.032C116.413 106.925 116.445 106.84 116.509 106.776C116.573 106.712 116.659 106.68 116.765 106.68H117.037C117.144 106.68 117.229 106.712 117.293 106.776C117.357 106.84 117.389 106.925 117.389 107.032V110.28H122.381V107.032C122.381 106.925 122.413 106.84 122.477 106.776C122.541 106.712 122.627 106.68 122.733 106.68H123.005C123.112 106.68 123.197 106.712 123.261 106.776C123.325 106.84 123.357 106.925 123.357 107.032V114.648C123.357 114.755 123.325 114.84 123.261 114.904C123.197 114.968 123.112 115 123.005 115H122.733C122.627 115 122.541 114.968 122.477 114.904C122.413 114.84 122.381 114.755 122.381 114.648V111.208H117.389V114.648C117.389 114.755 117.357 114.84 117.293 114.904C117.229 114.968 117.144 115 117.037 115H116.765ZM129.112 115.16C128.003 115.16 127.139 114.824 126.52 114.152C125.912 113.469 125.592 112.589 125.56 111.512L125.544 110.84L125.56 110.168C125.592 109.091 125.912 108.216 126.52 107.544C127.139 106.861 128.003 106.52 129.112 106.52C130.222 106.52 131.08 106.861 131.688 107.544C132.307 108.216 132.632 109.091 132.664 110.168C132.675 110.275 132.68 110.499 132.68 110.84C132.68 111.181 132.675 111.405 132.664 111.512C132.632 112.589 132.307 113.469 131.688 114.152C131.08 114.824 130.222 115.16 129.112 115.16ZM129.112 114.232C129.87 114.232 130.478 113.992 130.936 113.512C131.406 113.021 131.656 112.328 131.688 111.432C131.699 111.325 131.704 111.128 131.704 110.84C131.704 110.552 131.699 110.355 131.688 110.248C131.656 109.352 131.406 108.664 130.936 108.184C130.478 107.693 129.87 107.448 129.112 107.448C128.355 107.448 127.742 107.693 127.272 108.184C126.814 108.664 126.568 109.352 126.536 110.248L126.52 110.84L126.536 111.432C126.568 112.328 126.814 113.021 127.272 113.512C127.742 113.992 128.355 114.232 129.112 114.232ZM135.218 115C135.112 115 135.026 114.968 134.962 114.904C134.898 114.84 134.866 114.755 134.866 114.648V107.032C134.866 106.925 134.898 106.84 134.962 106.776C135.026 106.712 135.112 106.68 135.218 106.68H138.37C139.234 106.68 139.906 106.877 140.386 107.272C140.877 107.667 141.122 108.195 141.122 108.856C141.122 109.336 141.032 109.704 140.85 109.96C140.68 110.216 140.397 110.435 140.002 110.616C140.408 110.765 140.722 111.037 140.946 111.432C141.17 111.827 141.282 112.243 141.282 112.68C141.282 113.427 141.026 114.003 140.514 114.408C140.013 114.803 139.325 115 138.45 115H135.218ZM138.21 110.344C138.797 110.344 139.266 110.211 139.618 109.944C139.97 109.677 140.146 109.315 140.146 108.856C140.146 108.408 139.976 108.088 139.634 107.896C139.304 107.704 138.829 107.608 138.21 107.608H135.842V110.344H138.21ZM138.322 114.072C138.93 114.072 139.41 113.955 139.762 113.72C140.125 113.475 140.306 113.128 140.306 112.68C140.306 112.2 140.141 111.848 139.81 111.624C139.49 111.389 138.994 111.272 138.322 111.272H135.842V114.072H138.322ZM146.626 115.16C145.613 115.16 144.797 114.829 144.178 114.168C143.56 113.496 143.208 112.6 143.122 111.48L143.106 110.84L143.122 110.2C143.208 109.091 143.554 108.2 144.162 107.528C144.781 106.856 145.602 106.52 146.626 106.52C147.736 106.52 148.6 106.888 149.218 107.624C149.848 108.36 150.162 109.368 150.162 110.648V110.888C150.162 110.995 150.125 111.08 150.05 111.144C149.986 111.208 149.901 111.24 149.794 111.24H144.098V111.4C144.12 111.901 144.232 112.371 144.434 112.808C144.648 113.235 144.941 113.581 145.314 113.848C145.688 114.104 146.125 114.232 146.626 114.232C147.213 114.232 147.688 114.12 148.05 113.896C148.424 113.661 148.69 113.427 148.85 113.192C148.946 113.064 149.016 112.984 149.058 112.952C149.112 112.92 149.202 112.904 149.33 112.904H149.586C149.682 112.904 149.762 112.931 149.826 112.984C149.89 113.037 149.922 113.107 149.922 113.192C149.922 113.416 149.778 113.688 149.49 114.008C149.213 114.317 148.824 114.589 148.322 114.824C147.821 115.048 147.256 115.16 146.626 115.16ZM149.186 110.344V110.28C149.186 109.459 148.952 108.781 148.482 108.248C148.024 107.715 147.405 107.448 146.626 107.448C145.848 107.448 145.229 107.715 144.77 108.248C144.322 108.781 144.098 109.459 144.098 110.28V110.344H149.186ZM152.625 115C152.518 115 152.433 114.968 152.369 114.904C152.305 114.84 152.273 114.755 152.273 114.648V107.032C152.273 106.925 152.305 106.84 152.369 106.776C152.433 106.712 152.518 106.68 152.625 106.68H152.897C153.003 106.68 153.089 106.712 153.153 106.776C153.217 106.84 153.249 106.925 153.249 107.032V110.28H158.241V107.032C158.241 106.925 158.273 106.84 158.337 106.776C158.401 106.712 158.486 106.68 158.593 106.68H158.865C158.971 106.68 159.057 106.712 159.121 106.776C159.185 106.84 159.217 106.925 159.217 107.032V114.648C159.217 114.755 159.185 114.84 159.121 114.904C159.057 114.968 158.971 115 158.865 115H158.593C158.486 115 158.401 114.968 158.337 114.904C158.273 114.84 158.241 114.755 158.241 114.648V111.208H153.249V114.648C153.249 114.755 153.217 114.84 153.153 114.904C153.089 114.968 153.003 115 152.897 115H152.625ZM162.156 115C162.049 115 161.964 114.968 161.9 114.904C161.836 114.84 161.804 114.755 161.804 114.648V107.032C161.804 106.925 161.836 106.84 161.9 106.776C161.964 106.712 162.049 106.68 162.156 106.68H162.428C162.534 106.68 162.62 106.712 162.684 106.776C162.748 106.84 162.78 106.925 162.78 107.032V109.464H164.7C166.716 109.464 167.724 110.408 167.724 112.296C167.724 113.235 167.457 113.923 166.924 114.36C166.401 114.787 165.58 115 164.46 115H162.156ZM164.604 114.072C165.361 114.072 165.905 113.939 166.236 113.672C166.577 113.405 166.748 112.947 166.748 112.296C166.748 111.645 166.577 111.165 166.236 110.856C165.905 110.547 165.361 110.392 164.604 110.392H162.78V114.072H164.604ZM175.733 114.568C175.787 114.632 175.813 114.701 175.813 114.776C175.813 114.925 175.712 115 175.509 115H175.093C174.933 115 174.795 114.925 174.677 114.776L172.149 111.24H170.389V114.648C170.389 114.755 170.357 114.84 170.293 114.904C170.229 114.968 170.144 115 170.037 115H169.765C169.659 115 169.573 114.968 169.509 114.904C169.445 114.84 169.413 114.755 169.413 114.648V107.032C169.413 106.925 169.445 106.84 169.509 106.776C169.573 106.712 169.659 106.68 169.765 106.68H170.037C170.144 106.68 170.229 106.712 170.293 106.776C170.357 106.84 170.389 106.925 170.389 107.032V110.28H172.101L174.453 106.92C174.571 106.76 174.709 106.68 174.869 106.68H175.189C175.285 106.68 175.36 106.701 175.413 106.744C175.477 106.776 175.509 106.829 175.509 106.904C175.509 106.947 175.483 107.011 175.429 107.096L172.949 110.648L175.733 114.568ZM184.131 106.68C184.216 106.68 184.291 106.712 184.355 106.776C184.419 106.84 184.451 106.909 184.451 106.984V114.648C184.451 114.755 184.419 114.84 184.355 114.904C184.291 114.968 184.206 115 184.099 115H183.827C183.72 115 183.635 114.968 183.571 114.904C183.507 114.84 183.475 114.755 183.475 114.648V108.312L178.547 114.76C178.43 114.92 178.291 115 178.131 115H177.827C177.742 115 177.667 114.968 177.603 114.904C177.539 114.84 177.507 114.765 177.507 114.68V107.032C177.507 106.925 177.539 106.84 177.603 106.776C177.667 106.712 177.752 106.68 177.859 106.68H178.131C178.238 106.68 178.323 106.712 178.387 106.776C178.451 106.84 178.483 106.925 178.483 107.032V113.368L183.411 106.92C183.528 106.76 183.667 106.68 183.827 106.68H184.131ZM193.662 106.68C193.748 106.68 193.822 106.712 193.886 106.776C193.95 106.84 193.982 106.909 193.982 106.984V114.648C193.982 114.755 193.95 114.84 193.886 114.904C193.822 114.968 193.737 115 193.63 115H193.358C193.252 115 193.166 114.968 193.102 114.904C193.038 114.84 193.006 114.755 193.006 114.648V108.312L188.078 114.76C187.961 114.92 187.822 115 187.662 115H187.358C187.273 115 187.198 114.968 187.134 114.904C187.07 114.84 187.038 114.765 187.038 114.68V107.032C187.038 106.925 187.07 106.84 187.134 106.776C187.198 106.712 187.284 106.68 187.39 106.68H187.662C187.769 106.68 187.854 106.712 187.918 106.776C187.982 106.84 188.014 106.925 188.014 107.032V113.368L192.942 106.92C193.06 106.76 193.198 106.68 193.358 106.68H193.662ZM190.51 105.56C189.689 105.56 189.108 105.384 188.766 105.032C188.436 104.68 188.27 104.237 188.27 103.704C188.27 103.619 188.297 103.549 188.35 103.496C188.404 103.432 188.478 103.4 188.574 103.4H188.814C188.91 103.4 188.985 103.432 189.038 103.496C189.092 103.549 189.118 103.619 189.118 103.704C189.118 104.003 189.22 104.253 189.422 104.456C189.636 104.659 189.998 104.76 190.51 104.76C191.022 104.76 191.38 104.659 191.582 104.456C191.796 104.253 191.902 104.003 191.902 103.704C191.902 103.619 191.929 103.549 191.982 103.496C192.036 103.432 192.11 103.4 192.206 103.4H192.446C192.542 103.4 192.617 103.432 192.67 103.496C192.724 103.549 192.75 103.619 192.75 103.704C192.75 104.237 192.58 104.68 192.238 105.032C191.908 105.384 191.332 105.56 190.51 105.56ZM196.937 112.712C196.831 112.712 196.745 112.68 196.681 112.616C196.617 112.552 196.585 112.467 196.585 112.36V104.152C196.585 104.045 196.617 103.96 196.681 103.896C196.745 103.832 196.831 103.8 196.937 103.8H197.209C197.316 103.8 197.401 103.832 197.465 103.896C197.529 103.96 197.561 104.045 197.561 104.152V112.36C197.561 112.467 197.529 112.552 197.465 112.616C197.401 112.68 197.316 112.712 197.209 112.712H196.937ZM196.761 115C196.655 115 196.569 114.968 196.505 114.904C196.441 114.84 196.409 114.755 196.409 114.648V114.04C196.409 113.933 196.441 113.848 196.505 113.784C196.569 113.709 196.655 113.672 196.761 113.672H197.369C197.476 113.672 197.561 113.709 197.625 113.784C197.7 113.848 197.737 113.933 197.737 114.04V114.648C197.737 114.755 197.7 114.84 197.625 114.904C197.561 114.968 197.476 115 197.369 115H196.761Z" fill="white"/>
<circle cx="241.5" cy="77.5" r="7.5" fill="#0066FF"/>
</svg>
