<svg width="361" height="361" viewBox="0 0 361 361" fill="none" xmlns="http://www.w3.org/2000/svg">
<circle opacity="0.3" cx="179.5" cy="177.5" r="26.5" stroke="#0066FF" stroke-width="4"/>
<circle opacity="0.2" cx="179.5" cy="177.5" r="102.5" stroke="#0066FF" stroke-width="4"/>
<circle opacity="0.1" cx="180.5" cy="180.5" r="179.5" stroke="#0066FF" stroke-width="2"/>
<path d="M148.271 170.578L162.31 149.932C163.086 148.791 164.638 148.496 165.778 149.271L211.199 180.156C212.34 180.932 212.635 182.484 211.86 183.625L197.821 204.271C197.045 205.411 195.493 205.707 194.353 204.931L148.932 174.046C147.791 173.27 147.496 171.718 148.271 170.578Z" fill="#ECF8FF"/>
<path d="M149.303 171.28L163.342 150.634C163.73 150.064 164.507 149.916 165.076 150.303L210.497 181.189C211.067 181.576 211.215 182.353 210.827 182.923L196.789 203.569C196.401 204.139 195.624 204.286 195.054 203.899L149.634 173.014C149.064 172.626 148.916 171.849 149.303 171.28Z" fill="#E1F4FF"/>
<path d="M195.054 203.899L149.634 173.014C149.066 172.628 148.917 171.847 149.303 171.28L163.342 150.634C163.728 150.066 164.509 149.917 165.076 150.303L195.054 203.899Z" fill="#E3EEEC"/>
<path d="M199.948 194.482L203.54 189.2C204.145 188.311 205.25 187.909 206.284 188.202L208.351 188.786L201.331 199.109L200.028 197.402C199.376 196.548 199.344 195.371 199.948 194.482V194.482Z" fill="#2A2D2C"/>
<path d="M195.054 203.899L149.634 173.014C149.066 172.628 148.917 171.847 149.303 171.28L163.342 150.634C163.728 150.066 164.509 149.917 165.076 150.303L195.054 203.899Z" fill="#CEEDFF"/>
<path d="M154.362 167.171L161.381 156.848C161.575 156.563 161.964 156.489 162.249 156.683C162.533 156.877 162.607 157.265 162.414 157.55L155.394 167.873C155.201 168.158 154.812 168.232 154.527 168.038C154.242 167.844 154.168 167.456 154.362 167.171Z" fill="#8CB5AD"/>
<path d="M161.794 149.581L147.755 170.227C146.788 171.649 147.159 173.595 148.581 174.562L194.002 205.447C195.424 206.415 197.37 206.044 198.337 204.622L201.847 199.46L208.866 189.137L212.376 183.976C213.343 182.553 212.973 180.607 211.55 179.64L166.129 148.755C164.707 147.788 162.761 148.158 161.794 149.581ZM201.302 198.042L200.523 197.022C200.034 196.381 200.01 195.501 200.464 194.834L204.055 189.552C204.509 188.885 205.336 188.584 206.113 188.803L207.347 189.152L201.302 198.042ZM210.848 180.672C211.702 181.253 211.924 182.42 211.344 183.274L208.087 188.064L206.453 187.602C205.158 187.236 203.78 187.736 203.023 188.85L199.431 194.132C198.675 195.245 198.715 196.711 199.531 197.78L200.562 199.13L197.305 203.92C196.724 204.773 195.557 204.996 194.704 204.415L149.283 173.53C148.429 172.949 148.207 171.782 148.787 170.929L162.826 150.283C163.407 149.429 164.574 149.207 165.428 149.787L210.848 180.672Z" fill="black"/>
<path d="M161.381 156.848L154.362 167.171C154.168 167.456 154.242 167.844 154.527 168.038C154.812 168.232 155.201 168.158 155.394 167.873L162.414 157.55C162.607 157.265 162.533 156.877 162.249 156.683C161.964 156.489 161.575 156.563 161.381 156.848Z" fill="black"/>
</svg>
