<svg width="85" height="26" viewBox="0 0 85 26" fill="none" xmlns="http://www.w3.org/2000/svg">
<path d="M7.208 25V21.396H0.306V18.132L5.304 0.792H8.976L3.774 18.132H7.208V11.23H10.676V18.132H12.342V21.396H10.676V25H7.208Z" fill="#0066FF"/>
<path d="M25.5024 7.762H22.0344V6.98C22.0344 6.18667 21.8417 5.50667 21.4564 4.94C21.0937 4.35067 20.4704 4.056 19.5864 4.056C19.1104 4.056 18.7251 4.14666 18.4304 4.328C18.1357 4.50933 17.8977 4.736 17.7164 5.008C17.5351 5.30267 17.4104 5.64267 17.3424 6.028C17.2744 6.39067 17.2404 6.776 17.2404 7.184C17.2404 7.66 17.2517 8.05667 17.2744 8.374C17.3197 8.69133 17.4104 8.97467 17.5464 9.224C17.6824 9.47333 17.8751 9.68867 18.1244 9.87C18.3964 10.0513 18.7591 10.2327 19.2124 10.414L21.8644 11.468C22.6351 11.7627 23.2584 12.114 23.7344 12.522C24.2104 12.9073 24.5844 13.3607 24.8564 13.882C25.1057 14.426 25.2757 15.0493 25.3664 15.752C25.4571 16.432 25.5024 17.214 25.5024 18.098C25.5024 19.118 25.4004 20.07 25.1964 20.954C24.9924 21.8153 24.6637 22.552 24.2104 23.164C23.7344 23.7987 23.1111 24.2973 22.3404 24.66C21.5697 25.0227 20.6291 25.204 19.5184 25.204C18.6797 25.204 17.8977 25.0567 17.1724 24.762C16.4471 24.4673 15.8237 24.0593 15.3024 23.538C14.7811 23.0167 14.3617 22.416 14.0444 21.736C13.7497 21.0333 13.6024 20.274 13.6024 19.458V18.166H17.0704V19.254C17.0704 19.8887 17.2517 20.4667 17.6144 20.988C17.9997 21.4867 18.6344 21.736 19.5184 21.736C20.1077 21.736 20.5611 21.6567 20.8784 21.498C21.2184 21.3167 21.4791 21.0673 21.6604 20.75C21.8417 20.4327 21.9437 20.0587 21.9664 19.628C22.0117 19.1747 22.0344 18.676 22.0344 18.132C22.0344 17.4973 22.0117 16.976 21.9664 16.568C21.9211 16.16 21.8304 15.8313 21.6944 15.582C21.5357 15.3327 21.3204 15.1287 21.0484 14.97C20.7991 14.8113 20.4591 14.6413 20.0284 14.46L17.5464 13.44C16.0504 12.828 15.0417 12.0233 14.5204 11.026C14.0217 10.006 13.7724 8.73667 13.7724 7.218C13.7724 6.31133 13.8971 5.45 14.1464 4.634C14.3957 3.818 14.7697 3.11533 15.2684 2.526C15.7444 1.93667 16.3451 1.472 17.0704 1.132C17.8184 0.769332 18.7024 0.587998 19.7224 0.587998C20.5837 0.587998 21.3657 0.746665 22.0684 1.064C22.7937 1.38133 23.4171 1.80066 23.9384 2.322C24.9811 3.41 25.5024 4.65667 25.5024 6.062V7.762ZM28.0949 25V0.792H31.4269L35.8809 13.61H35.9489L40.3689 0.792H43.7349V25H40.2669V10.278H40.1989L36.7649 20.682H35.0309L31.6309 10.278H31.5629V25H28.0949ZM53.9915 16.534L52.2915 7.762H52.2235L50.5235 16.534H53.9915ZM45.4235 25L50.8295 0.792H53.7195L59.1255 25H55.6575L54.6375 19.798H49.9115L48.8915 25H45.4235ZM64.3012 4.056V11.604H66.2732C66.8852 11.604 67.3725 11.5247 67.7352 11.366C68.0978 11.1847 68.3812 10.9353 68.5852 10.618C68.7665 10.3007 68.8912 9.91533 68.9592 9.462C69.0272 8.986 69.0612 8.442 69.0612 7.83C69.0612 7.218 69.0272 6.68533 68.9592 6.232C68.8912 5.756 68.7552 5.348 68.5512 5.008C68.1205 4.37333 67.3045 4.056 66.1032 4.056H64.3012ZM60.8332 25V0.792H66.4092C70.4892 0.792 72.5292 3.16067 72.5292 7.898C72.5292 9.326 72.3025 10.5387 71.8492 11.536C71.4185 12.5333 70.6478 13.338 69.5372 13.95L73.2772 25H69.6052L66.3752 14.664H64.3012V25H60.8332ZM76.9901 25V4.056H72.9781V0.792H84.4701V4.056H80.4581V25H76.9901Z" fill="#3D3D3D"/>
</svg>
