<svg width="141" height="63" viewBox="0 0 141 63" fill="none" xmlns="http://www.w3.org/2000/svg">
<path d="M45.48 41.76H37.36V37.92L43.24 17.52H47.56L41.44 37.92H45.48V29.8H49.56V37.92H51.52V41.76H49.56V46H45.48V41.76ZM67.8028 25.72H63.7228V24.8C63.7228 23.8667 63.4961 23.0667 63.0428 22.4C62.6161 21.7067 61.8828 21.36 60.8428 21.36C60.2828 21.36 59.8161 21.4667 59.4428 21.68C59.0961 21.8933 58.8161 22.1733 58.6028 22.52C58.4161 22.84 58.2828 23.2267 58.2028 23.68C58.1228 24.1067 58.0828 24.56 58.0828 25.04C58.0828 25.6 58.0961 26.08 58.1228 26.48C58.1761 26.8533 58.2828 27.1867 58.4428 27.48C58.6028 27.7467 58.8295 27.9867 59.1228 28.2C59.4428 28.4133 59.8695 28.6267 60.4028 28.84L63.5228 30.08C64.4295 30.4267 65.1628 30.84 65.7228 31.32C66.2828 31.7733 66.7095 32.32 67.0028 32.96C67.3228 33.5733 67.5361 34.2933 67.6428 35.12C67.7495 35.92 67.8028 36.84 67.8028 37.88C67.8028 39.08 67.6828 40.2 67.4428 41.24C67.2028 42.2533 66.8028 43.1333 66.2428 43.88C65.7095 44.6 64.9895 45.1733 64.0828 45.6C63.1761 46.0267 62.0695 46.24 60.7628 46.24C59.7761 46.24 58.8561 46.0667 58.0028 45.72C57.1495 45.3733 56.4161 44.9067 55.8028 44.32C55.1895 43.7067 54.6961 42.9867 54.3228 42.16C53.9761 41.3333 53.8028 40.44 53.8028 39.48V37.96H57.8828V39.24C57.8828 39.9867 58.0961 40.6667 58.5228 41.28C58.9761 41.8667 59.7228 42.16 60.7628 42.16C61.4561 42.16 61.9895 42.0667 62.3628 41.88C62.7628 41.6667 63.0561 41.3867 63.2428 41.04C63.4561 40.6667 63.5895 40.2133 63.6428 39.68C63.6961 39.1467 63.7228 38.56 63.7228 37.92C63.7228 37.1733 63.6961 36.56 63.6428 36.08C63.5895 35.6 63.4695 35.2133 63.2828 34.92C63.1228 34.6267 62.8828 34.3867 62.5628 34.2C62.2695 34.0133 61.8695 33.8133 61.3628 33.6L58.4428 32.4C56.6828 31.68 55.4961 30.7333 54.8828 29.56C54.2961 28.36 54.0028 26.8667 54.0028 25.08C54.0028 24.0133 54.1495 23 54.4428 22.04C54.7361 21.08 55.1628 20.2533 55.7228 19.56C56.3095 18.8667 57.0428 18.32 57.9228 17.92C58.8028 17.4933 59.8295 17.28 61.0028 17.28C62.0161 17.28 62.9361 17.4667 63.7628 17.84C64.6161 18.2133 65.3361 18.7067 65.9228 19.32C66.5361 19.9333 67.0028 20.6267 67.3228 21.4C67.6428 22.1467 67.8028 22.92 67.8028 23.72V25.72ZM71.6528 17.52H75.5728L80.8128 32.6H80.8928L86.0928 17.52H90.0528V46H85.9728V28.68H85.8928L81.8528 40.92H79.8128L75.8128 28.68H75.7328V46H71.6528V17.52ZM100.919 25.72H100.839L98.8394 36.04H102.919L100.919 25.72ZM99.1994 17.52H102.599L108.959 46H104.879L103.679 39.88H98.1194L96.9194 46H92.8394L99.1994 17.52ZM115.848 30.24H118.168C118.888 30.24 119.462 30.1467 119.888 29.96C120.315 29.7467 120.635 29.4533 120.848 29.08C121.088 28.7067 121.248 28.2533 121.328 27.72C121.408 27.16 121.448 26.52 121.448 25.8C121.448 25.08 121.408 24.4533 121.328 23.92C121.248 23.36 121.075 22.8933 120.808 22.52C120.568 22.12 120.222 21.8267 119.768 21.64C119.315 21.4533 118.715 21.36 117.968 21.36H115.848V30.24ZM111.768 17.52H118.328C123.128 17.52 125.528 20.3067 125.528 25.88C125.528 27.5333 125.262 28.96 124.728 30.16C124.222 31.3333 123.315 32.28 122.008 33L126.408 46H122.088L118.288 33.84H115.848V46H111.768V17.52ZM131.577 21.36H126.857V17.52H140.377V21.36H135.657V46H131.577V21.36Z" fill="black"/>
<path d="M28.8201 61.846H3.17909C1.76243 61.846 0.61499 60.7043 0.61499 59.2947V3.16652C0.61499 1.75693 1.76243 0.615234 3.17909 0.615234H28.8201C30.2368 0.615234 31.3842 1.75693 31.3842 3.16652V59.2947C31.3842 60.7043 30.2368 61.846 28.8201 61.846Z" fill="white"/>
<path d="M19.3071 4.61523H12.6943C11.5816 4.61523 10.5943 3.88057 10.2428 2.79123L9.53979 0.615234H22.4629L21.7599 2.79123C21.4083 3.88057 20.4197 4.61523 19.3071 4.61523Z" fill="black"/>
<path d="M32 3.20251C32 1.43601 30.5651 0 28.8 0H22.4H9.6H3.2C1.43616 0 0 1.43601 0 3.20251V59.5667C0 61.3332 1.43616 62.7692 3.2 62.7692H28.8C30.5651 62.7692 32 61.3332 32 59.5667V3.20251ZM21.513 1.281L21.097 2.52998C20.8358 3.31524 20.1037 3.84301 19.2755 3.84301H12.7258C11.8989 3.84301 11.1654 3.31524 10.9043 2.52998L10.487 1.281H21.513ZM30.72 59.5667C30.72 60.6261 29.8586 61.4882 28.8 61.4882H3.2C2.14144 61.4882 1.28 60.6261 1.28 59.5667V3.20251C1.28 2.14312 2.14144 1.281 3.2 1.281H9.13792L9.68832 2.93478C10.1261 4.24397 11.3459 5.12402 12.7245 5.12402H19.2742C20.6528 5.12402 21.8726 4.24397 22.3104 2.93478L22.8608 1.281H28.8C29.8586 1.281 30.72 2.14312 30.72 3.20251V59.5667Z" fill="black"/>
<mask id="mask0" mask-type="alpha" maskUnits="userSpaceOnUse" x="7" y="13" width="24" height="37">
<rect x="7.43066" y="13.6543" width="23.2509" height="35.9959" fill="#C4C4C4"/>
</mask>
<g mask="url(#mask0)">
<path d="M29.3158 48.4031L29.3158 46.0932C29.3158 45.584 29.6328 45.1285 30.1107 44.9527C30.4509 44.8275 30.7847 44.6891 31.1115 44.5381C31.5741 44.3244 32.1205 44.4218 32.4809 44.7821L34.1143 46.4156C34.5897 46.891 35.3606 46.891 35.8359 46.4156L39.6234 42.6281C40.0988 42.1527 40.0988 41.3819 39.6234 40.9065L37.99 39.2732C37.6297 38.9128 37.5321 38.3663 37.746 37.9038C37.8969 37.577 38.0354 37.2432 38.1605 36.903C38.3363 36.425 38.7918 36.108 39.301 36.108L41.611 36.108L42.8284 34.8907L42.8284 29.5343C42.8284 28.862 42.2833 28.317 41.611 28.317L39.3011 28.317C38.7919 28.317 38.3364 27.9999 38.1606 27.522C38.0354 27.1818 37.897 26.848 37.746 26.5212C37.5322 26.0586 37.6297 25.5122 37.99 25.1518L39.6235 23.5184C40.0989 23.0431 40.0989 22.2722 39.6235 21.7969L35.836 18.0094C35.3606 17.534 34.5898 17.534 34.1144 18.0094L32.481 19.6428C32.1206 20.0032 31.5742 20.1006 31.1116 19.8868C30.7848 19.7359 30.451 19.5974 30.1108 19.4723C29.6329 19.2965 29.3158 18.841 29.3158 18.3318L29.3158 16.0215C29.3158 15.3492 28.7708 14.8042 28.0985 14.8042L22.7421 14.8042C22.0698 14.8042 21.5248 15.3492 21.5248 16.0215L21.5248 18.3315C21.5248 18.8407 21.2078 19.2962 20.7298 19.472C20.3896 19.5971 20.0558 19.7355 19.729 19.8865C19.2665 20.1003 18.72 20.0029 18.3596 19.6425L16.7262 18.0091C16.2508 17.5337 15.48 17.5337 15.0046 18.0091L11.2171 21.7966C10.7418 22.2719 10.7418 23.0428 11.2171 23.5181L12.8506 25.1515C13.211 25.5119 13.3084 26.0583 13.0946 26.5209C12.9436 26.8477 12.8052 27.1815 12.68 27.5217C12.5042 27.9996 12.0487 28.3167 11.5394 28.3167L9.22951 28.3167C8.55722 28.3167 8.01217 28.8617 8.01217 29.534L8.01217 34.8904C8.01217 35.5627 8.55722 36.1077 9.22951 36.1077L11.5394 36.1077C12.0486 36.1077 12.5041 36.4247 12.68 36.9027C12.8052 37.2429 12.9436 37.5767 13.0946 37.9034C13.3083 38.366 13.2109 38.9125 12.8506 39.2729L11.2171 40.9062C10.7418 41.3816 10.7418 42.1524 11.2171 42.6278L15.0046 46.4153C15.4801 46.8907 16.2508 46.8907 16.7262 46.4153L18.3596 44.7818C18.72 44.4214 19.2665 44.3241 19.729 44.5378C20.0558 44.6888 20.3896 44.8272 20.7298 44.9524C21.2078 45.1282 21.5248 45.5837 21.5248 46.0929L21.5248 48.4028C21.5248 49.0752 22.0698 49.6202 22.7421 49.6202L28.0984 49.6202C28.7707 49.6205 29.3158 49.0755 29.3158 48.4031ZM17.203 32.2124C17.203 27.6742 20.882 23.9952 25.4202 23.9952C29.9584 23.9952 33.6373 27.6742 33.6373 32.2124C33.6373 36.7506 29.9584 40.4295 25.4202 40.4295C20.882 40.4295 17.203 36.7505 17.203 32.2124Z" fill="#6DA8FF"/>
<path d="M29.3153 48.4034L29.3153 46.0935C29.3153 45.5843 29.6323 45.1288 30.1102 44.953C30.4504 44.8278 30.7842 44.6894 31.111 44.5384C31.5736 44.3247 32.12 44.4221 32.4804 44.7824L34.1139 46.4159C34.5892 46.8913 35.3601 46.8913 35.8354 46.4159L39.6229 42.6284C40.0983 42.153 40.0983 41.3822 39.6229 40.9068L37.9895 39.2735C37.6292 38.9131 37.5316 38.3666 37.7455 37.9041C37.8965 37.5773 38.0349 37.2435 38.16 36.9033C38.3358 36.4253 38.7913 36.1083 39.3005 36.1083L41.6105 36.1083L42.8279 34.891L42.8279 29.5346C42.8279 28.8623 42.2828 28.3173 41.6105 28.3173L39.9937 28.3173C39.8109 35.9675 33.5524 42.113 25.8581 42.113C18.1593 42.113 11.8979 35.96 11.7224 28.3032C11.6623 28.3124 11.601 28.3173 11.5389 28.3173L9.22895 28.3173C8.55666 28.3173 8.01161 28.8623 8.01161 29.5346L8.01161 34.891C8.01161 35.5633 8.55666 36.1083 9.22895 36.1083L11.5389 36.1083C12.0481 36.1083 12.5036 36.4253 12.6795 36.9033C12.8046 37.2435 12.943 37.5773 13.094 37.9041C13.3078 38.3666 13.2103 38.9131 12.85 39.2735L11.2166 40.9068C10.7412 41.3822 10.7412 42.153 11.2166 42.6284L15.004 46.4159C15.4795 46.8913 16.2502 46.8913 16.7256 46.4159L18.3591 44.7824C18.7195 44.4221 19.2659 44.3247 19.7285 44.5384C20.0553 44.6894 20.389 44.8278 20.7293 44.953C21.2072 45.1288 21.5242 45.5843 21.5242 46.0935L21.5242 48.4034C21.5242 49.0758 22.0693 49.6208 22.7416 49.6208L28.0979 49.6208C28.7702 49.6208 29.3153 49.0758 29.3153 48.4034Z" fill="#E1F4FF"/>
<path d="M29.8982 45.5254L29.8982 47.8351C29.8982 48.8272 29.091 49.6344 28.0989 49.6343L22.7423 49.6343C21.7502 49.6343 20.9431 48.8272 20.9431 47.8351L20.9431 45.5253C20.9431 45.2605 20.7771 45.0217 20.5301 44.931C20.173 44.7993 19.8218 44.6537 19.4851 44.4977C19.2454 44.3872 18.9586 44.4382 18.772 44.6251L17.1385 46.2588C16.7986 46.5987 16.3466 46.7859 15.8659 46.7859C15.385 46.7859 14.9331 46.5986 14.5935 46.2584L10.8061 42.4711C10.4664 42.1318 10.279 41.6799 10.279 41.1991C10.279 40.7182 10.4664 40.2664 10.8065 39.9268L12.4393 38.2933C12.6266 38.1064 12.6775 37.8193 12.5667 37.5787C12.4101 37.2405 12.2645 36.8888 12.1347 36.5348C12.0438 36.2882 11.8045 36.1218 11.5396 36.1218L9.22987 36.1218C8.23777 36.1218 7.43063 35.3147 7.43063 34.3226L7.43063 28.9659C7.43063 27.9738 8.23777 27.1667 9.22987 27.1667L11.5396 27.1667C11.8045 27.1667 12.0438 27.0003 12.135 26.7528C12.2645 26.3997 12.4101 26.048 12.5673 25.7087C12.6776 25.4692 12.6266 25.1821 12.4399 24.9958L10.806 23.3613C10.4664 23.0221 10.279 22.5703 10.279 22.0894C10.279 21.6086 10.4664 21.1568 10.8065 20.8172L14.594 17.0298C14.9332 16.69 15.3851 16.5027 15.866 16.5027C16.3467 16.5027 16.7986 16.6899 17.1386 17.0299L18.7717 18.663C18.9587 18.8504 19.2456 18.9014 19.4859 18.7905C19.822 18.6349 20.1732 18.4893 20.5292 18.3579C20.7772 18.2669 20.9432 18.0281 20.9432 17.7633L20.9432 15.4535C20.9432 14.4614 21.7503 13.6543 22.7424 13.6543L28.099 13.6543C29.0911 13.6543 29.8982 14.4614 29.8982 15.4535L29.8982 17.7633C29.8982 18.0279 30.0645 18.2668 30.312 18.3575C30.6685 18.4894 31.0195 18.6349 31.3565 18.7906C31.5964 18.9013 31.8835 18.8501 32.0705 18.663L33.7037 17.0298C34.0435 16.6899 34.4953 16.5027 34.9759 16.5027C35.4564 16.5027 35.9083 16.6899 36.2482 17.0299L40.0352 20.8176C40.375 21.1568 40.5623 21.6087 40.5623 22.0895C40.5623 22.7161 40.2086 23.188 39.7722 23.6244C39.5449 23.8517 39.1766 23.8518 38.9492 23.6245C38.722 23.3974 38.722 23.029 38.9491 22.8016C39.1569 22.5937 39.3985 22.4208 39.3985 22.0895C39.3985 21.9199 39.3324 21.7606 39.2126 21.6409L35.4252 17.8528C35.3051 17.7327 35.1455 17.6665 34.9759 17.6665C34.8062 17.6665 34.6466 17.7327 34.5265 17.8528L32.8933 19.486C32.363 20.0162 31.5494 20.1614 30.8686 19.8472C30.5588 19.7041 30.2362 19.5705 29.9097 19.4496C29.2073 19.1919 28.7344 18.514 28.7344 17.7633L28.7344 15.4535C28.7344 15.1032 28.4493 14.8181 28.0989 14.8181L22.7423 14.8181C22.3919 14.8181 22.1069 15.1031 22.1069 15.4535L22.1069 17.7633C22.1069 18.5143 21.6343 19.1921 20.9309 19.4501C20.605 19.5705 20.2827 19.704 19.9741 19.8469C19.2918 20.1617 18.4781 20.0164 17.9483 19.4856L16.3156 17.8528C16.1954 17.7327 16.0357 17.6665 15.8659 17.6665C15.6962 17.6665 15.5368 17.7325 15.4172 17.8524L11.629 21.6407C11.5088 21.7607 11.4427 21.92 11.4427 22.0896C11.4427 22.2592 11.5088 22.4186 11.6286 22.5383L13.2623 24.1727C13.7923 24.7014 13.9378 25.5151 13.6237 26.1969C13.4794 26.5087 13.3461 26.8305 13.2272 27.1546C12.9679 27.8584 12.2897 28.3307 11.5396 28.3307L9.2298 28.3307C8.87941 28.3307 8.59436 28.6157 8.59436 28.9661L8.59436 34.3227C8.59436 34.6731 8.87941 34.9581 9.2298 34.9581L11.5396 34.9581C12.2897 34.9581 12.9679 35.4303 13.2269 36.1332C13.3461 36.4583 13.4793 36.7802 13.6232 37.0907C13.9377 37.7736 13.7922 38.5873 13.2618 39.1167L11.6291 40.75C11.5088 40.8702 11.4427 41.0295 11.4427 41.1992C11.4427 41.3687 11.5088 41.5281 11.6286 41.6478L15.4168 45.4358C15.5369 45.5561 15.6962 45.6221 15.8659 45.6221C16.0357 45.6221 16.1954 45.556 16.3155 45.4359L17.9487 43.8026C18.478 43.2722 19.2918 43.1269 19.9733 43.4415C20.2827 43.5847 20.605 43.7182 20.9319 43.8389C21.6342 44.0966 22.1068 44.7744 22.1068 45.5254L22.1068 47.8351C22.1068 48.1855 22.3919 48.4706 22.7423 48.4706L28.0988 48.4706C28.4492 48.4706 28.7343 48.1856 28.7343 47.8351L28.7343 45.5254C28.7343 44.7746 29.2072 44.0968 29.911 43.8385C30.2362 43.7182 30.5587 43.5845 30.8683 43.4415C31.5493 43.1273 32.3629 43.2725 32.8932 43.8026L34.5264 45.4358C34.6465 45.5559 34.8061 45.6221 34.9758 45.6221C35.1454 45.6221 35.305 45.556 35.4251 45.4359L39.2121 41.6482C39.3323 41.5281 39.3984 41.3688 39.3984 41.1992C39.3984 41.0296 39.3323 40.8702 39.2125 40.7505L37.5789 39.1161C37.4139 38.9511 37.2849 38.756 37.1957 38.5442C37.1217 38.3751 37.0684 37.9895 37.4472 37.8001C37.8259 37.6107 38.1863 37.9817 38.3191 38.1909C38.3818 38.2932 39.9451 39.8375 40.0352 39.9274C40.3749 40.2666 40.5622 40.7184 40.5622 41.1993C40.5622 41.6801 40.3749 42.1319 40.0347 42.4715L36.2481 46.2588C35.9082 46.5988 35.4563 46.786 34.9758 46.786C34.4953 46.786 34.0434 46.5988 33.7035 46.2588L32.0704 44.6257C31.8833 44.4385 31.5963 44.3873 31.3562 44.4981C31.0194 44.6538 30.6685 44.7993 30.3134 44.9306C30.0644 45.0219 29.8982 45.2607 29.8982 45.5254Z" fill="black"/>
<path d="M25.4206 22.8453C27.6523 22.8453 29.7511 23.6675 31.3788 25.1699C31.4892 25.3399 31.6439 25.7461 31.3788 26.0113C31.1136 26.2764 30.5932 25.9995 30.3662 25.8278C28.9877 24.6507 27.2561 24.0091 25.4206 24.0091C21.2104 24.0091 17.7852 27.4343 17.7852 31.6444C17.7852 35.8546 21.2104 39.2798 25.4206 39.2798C26.5664 39.2798 27.6675 39.0324 28.6936 38.5446C28.984 38.4067 29.3311 38.5301 29.469 38.8204C29.6071 39.1106 29.4836 39.4578 29.1934 39.5957C28.0099 40.1583 26.7406 40.4436 25.4206 40.4436C20.5687 40.4436 16.6215 36.4963 16.6215 31.6444C16.6215 26.7926 20.5687 22.8453 25.4206 22.8453Z" fill="black"/>
</g>
</svg>
