<svg width="156" height="306" viewBox="0 0 156 306" fill="none" xmlns="http://www.w3.org/2000/svg">
<path d="M140.4 303.04H15.6001C8.70492 303.04 3.12012 297.74 3.12012 291.197V30.6694C3.12012 24.1266 8.70492 18.8273 15.6001 18.8273H140.4C147.295 18.8273 152.88 24.1266 152.88 30.6694V291.197C152.88 297.74 147.295 303.04 140.4 303.04Z" fill="#ECF8FF"/>
<path d="M140.4 297.118H15.5999C12.1554 297.118 9.35986 294.465 9.35986 291.197V30.669C9.35986 27.4006 12.1554 24.7479 15.5999 24.7479H140.4C143.844 24.7479 146.64 27.4006 146.64 30.669V291.197C146.64 294.465 143.844 297.118 140.4 297.118Z" fill="#E1F4FF"/>
<path d="M146.64 30.6692V291.197C146.64 294.454 143.832 297.118 140.4 297.118H15.5999C12.1679 297.118 9.35986 294.454 9.35986 291.197L146.64 30.6692Z" fill="#E3EEEC"/>
<path d="M146.64 30.6692V291.197C146.64 294.454 143.832 297.118 140.4 297.118H15.5999C12.1679 297.118 9.35986 294.454 9.35986 291.197L146.64 30.6692Z" fill="#CEEDFF"/>
<path fill-rule="evenodd" clip-rule="evenodd" d="M140.4 306H15.6C7.00128 306 0 299.357 0 291.197V30.6694C0 22.5101 7.00128 15.8666 15.6 15.8666H46.8H109.2H140.4C148.999 15.8666 156 22.5101 156 30.6694V291.197C156 299.357 148.999 306 140.4 306ZM104.869 21.7877H51.1306H15.6C10.4395 21.7877 6.24 25.7726 6.24 30.6694V291.197C6.24 296.094 10.4395 300.079 15.6 300.079H140.4C145.56 300.079 149.76 296.094 149.76 291.197V30.6694C149.76 25.7726 145.56 21.7877 140.4 21.7877H104.869Z" fill="black"/>
<path d="M87.8102 200.246L101.699 164.037C103.504 159.331 100.947 154.129 95.9884 152.416C94.956 152.059 93.9009 151.882 92.861 151.868H80.5123L89.7555 127.77C91.5603 123.065 89.0035 117.862 84.0447 116.149C79.0859 114.437 73.6028 116.863 71.7979 121.568L57.9089 157.778C56.104 162.483 58.6608 167.686 63.6197 169.398C64.9381 169.854 66.3107 169.922 67.6071 169.922H79.1054L69.8527 194.044C68.0478 198.75 70.6046 203.953 75.5634 205.665C80.5223 207.378 86.0053 204.952 87.8102 200.246Z" fill="#F4FBFF"/>
<path d="M50.1636 5C50.1636 2.23857 52.4022 0 55.1636 0H104.882C107.644 0 109.882 2.23858 109.882 5V11.3333H50.1636V5Z" fill="black"/>
</svg>
