<svg width="23" height="23" viewBox="0 0 23 23" fill="none" xmlns="http://www.w3.org/2000/svg">
<g clip-path="url(#clip0)">
<path d="M13.0537 22.9551H9.36329C8.74687 22.9551 8.24543 22.4546 8.24543 21.8394V13.5317H6.09235C5.47592 13.5317 4.97449 13.031 4.97449 12.416V8.8561C4.97449 8.24088 5.47592 7.74043 6.09235 7.74043H8.24543V5.95776C8.24543 4.19019 8.80155 2.68636 9.85348 1.60912C10.9102 0.526955 12.3869 -0.0449219 14.124 -0.0449219L16.9385 -0.0403595C17.5538 -0.0393066 18.0544 0.461151 18.0544 1.07532V4.38059C18.0544 4.9958 17.5531 5.49626 16.9369 5.49626L15.0419 5.49696C14.464 5.49696 14.3168 5.6126 14.2854 5.64805C14.2335 5.70683 14.1718 5.87301 14.1718 6.33188V7.74025H16.7945C16.9919 7.74025 17.1832 7.78886 17.3476 7.88046C17.7022 8.07822 17.9227 8.45216 17.9227 8.85628L17.9213 12.4162C17.9213 13.031 17.4199 13.5315 16.8034 13.5315H14.1718V21.8394C14.1718 22.4546 13.6702 22.9551 13.0537 22.9551V22.9551ZM9.59643 21.6067H12.8206V12.928C12.8206 12.5172 13.1555 12.1831 13.567 12.1831H16.5703L16.5715 9.08878H13.5668C13.1554 9.08878 12.8206 8.75468 12.8206 8.34389V6.33188C12.8206 5.8051 12.8742 5.20602 13.2726 4.75575C13.754 4.21143 14.5127 4.14861 15.0416 4.14861L16.7034 4.1479V1.30765L14.1229 1.30344C11.3312 1.30344 9.59643 3.08698 9.59643 5.95776V8.34389C9.59643 8.7545 9.26167 9.08878 8.85025 9.08878H6.32548V12.1831H8.85025C9.26167 12.1831 9.59643 12.5172 9.59643 12.928V21.6067ZM16.9358 1.308H16.936H16.9358Z" fill="#0066FF"/>
</g>
<defs>
<clipPath id="clip0">
<rect width="23" height="23" fill="white"/>
</clipPath>
</defs>
</svg>
