<svg width="23" height="23" viewBox="0 0 23 23" fill="none" xmlns="http://www.w3.org/2000/svg">
<path d="M16.7741 0H6.22588C2.79287 0 0 2.79287 0 6.22588V16.7743C0 20.2071 2.79287 23 6.22588 23H16.7743C20.2071 23 23 20.2071 23 16.7743V6.22588C23 2.79287 20.2071 0 16.7741 0V0ZM21.6516 16.7743C21.6516 19.4636 19.4636 21.6516 16.7741 21.6516H6.22588C3.53636 21.6516 1.34836 19.4636 1.34836 16.7743V6.22588C1.34836 3.53636 3.53636 1.34836 6.22588 1.34836H16.7743C19.4636 1.34836 21.6516 3.53636 21.6516 6.22588V16.7743Z" fill="#0066FF"/>
<path d="M11.5001 5.21118C8.03231 5.21118 5.21118 8.0323 5.21118 11.5001C5.21118 14.9678 8.03231 17.7889 11.5001 17.7889C14.9678 17.7889 17.7889 14.9678 17.7889 11.5001C17.7889 8.0323 14.9678 5.21118 11.5001 5.21118V5.21118ZM11.5001 16.4406C8.77597 16.4406 6.55954 14.2243 6.55954 11.5001C6.55954 8.77597 8.77597 6.55954 11.5001 6.55954C14.2243 6.55954 16.4406 8.77597 16.4406 11.5001C16.4406 14.2243 14.2243 16.4406 11.5001 16.4406V16.4406Z" fill="#0066FF"/>
<path d="M17.938 2.97729C16.9132 2.97729 16.0797 3.81098 16.0797 4.83558C16.0797 5.86036 16.9132 6.69405 17.938 6.69405C18.9628 6.69405 19.7965 5.86036 19.7965 4.83558C19.7965 3.8108 18.9628 2.97729 17.938 2.97729ZM17.938 5.34552C17.6569 5.34552 17.4281 5.1167 17.4281 4.83558C17.4281 4.5543 17.6569 4.32565 17.938 4.32565C18.2193 4.32565 18.4481 4.5543 18.4481 4.83558C18.4481 5.1167 18.2193 5.34552 17.938 5.34552Z" fill="#0066FF"/>
</svg>
