<svg width="156" height="306" viewBox="0 0 156 306" fill="none" xmlns="http://www.w3.org/2000/svg">
<path d="M140.4 302.878H15.6001C8.70492 302.878 3.12012 297.288 3.12012 290.388V15.6124C3.12012 8.71174 8.70492 3.12256 15.6001 3.12256H140.4C147.295 3.12256 152.88 8.71174 152.88 15.6124V290.388C152.88 297.288 147.295 302.878 140.4 302.878Z" fill="#ECF8FF"/>
<path d="M140.4 296.633H15.5999C12.1554 296.633 9.35986 293.835 9.35986 290.388V15.6126C9.35986 12.1654 12.1554 9.36768 15.5999 9.36768H140.4C143.844 9.36768 146.64 12.1654 146.64 15.6126V290.388C146.64 293.835 143.844 296.633 140.4 296.633Z" fill="#E1F4FF"/>
<path d="M146.64 15.6128V290.388C146.64 293.823 143.832 296.633 140.4 296.633H15.5999C12.1679 296.633 9.35986 293.823 9.35986 290.388L146.64 15.6128Z" fill="#E3EEEC"/>
<path d="M93.9617 21.8573H62.0317C56.659 21.8573 51.8916 18.4163 50.1944 13.3142L46.7998 3.12256H109.2L105.805 13.3142C104.108 18.4163 99.3344 21.8573 93.9617 21.8573Z" fill="#2A2D2C"/>
<path d="M146.64 15.6128V290.388C146.64 293.823 143.832 296.633 140.4 296.633H15.5999C12.1679 296.633 9.35986 293.823 9.35986 290.388L146.64 15.6128Z" fill="#CEEDFF"/>
<path d="M15.6 306H140.4C148.999 306 156 298.993 156 290.388V15.6122C156 7.00678 148.999 0 140.4 0H109.2H46.8H15.6C7.00128 0 0 7.00678 0 15.6122V290.388C0 298.993 7.00128 306 15.6 306ZM104.869 6.2449L102.841 12.3337C101.568 16.1618 97.9992 18.7347 93.9681 18.7347H62.0381C58.007 18.7347 54.4378 16.1618 53.1586 12.3274L51.1306 6.2449H104.869ZM6.24 15.6122C6.24 10.4477 10.4395 6.2449 15.6 6.2449H44.5536L47.2368 14.3008C49.3646 20.6893 55.3051 24.9796 62.0381 24.9796H93.9681C100.695 24.9796 106.642 20.6893 108.763 14.3071L111.446 6.2449H140.4C145.56 6.2449 149.76 10.4477 149.76 15.6122V290.388C149.76 295.552 145.56 299.755 140.4 299.755H15.6C10.4395 299.755 6.24 295.552 6.24 290.388V15.6122Z" fill="black"/>
<path d="M128.993 268.75V295.438C128.993 295.99 128.545 296.438 127.993 296.438H29.665C29.1128 296.438 28.665 295.99 28.665 295.438V246.039C28.665 245.487 29.1128 245.039 29.665 245.039H44.3863C44.9386 245.039 45.3863 245.487 45.3863 246.039V266.75C45.3863 267.302 45.834 267.75 46.3863 267.75H63.4963C64.0486 267.75 64.4963 267.302 64.4963 266.75V144.438C64.4963 143.885 64.0486 143.438 63.4963 143.438H54.7469C54.1946 143.438 53.7469 142.99 53.7469 142.438V122.922C53.7469 122.37 54.1946 121.922 54.7469 121.922H102.911C103.463 121.922 103.911 122.37 103.911 122.922V142.438C103.911 142.99 103.463 143.438 102.911 143.438H94.1613C93.609 143.438 93.1613 143.885 93.1613 144.438V266.75C93.1613 267.302 93.609 267.75 94.1613 267.75H127.993C128.545 267.75 128.993 268.198 128.993 268.75Z" fill="#F4FBFF"/>
</svg>
