<svg width="166" height="166" viewBox="0 0 166 166" fill="none" xmlns="http://www.w3.org/2000/svg">
<path d="M41.5 57.0625H145.25V119.312H41.5V57.0625Z" fill="#E1F4FF"/>
<path d="M41.5 119.312L145.25 57.0625V119.312H41.5Z" fill="#CEEDFF"/>
<path d="M20.75 33.7188H72.625V132.281H20.75V33.7188Z" fill="#ECF8FF"/>
<path d="M25.9375 132.281H31.125V145.25H25.9375V132.281Z" fill="#6DA8FF"/>
<path d="M62.25 132.281H67.4375V145.25H62.25V132.281Z" fill="#6DA8FF"/>
<path d="M62.25 20.75H31.125C28.2589 20.75 25.9375 23.0714 25.9375 25.9375V33.7188H31.125V25.9375H62.25V33.7188H67.4375V25.9375C67.4375 23.0714 65.1161 20.75 62.25 20.75Z" fill="#6DA8FF"/>
<path d="M83 119.312H103.75V145.25H83V119.312Z" fill="#ECF8FF"/>
<path d="M103.75 145.25L98.5625 140.062H88.1875L83 145.25H103.75Z" fill="#6DA8FF"/>
<path d="M31.125 51.875C33.99 51.875 36.3125 49.5525 36.3125 46.6875C36.3125 43.8225 33.99 41.5 31.125 41.5C28.26 41.5 25.9375 43.8225 25.9375 46.6875C25.9375 49.5525 28.26 51.875 31.125 51.875Z" fill="#CEEDFF"/>
<path d="M27.4575 50.355L34.7926 43.0199C34.7926 43.0199 38.289 46.8612 34.7926 50.355C31.2963 53.8514 27.4575 50.355 27.4575 50.355Z" fill="#ECF4FF"/>
<path d="M41.4658 51.875C44.3308 51.875 46.6533 49.5525 46.6533 46.6875C46.6533 43.8225 44.3308 41.5 41.4658 41.5C38.6008 41.5 36.2783 43.8225 36.2783 46.6875C36.2783 49.5525 38.6008 51.875 41.4658 51.875Z" fill="#CEEDFF"/>
<path d="M37.7959 50.355L45.131 43.0199C45.131 43.0199 48.6274 46.8612 45.131 50.355C41.6372 53.8514 37.7959 50.355 37.7959 50.355Z" fill="#ECF4FF"/>
<path d="M51.8408 51.875C54.7058 51.875 57.0283 49.5525 57.0283 46.6875C57.0283 43.8225 54.7058 41.5 51.8408 41.5C48.9758 41.5 46.6533 43.8225 46.6533 46.6875C46.6533 49.5525 48.9758 51.875 51.8408 51.875Z" fill="#CEEDFF"/>
<path d="M48.1709 50.355L55.506 43.0199C55.506 43.0199 59.0024 46.8612 55.506 50.355C52.0122 53.8514 48.1709 50.355 48.1709 50.355Z" fill="#ECF4FF"/>
<path d="M62.2158 51.875C65.0808 51.875 67.4033 49.5525 67.4033 46.6875C67.4033 43.8225 65.0808 41.5 62.2158 41.5C59.3508 41.5 57.0283 43.8225 57.0283 46.6875C57.0283 49.5525 59.3508 51.875 62.2158 51.875Z" fill="#CEEDFF"/>
<path d="M58.5459 50.355L65.881 43.0199C65.881 43.0199 69.3774 46.8612 65.881 50.355C62.3872 53.8514 58.5459 50.355 58.5459 50.355Z" fill="#ECF4FF"/>
<path d="M31.125 62.25C33.99 62.25 36.3125 59.9275 36.3125 57.0625C36.3125 54.1975 33.99 51.875 31.125 51.875C28.26 51.875 25.9375 54.1975 25.9375 57.0625C25.9375 59.9275 28.26 62.25 31.125 62.25Z" fill="#CEEDFF"/>
<path d="M27.4575 60.73L34.7926 53.3949C34.7926 53.3949 38.289 57.2362 34.7926 60.73C31.2963 64.2264 27.4575 60.73 27.4575 60.73Z" fill="#ECF4FF"/>
<path d="M41.4658 62.25C44.3308 62.25 46.6533 59.9275 46.6533 57.0625C46.6533 54.1975 44.3308 51.875 41.4658 51.875C38.6008 51.875 36.2783 54.1975 36.2783 57.0625C36.2783 59.9275 38.6008 62.25 41.4658 62.25Z" fill="#CEEDFF"/>
<path d="M37.7959 60.73L45.131 53.3949C45.131 53.3949 48.6274 57.2362 45.131 60.73C41.6372 64.2264 37.7959 60.73 37.7959 60.73Z" fill="#ECF4FF"/>
<path d="M51.8408 62.25C54.7058 62.25 57.0283 59.9275 57.0283 57.0625C57.0283 54.1975 54.7058 51.875 51.8408 51.875C48.9758 51.875 46.6533 54.1975 46.6533 57.0625C46.6533 59.9275 48.9758 62.25 51.8408 62.25Z" fill="#CEEDFF"/>
<path d="M48.1709 60.73L55.506 53.3949C55.506 53.3949 59.0024 57.2362 55.506 60.73C52.0122 64.2264 48.1709 60.73 48.1709 60.73Z" fill="#ECF4FF"/>
<path d="M62.2158 62.25C65.0808 62.25 67.4033 59.9275 67.4033 57.0625C67.4033 54.1975 65.0808 51.875 62.2158 51.875C59.3508 51.875 57.0283 54.1975 57.0283 57.0625C57.0283 59.9275 59.3508 62.25 62.2158 62.25Z" fill="#CEEDFF"/>
<path d="M58.5459 60.73L65.881 53.3949C65.881 53.3949 69.3774 57.2362 65.881 60.73C62.3872 64.2264 58.5459 60.73 58.5459 60.73Z" fill="#ECF4FF"/>
<path d="M31.125 72.625C33.99 72.625 36.3125 70.3025 36.3125 67.4375C36.3125 64.5725 33.99 62.25 31.125 62.25C28.26 62.25 25.9375 64.5725 25.9375 67.4375C25.9375 70.3025 28.26 72.625 31.125 72.625Z" fill="#CEEDFF"/>
<path d="M27.4575 71.105L34.7926 63.7699C34.7926 63.7699 38.289 67.6112 34.7926 71.105C31.2963 74.6014 27.4575 71.105 27.4575 71.105Z" fill="#ECF4FF"/>
<path d="M41.4658 72.625C44.3308 72.625 46.6533 70.3025 46.6533 67.4375C46.6533 64.5725 44.3308 62.25 41.4658 62.25C38.6008 62.25 36.2783 64.5725 36.2783 67.4375C36.2783 70.3025 38.6008 72.625 41.4658 72.625Z" fill="#CEEDFF"/>
<path d="M37.7959 71.105L45.131 63.7699C45.131 63.7699 48.6274 67.6112 45.131 71.105C41.6372 74.6014 37.7959 71.105 37.7959 71.105Z" fill="#ECF4FF"/>
<path d="M51.8408 72.625C54.7058 72.625 57.0283 70.3025 57.0283 67.4375C57.0283 64.5725 54.7058 62.25 51.8408 62.25C48.9758 62.25 46.6533 64.5725 46.6533 67.4375C46.6533 70.3025 48.9758 72.625 51.8408 72.625Z" fill="#CEEDFF"/>
<path d="M48.1709 71.105L55.506 63.7699C55.506 63.7699 59.0024 67.6112 55.506 71.105C52.0122 74.6014 48.1709 71.105 48.1709 71.105Z" fill="#ECF4FF"/>
<path d="M62.2158 72.625C65.0808 72.625 67.4033 70.3025 67.4033 67.4375C67.4033 64.5725 65.0808 62.25 62.2158 62.25C59.3508 62.25 57.0283 64.5725 57.0283 67.4375C57.0283 70.3025 59.3508 72.625 62.2158 72.625Z" fill="#CEEDFF"/>
<path d="M58.5459 71.105L65.881 63.7699C65.881 63.7699 69.3774 67.6112 65.881 71.105C62.3872 74.6014 58.5459 71.105 58.5459 71.105Z" fill="#ECF4FF"/>
<path d="M31.125 83C33.99 83 36.3125 80.6775 36.3125 77.8125C36.3125 74.9475 33.99 72.625 31.125 72.625C28.26 72.625 25.9375 74.9475 25.9375 77.8125C25.9375 80.6775 28.26 83 31.125 83Z" fill="#CEEDFF"/>
<path d="M27.4575 81.48L34.7926 74.1449C34.7926 74.1449 38.289 77.9862 34.7926 81.48C31.2963 84.9738 27.4575 81.48 27.4575 81.48Z" fill="#ECF4FF"/>
<path d="M41.4658 83C44.3308 83 46.6533 80.6775 46.6533 77.8125C46.6533 74.9475 44.3308 72.625 41.4658 72.625C38.6008 72.625 36.2783 74.9475 36.2783 77.8125C36.2783 80.6775 38.6008 83 41.4658 83Z" fill="#CEEDFF"/>
<path d="M37.7959 81.48L45.131 74.1449C45.131 74.1449 48.6274 77.9862 45.131 81.48C41.6372 84.9764 37.7959 81.48 37.7959 81.48Z" fill="#ECF4FF"/>
<path d="M51.8408 83C54.7058 83 57.0283 80.6775 57.0283 77.8125C57.0283 74.9475 54.7058 72.625 51.8408 72.625C48.9758 72.625 46.6533 74.9475 46.6533 77.8125C46.6533 80.6775 48.9758 83 51.8408 83Z" fill="#CEEDFF"/>
<path d="M48.1709 81.48L55.506 74.1449C55.506 74.1449 59.0024 77.9862 55.506 81.48C52.0122 84.9764 48.1709 81.48 48.1709 81.48Z" fill="#ECF4FF"/>
<path d="M62.2158 83C65.0808 83 67.4033 80.6775 67.4033 77.8125C67.4033 74.9475 65.0808 72.625 62.2158 72.625C59.3508 72.625 57.0283 74.9475 57.0283 77.8125C57.0283 80.6775 59.3508 83 62.2158 83Z" fill="#CEEDFF"/>
<path d="M58.5459 81.48L65.881 74.1449C65.881 74.1449 69.3774 77.9862 65.881 81.48C62.3872 84.9764 58.5459 81.48 58.5459 81.48Z" fill="#ECF4FF"/>
<path d="M31.125 93.375C33.99 93.375 36.3125 91.0525 36.3125 88.1875C36.3125 85.3225 33.99 83 31.125 83C28.26 83 25.9375 85.3225 25.9375 88.1875C25.9375 91.0525 28.26 93.375 31.125 93.375Z" fill="#CEEDFF"/>
<path d="M27.4575 91.855L34.7926 84.5199C34.7926 84.5199 38.289 88.3612 34.7926 91.855C31.2963 95.3514 27.4575 91.855 27.4575 91.855Z" fill="#ECF4FF"/>
<path d="M41.4658 93.375C44.3308 93.375 46.6533 91.0525 46.6533 88.1875C46.6533 85.3225 44.3308 83 41.4658 83C38.6008 83 36.2783 85.3225 36.2783 88.1875C36.2783 91.0525 38.6008 93.375 41.4658 93.375Z" fill="#CEEDFF"/>
<path d="M37.7959 91.855L45.131 84.5199C45.131 84.5199 48.6274 88.3612 45.131 91.855C41.6372 95.3514 37.7959 91.855 37.7959 91.855Z" fill="#ECF4FF"/>
<path d="M51.8408 93.375C54.7058 93.375 57.0283 91.0525 57.0283 88.1875C57.0283 85.3225 54.7058 83 51.8408 83C48.9758 83 46.6533 85.3225 46.6533 88.1875C46.6533 91.0525 48.9758 93.375 51.8408 93.375Z" fill="#CEEDFF"/>
<path d="M48.1709 91.855L55.506 84.5199C55.506 84.5199 59.0024 88.3612 55.506 91.855C52.0122 95.3514 48.1709 91.855 48.1709 91.855Z" fill="#ECF4FF"/>
<path d="M62.2158 93.375C65.0808 93.375 67.4033 91.0525 67.4033 88.1875C67.4033 85.3225 65.0808 83 62.2158 83C59.3508 83 57.0283 85.3225 57.0283 88.1875C57.0283 91.0525 59.3508 93.375 62.2158 93.375Z" fill="#CEEDFF"/>
<path d="M58.5459 91.855L65.881 84.5199C65.881 84.5199 69.3774 88.3612 65.881 91.855C62.3872 95.3514 58.5459 91.855 58.5459 91.855Z" fill="#ECF4FF"/>
<path d="M31.125 103.75C33.99 103.75 36.3125 101.427 36.3125 98.5625C36.3125 95.6975 33.99 93.375 31.125 93.375C28.26 93.375 25.9375 95.6975 25.9375 98.5625C25.9375 101.427 28.26 103.75 31.125 103.75Z" fill="#CEEDFF"/>
<path d="M27.4575 102.23L34.7926 94.8949C34.7926 94.8949 38.289 98.7362 34.7926 102.23C31.2963 105.726 27.4575 102.23 27.4575 102.23Z" fill="#ECF4FF"/>
<path d="M41.4658 103.75C44.3308 103.75 46.6533 101.427 46.6533 98.5625C46.6533 95.6975 44.3308 93.375 41.4658 93.375C38.6008 93.375 36.2783 95.6975 36.2783 98.5625C36.2783 101.427 38.6008 103.75 41.4658 103.75Z" fill="#CEEDFF"/>
<path d="M37.7959 102.23L45.131 94.8949C45.131 94.8949 48.6274 98.7362 45.131 102.23C41.6372 105.726 37.7959 102.23 37.7959 102.23Z" fill="#ECF4FF"/>
<path d="M51.8408 103.75C54.7058 103.75 57.0283 101.427 57.0283 98.5625C57.0283 95.6975 54.7058 93.375 51.8408 93.375C48.9758 93.375 46.6533 95.6975 46.6533 98.5625C46.6533 101.427 48.9758 103.75 51.8408 103.75Z" fill="#CEEDFF"/>
<path d="M48.1709 102.23L55.506 94.8949C55.506 94.8949 59.0024 98.7362 55.506 102.23C52.0122 105.726 48.1709 102.23 48.1709 102.23Z" fill="#ECF4FF"/>
<path d="M62.2158 103.75C65.0808 103.75 67.4033 101.427 67.4033 98.5625C67.4033 95.6975 65.0808 93.375 62.2158 93.375C59.3508 93.375 57.0283 95.6975 57.0283 98.5625C57.0283 101.427 59.3508 103.75 62.2158 103.75Z" fill="#CEEDFF"/>
<path d="M58.5459 102.23L65.881 94.8949C65.881 94.8949 69.3774 98.7362 65.881 102.23C62.3872 105.726 58.5459 102.23 58.5459 102.23Z" fill="#ECF4FF"/>
<path d="M31.125 114.125C33.99 114.125 36.3125 111.802 36.3125 108.938C36.3125 106.073 33.99 103.75 31.125 103.75C28.26 103.75 25.9375 106.073 25.9375 108.938C25.9375 111.802 28.26 114.125 31.125 114.125Z" fill="#CEEDFF"/>
<path d="M27.4575 112.605L34.7926 105.27C34.7926 105.27 38.289 109.111 34.7926 112.605C31.2963 116.101 27.4575 112.605 27.4575 112.605Z" fill="#ECF4FF"/>
<path d="M41.4658 114.125C44.3308 114.125 46.6533 111.802 46.6533 108.938C46.6533 106.073 44.3308 103.75 41.4658 103.75C38.6008 103.75 36.2783 106.073 36.2783 108.938C36.2783 111.802 38.6008 114.125 41.4658 114.125Z" fill="#CEEDFF"/>
<path d="M37.7959 112.605L45.131 105.27C45.131 105.27 48.6274 109.111 45.131 112.605C41.6372 116.101 37.7959 112.605 37.7959 112.605Z" fill="#ECF4FF"/>
<path d="M51.8408 114.125C54.7058 114.125 57.0283 111.802 57.0283 108.938C57.0283 106.073 54.7058 103.75 51.8408 103.75C48.9758 103.75 46.6533 106.073 46.6533 108.938C46.6533 111.802 48.9758 114.125 51.8408 114.125Z" fill="#CEEDFF"/>
<path d="M48.1709 112.605L55.506 105.27C55.506 105.27 59.0024 109.111 55.506 112.605C52.0122 116.101 48.1709 112.605 48.1709 112.605Z" fill="#ECF4FF"/>
<path d="M62.2158 114.125C65.0808 114.125 67.4033 111.802 67.4033 108.938C67.4033 106.073 65.0808 103.75 62.2158 103.75C59.3508 103.75 57.0283 106.073 57.0283 108.938C57.0283 111.802 59.3508 114.125 62.2158 114.125Z" fill="#CEEDFF"/>
<path d="M58.5459 112.605L65.881 105.27C65.881 105.27 69.3774 109.111 65.881 112.605C62.3872 116.101 58.5459 112.605 58.5459 112.605Z" fill="#ECF4FF"/>
<path d="M31.125 124.5C33.99 124.5 36.3125 122.177 36.3125 119.312C36.3125 116.448 33.99 114.125 31.125 114.125C28.26 114.125 25.9375 116.448 25.9375 119.312C25.9375 122.177 28.26 124.5 31.125 124.5Z" fill="#CEEDFF"/>
<path d="M27.4575 122.98L34.7926 115.645C34.7926 115.645 38.289 119.486 34.7926 122.98C31.2963 126.476 27.4575 122.98 27.4575 122.98Z" fill="#ECF4FF"/>
<path d="M41.4658 124.5C44.3308 124.5 46.6533 122.177 46.6533 119.312C46.6533 116.448 44.3308 114.125 41.4658 114.125C38.6008 114.125 36.2783 116.448 36.2783 119.312C36.2783 122.177 38.6008 124.5 41.4658 124.5Z" fill="#CEEDFF"/>
<path d="M37.7959 122.98L45.131 115.645C45.131 115.645 48.6274 119.486 45.131 122.98C41.6372 126.476 37.7959 122.98 37.7959 122.98Z" fill="#ECF4FF"/>
<path d="M51.8408 124.5C54.7058 124.5 57.0283 122.177 57.0283 119.312C57.0283 116.448 54.7058 114.125 51.8408 114.125C48.9758 114.125 46.6533 116.448 46.6533 119.312C46.6533 122.177 48.9758 124.5 51.8408 124.5Z" fill="#CEEDFF"/>
<path d="M48.1709 122.98L55.506 115.645C55.506 115.645 59.0024 119.486 55.506 122.98C52.0122 126.476 48.1709 122.98 48.1709 122.98Z" fill="#ECF4FF"/>
<path d="M62.2158 124.5C65.0808 124.5 67.4033 122.177 67.4033 119.312C67.4033 116.448 65.0808 114.125 62.2158 114.125C59.3508 114.125 57.0283 116.448 57.0283 119.312C57.0283 122.177 59.3508 124.5 62.2158 124.5Z" fill="#CEEDFF"/>
<path d="M58.5459 122.98L65.881 115.645C65.881 115.645 69.3774 119.486 65.881 122.98C62.3872 126.476 58.5459 122.98 58.5459 122.98Z" fill="#ECF4FF"/>
<path d="M72.625 32.4219H68.7344V25.9375C68.7344 22.3607 65.8242 19.4531 62.25 19.4531H31.125C27.5508 19.4531 24.6406 22.3607 24.6406 25.9375V32.4219H20.75C20.0341 32.4219 19.4531 33.0029 19.4531 33.7188V132.281C19.4531 132.997 20.0341 133.578 20.75 133.578H24.6406V143.953H23.3438C22.6279 143.953 22.0469 144.534 22.0469 145.25C22.0469 145.966 22.6279 146.547 23.3438 146.547H33.7188C34.4346 146.547 35.0156 145.966 35.0156 145.25C35.0156 144.534 34.4346 143.953 33.7188 143.953H32.4219V133.578H60.9531V143.953H59.6562C58.9404 143.953 58.3594 144.534 58.3594 145.25C58.3594 145.966 58.9404 146.547 59.6562 146.547H70.0312C70.7471 146.547 71.3281 145.966 71.3281 145.25C71.3281 144.534 70.7471 143.953 70.0312 143.953H68.7344V133.578H72.625C73.3409 133.578 73.9219 132.997 73.9219 132.281V33.7188C73.9219 33.0029 73.3409 32.4219 72.625 32.4219ZM27.2344 25.9375C27.2344 23.7925 28.98 22.0469 31.125 22.0469H62.25C64.395 22.0469 66.1406 23.7925 66.1406 25.9375V32.4219H63.5469V25.9375C63.5469 25.2216 62.9659 24.6406 62.25 24.6406H31.125C30.4091 24.6406 29.8281 25.2216 29.8281 25.9375V32.4219H27.2344V25.9375ZM60.9531 27.2344V32.4219H32.4219V27.2344H60.9531ZM29.8281 143.953H27.2344V133.578H29.8281V143.953ZM66.1406 143.953H63.5469V133.578H66.1406V143.953ZM71.3281 130.984H67.4375H62.25H31.125H25.9375H22.0469V35.0156H71.3281V130.984Z" fill="black"/>
<path d="M145.25 55.7656H77.8125C77.0966 55.7656 76.5156 56.3466 76.5156 57.0625C76.5156 57.7784 77.0966 58.3594 77.8125 58.3594H143.953V118.016H103.75H83H77.8125C77.0966 118.016 76.5156 118.597 76.5156 119.312C76.5156 120.028 77.0966 120.609 77.8125 120.609H81.7031V145.25C81.7031 145.419 81.7368 145.587 81.8017 145.745C81.934 146.062 82.1856 146.316 82.5046 146.448C82.6628 146.513 82.8314 146.547 83 146.547H103.75C103.919 146.547 104.087 146.513 104.245 146.448C104.562 146.316 104.816 146.064 104.948 145.745C105.013 145.587 105.047 145.419 105.047 145.25V120.609H145.25C145.966 120.609 146.547 120.028 146.547 119.312V57.0625C146.547 56.3466 145.966 55.7656 145.25 55.7656ZM102.453 142.119L99.4807 139.147C98.9749 138.641 98.1527 138.641 97.6469 139.147C97.1411 139.653 97.1411 140.475 97.6469 140.981L100.619 143.953H86.1307L89.1031 140.981C89.6089 140.475 89.6089 139.653 89.1031 139.147C88.5973 138.641 87.7751 138.641 87.2693 139.147L84.2969 142.119V120.609H102.453V142.119Z" fill="black"/>
</svg>
