<svg width="166" height="166" viewBox="0 0 166 166" fill="none" xmlns="http://www.w3.org/2000/svg">
<path d="M90.7812 145.25H38.9062C36.0402 145.25 33.7188 142.929 33.7188 140.062V25.9375C33.7188 23.0714 36.0402 20.75 38.9062 20.75H90.7812C93.6473 20.75 95.9688 23.0714 95.9688 25.9375V140.062C95.9688 142.929 93.6473 145.25 90.7812 145.25Z" fill="#6DA8FF"/>
<path d="M41.5 145.25H38.9062C36.0531 145.25 33.7188 142.916 33.7188 140.062V25.9375C33.7188 23.0844 36.0531 20.75 38.9062 20.75H41.5C38.6469 20.75 36.3125 23.0844 36.3125 25.9375V140.062C36.3125 142.916 38.6469 145.25 41.5 145.25Z" fill="#F4FBFF"/>
<path d="M57.0625 49.2812H46.6875C43.8214 49.2812 41.5 46.9598 41.5 44.0938V33.7188C41.5 30.8527 43.8214 28.5312 46.6875 28.5312H57.0625C59.9286 28.5312 62.25 30.8527 62.25 33.7188V44.0938C62.25 46.9598 59.9286 49.2812 57.0625 49.2812Z" fill="#2A2D2C"/>
<path d="M46.6875 36.3125C48.12 36.3125 49.2812 35.1512 49.2812 33.7188C49.2812 32.2863 48.12 31.125 46.6875 31.125C45.255 31.125 44.0938 32.2863 44.0938 33.7188C44.0938 35.1512 45.255 36.3125 46.6875 36.3125Z" fill="#555756"/>
<path d="M46.6875 46.6875C48.12 46.6875 49.2812 45.5262 49.2812 44.0938C49.2812 42.6613 48.12 41.5 46.6875 41.5C45.255 41.5 44.0938 42.6613 44.0938 44.0938C44.0938 45.5262 45.255 46.6875 46.6875 46.6875Z" fill="#555756"/>
<path d="M57.0625 46.6875C58.495 46.6875 59.6562 45.5262 59.6562 44.0938C59.6562 42.6613 58.495 41.5 57.0625 41.5C55.63 41.5 54.4688 42.6613 54.4688 44.0938C54.4688 45.5262 55.63 46.6875 57.0625 46.6875Z" fill="#555756"/>
<path d="M127.094 145.25H75.2188C72.3527 145.25 70.0312 142.929 70.0312 140.062V25.9375C70.0312 23.0714 72.3527 20.75 75.2188 20.75H127.094C129.96 20.75 132.281 23.0714 132.281 25.9375V140.062C132.281 142.929 129.96 145.25 127.094 145.25Z" fill="#F4FBFF"/>
<path d="M127.094 142.656H75.2188C73.787 142.656 72.625 141.494 72.625 140.062V25.9375C72.625 24.5058 73.787 23.3438 75.2188 23.3438H127.094C128.526 23.3438 129.688 24.5058 129.688 25.9375V140.062C129.688 141.494 128.526 142.656 127.094 142.656Z" fill="#E1F4FF"/>
<path d="M129.688 25.9375V140.062C129.688 141.489 128.52 142.656 127.094 142.656H75.2188C73.7922 142.656 72.625 141.489 72.625 140.062L129.688 25.9375Z" fill="#E3EEEC"/>
<path d="M107.791 28.5312H94.5188C92.2856 28.5312 90.304 27.1021 89.5985 24.983L88.1875 20.75H114.125L112.714 24.983C112.009 27.1021 110.024 28.5312 107.791 28.5312Z" fill="#2A2D2C"/>
<path d="M129.688 25.9375V140.062C129.688 141.489 128.52 142.656 127.094 142.656H75.2188C73.7922 142.656 72.625 141.489 72.625 140.062L129.688 25.9375Z" fill="#CEEDFF"/>
<path d="M114.125 138.766H88.1875C87.4716 138.766 86.8906 138.185 86.8906 137.469C86.8906 136.753 87.4716 136.172 88.1875 136.172H114.125C114.841 136.172 115.422 136.753 115.422 137.469C115.422 138.185 114.841 138.766 114.125 138.766Z" fill="#8CB5AD"/>
<path d="M57.0728 35.0105C57.789 35.0105 58.3696 34.4299 58.3696 33.7136C58.3696 32.9974 57.789 32.4167 57.0728 32.4167C56.3565 32.4167 55.7759 32.9974 55.7759 33.7136C55.7759 34.4299 56.3565 35.0105 57.0728 35.0105Z" fill="#FFD9B5"/>
<path d="M133.578 25.9375C133.578 22.3607 130.671 19.4531 127.094 19.4531H114.125H88.1875H75.2188C71.6446 19.4531 68.7344 22.3607 68.7344 25.9375V140.062C68.7344 143.639 71.6446 146.547 75.2188 146.547H127.094C130.671 146.547 133.578 143.639 133.578 140.062V25.9375ZM112.328 22.0469L111.485 24.5758C110.955 26.1658 109.472 27.2344 107.794 27.2344H94.5214C92.8459 27.2344 91.3597 26.1658 90.8305 24.5758L89.985 22.0469H112.328ZM130.984 140.062C130.984 142.208 129.239 143.953 127.094 143.953H75.2188C73.0737 143.953 71.3281 142.208 71.3281 140.062V25.9375C71.3281 23.7925 73.0737 22.0469 75.2188 22.0469H87.2512L88.3665 25.3954C89.2535 28.0462 91.7254 29.8281 94.5188 29.8281H107.791C110.585 29.8281 113.056 28.0462 113.943 25.3954L115.059 22.0469H127.094C129.239 22.0469 130.984 23.7925 130.984 25.9375V140.062Z" fill="black"/>
<path d="M66.1406 20.75C66.1406 20.0341 65.5596 19.4531 64.8438 19.4531H38.9062C35.3321 19.4531 32.4219 22.3607 32.4219 25.9375V140.062C32.4219 143.639 35.3321 146.547 38.9062 146.547H64.8438C65.5596 146.547 66.1406 145.966 66.1406 145.25C66.1406 144.534 65.5596 143.953 64.8438 143.953H38.9062C36.7612 143.953 35.0156 142.208 35.0156 140.062V25.9375C35.0156 23.7925 36.7612 22.0469 38.9062 22.0469H64.8438C65.5596 22.0469 66.1406 21.4659 66.1406 20.75Z" fill="black"/>
<path d="M114.125 136.172H88.1875C87.4716 136.172 86.8906 136.753 86.8906 137.469C86.8906 138.185 87.4716 138.766 88.1875 138.766H114.125C114.841 138.766 115.422 138.185 115.422 137.469C115.422 136.753 114.841 136.172 114.125 136.172Z" fill="black"/>
<path d="M58.1196 33.7136C58.1196 34.2918 57.6509 34.7605 57.0728 34.7605C56.4946 34.7605 56.0259 34.2918 56.0259 33.7136C56.0259 33.1354 56.4946 32.6667 57.0728 32.6667C57.6509 32.6667 58.1196 33.1354 58.1196 33.7136Z" fill="black" stroke="#555756" stroke-width="0.5"/>
<path d="M46.6875 27.2344C43.1133 27.2344 40.2031 30.142 40.2031 33.7188V44.0938C40.2031 47.6705 43.1133 50.5781 46.6875 50.5781H57.0625C60.6367 50.5781 63.5469 47.6705 63.5469 44.0938V33.7188C63.5469 30.142 60.6367 27.2344 57.0625 27.2344H46.6875ZM60.9531 33.7188V44.0938C60.9531 46.2388 59.2075 47.9844 57.0625 47.9844H46.6875C44.5425 47.9844 42.7969 46.2388 42.7969 44.0938V33.7188C42.7969 31.5737 44.5425 29.8281 46.6875 29.8281H57.0625C59.2075 29.8281 60.9531 31.5737 60.9531 33.7188Z" fill="black"/>
</svg>
