<svg width="166" height="166" viewBox="0 0 166 166" fill="none" xmlns="http://www.w3.org/2000/svg">
<path d="M103.75 145.25H31.125C28.2589 145.25 25.9375 142.929 25.9375 140.062V25.9375C25.9375 23.0714 28.2589 20.75 31.125 20.75H103.75C106.616 20.75 108.938 23.0714 108.938 25.9375V140.062C108.938 142.929 106.616 145.25 103.75 145.25Z" fill="#6DA8FF"/>
<path d="M33.7188 145.25H31.125C28.2719 145.25 25.9375 142.916 25.9375 140.062V25.9375C25.9375 23.0844 28.2719 20.75 31.125 20.75H33.7188C30.8656 20.75 28.5312 23.0844 28.5312 25.9375V140.062C28.5312 142.916 30.8656 145.25 33.7188 145.25Z" fill="#F4FBFF"/>
<path d="M134.875 145.25H62.25C59.3839 145.25 57.0625 142.929 57.0625 140.062V25.9375C57.0625 23.0714 59.3839 20.75 62.25 20.75H134.875C137.741 20.75 140.062 23.0714 140.062 25.9375V140.062C140.062 142.929 137.741 145.25 134.875 145.25Z" fill="#ECF8FF"/>
<path d="M98.5674 27.2189C99.2836 27.2189 99.8643 26.6382 99.8643 25.922C99.8643 25.2058 99.2836 24.6251 98.5674 24.6251C97.8511 24.6251 97.2705 25.2058 97.2705 25.922C97.2705 26.6382 97.8511 27.2189 98.5674 27.2189Z" fill="#2A2D2C"/>
<path d="M64.8438 31.125H132.281V127.094H64.8438V31.125Z" fill="#CEEDFF"/>
<path d="M98.6431 140.062C100.792 140.062 102.534 138.321 102.534 136.172C102.534 134.023 100.792 132.281 98.6431 132.281C96.4943 132.281 94.7524 134.023 94.7524 136.172C94.7524 138.321 96.4943 140.062 98.6431 140.062Z" fill="#E3EEFF"/>
<path d="M36.3125 33.7188C37.745 33.7188 38.9062 32.5575 38.9062 31.125C38.9062 29.6925 37.745 28.5312 36.3125 28.5312C34.88 28.5312 33.7188 29.6925 33.7188 31.125C33.7188 32.5575 34.88 33.7188 36.3125 33.7188Z" fill="#2A2D2C"/>
<path d="M64.8438 127.094L132.281 31.125H64.8438V127.094Z" fill="#E1F4FF"/>
<path d="M55.7656 25.9375V140.062C55.7656 143.639 58.6758 146.547 62.25 146.547H134.875C138.449 146.547 141.359 143.639 141.359 140.062V25.9375C141.359 22.3607 138.449 19.4531 134.875 19.4531H62.25C58.6758 19.4531 55.7656 22.3607 55.7656 25.9375ZM138.766 25.9375V140.062C138.766 142.208 137.02 143.953 134.875 143.953H62.25C60.105 143.953 58.3594 142.208 58.3594 140.062V25.9375C58.3594 23.7925 60.105 22.0469 62.25 22.0469H134.875C137.02 22.0469 138.766 23.7925 138.766 25.9375Z" fill="black"/>
<path d="M51.875 19.4531H31.125C27.5508 19.4531 24.6406 22.3607 24.6406 25.9375V31.125C24.6406 31.8409 25.2216 32.4219 25.9375 32.4219C26.6534 32.4219 27.2344 31.8409 27.2344 31.125V25.9375C27.2344 23.7925 28.98 22.0469 31.125 22.0469H51.875C52.5909 22.0469 53.1719 21.4659 53.1719 20.75C53.1719 20.0341 52.5909 19.4531 51.875 19.4531Z" fill="black"/>
<path d="M24.6406 140.062C24.6406 143.639 27.5508 146.547 31.125 146.547H51.875C52.5909 146.547 53.1719 145.966 53.1719 145.25C53.1719 144.534 52.5909 143.953 51.875 143.953H31.125C28.98 143.953 27.2344 142.208 27.2344 140.062V57.0625C27.2344 56.3466 26.6534 55.7656 25.9375 55.7656C25.2216 55.7656 24.6406 56.3466 24.6406 57.0625V140.062Z" fill="black"/>
<path d="M98.5674 27.2189C99.2836 27.2189 99.8643 26.6382 99.8643 25.922C99.8643 25.2058 99.2836 24.6251 98.5674 24.6251C97.8511 24.6251 97.2705 25.2058 97.2705 25.922C97.2705 26.6382 97.8511 27.2189 98.5674 27.2189Z" fill="black"/>
<path d="M64.8438 128.391H132.281C132.997 128.391 133.578 127.81 133.578 127.094V31.125C133.578 30.4091 132.997 29.8281 132.281 29.8281H64.8438C64.1279 29.8281 63.5469 30.4091 63.5469 31.125V127.094C63.5469 127.81 64.1279 128.391 64.8438 128.391ZM66.1406 32.4219H130.984V125.797H66.1406V32.4219Z" fill="black"/>
<path d="M98.6431 130.984C95.7822 130.984 93.4556 133.311 93.4556 136.172C93.4556 139.033 95.7822 141.359 98.6431 141.359C101.504 141.359 103.831 139.033 103.831 136.172C103.831 133.311 101.504 130.984 98.6431 130.984ZM98.6431 138.766C97.2139 138.766 96.0493 137.604 96.0493 136.172C96.0493 134.74 97.2139 133.578 98.6431 133.578C100.072 133.578 101.237 134.74 101.237 136.172C101.237 137.604 100.075 138.766 98.6431 138.766Z" fill="black"/>
<path d="M36.3125 33.7188C37.745 33.7188 38.9062 32.5575 38.9062 31.125C38.9062 29.6925 37.745 28.5312 36.3125 28.5312C34.88 28.5312 33.7188 29.6925 33.7188 31.125C33.7188 32.5575 34.88 33.7188 36.3125 33.7188Z" fill="black"/>
<path d="M24.6406 51.875C24.6406 52.5909 25.2216 53.1719 25.9375 53.1719C26.6534 53.1719 27.2344 52.5909 27.2344 51.875V41.5C27.2344 40.7841 26.6534 40.2031 25.9375 40.2031C25.2216 40.2031 24.6406 40.7841 24.6406 41.5V51.875Z" fill="black"/>
<path d="M25.9375 37.6094C26.6537 37.6094 27.2344 37.0287 27.2344 36.3125C27.2344 35.5963 26.6537 35.0156 25.9375 35.0156C25.2213 35.0156 24.6406 35.5963 24.6406 36.3125C24.6406 37.0287 25.2213 37.6094 25.9375 37.6094Z" fill="black"/>
</svg>
