<svg width="156" height="306" viewBox="0 0 81 309" fill="none" xmlns="http://www.w3.org/2000/svg">
<path d="M14.2625 72.6461L13.6767 73.2319V74.0603V223.119L3.36754 226.555L2 227.011V228.453V237.534V239.534H4H26.6509V269.97V270.142L26.6804 270.313L31.4627 297.81H15.6767H13.6767V299.81V305V307H15.6767H64.9785H66.9785V305V299.81V297.81H64.9785H49.1925L53.9747 270.313L54.0043 270.142V269.97V239.534H76.6552H78.6552V237.534V228.453V227.011L77.2876 226.555L66.9785 223.119V74.0603V73.2319L66.3927 72.6461L54.0043 60.2578V50.2379L61.203 43.0392L61.9659 42.2763L61.7473 41.2198L53.9628 3.59479L53.6329 2H52.0043H40.3276H28.6509H27.0223L26.6923 3.59479L18.9079 41.2198L18.6893 42.2763L19.4522 43.0392L26.6509 50.2379V60.2578L14.2625 72.6461Z" fill="#F4FBFF" stroke="black" stroke-width="4"/>
<mask id="mask0" mask-type="alpha" maskUnits="userSpaceOnUse" x="4" y="4" width="73" height="301">
<path d="M15.6767 74.0603V224.56L4 228.453V237.534H28.6509V269.97L33.8405 299.81H15.6767V305H64.9785V299.81H46.8147L52.0043 269.97V237.534H76.6552V228.453L64.9785 224.56V74.0603L52.0043 61.0862V49.4095L59.7888 41.625L52.0043 4H40.3276H28.6509L20.8664 41.625L28.6509 49.4095V61.0862L15.6767 74.0603Z" fill="#C4C4C4"/>
</mask>
<g mask="url(#mask0)">
<path d="M108.736 206.397H-28.0819C-31.8581 206.397 -34.9229 204.375 -34.9229 201.884V3.32305C-34.9229 0.832012 -31.8581 -1.1897 -28.0819 -1.1897H108.736C112.512 -1.1897 115.577 0.832012 115.577 3.32305V201.884C115.577 204.375 112.512 206.397 108.736 206.397Z" fill="#E1F4FF"/>
<path d="M115.577 4V201.899C115.577 204.373 112.499 206.397 108.736 206.397H-28.0819C-31.8444 206.397 -34.9229 204.373 -34.9229 201.899L115.577 4Z" fill="#CEEDFF"/>
</g>
</svg>
