<svg width="166" height="166" viewBox="0 0 166 166" fill="none" xmlns="http://www.w3.org/2000/svg">
<path d="M102.764 53.0941C101.545 52.3419 100.118 51.875 98.5622 51.875H62.2497C60.6935 51.875 59.2669 52.3419 58.0479 53.0941C61.3679 46.4541 63.5466 35.7419 64.7138 25.4188C65.025 22.7731 67.2038 20.75 69.8754 20.75H91.0922C93.7638 20.75 95.9426 22.7731 96.2538 25.4188C97.421 35.7419 99.4441 46.4541 102.764 53.0941Z" fill="#6DA8FF"/>
<path d="M106.344 106.344C106.344 110.649 102.868 114.125 98.5625 114.125H62.25C57.9444 114.125 54.4688 110.649 54.4688 106.344V59.6562C54.4688 56.9069 55.8953 54.4947 58.0481 53.12V53.0941C59.2672 52.3419 60.6937 51.875 62.25 51.875H98.5625C100.119 51.875 101.545 52.3419 102.764 53.0941V53.12C104.917 54.4947 106.344 56.9069 106.344 59.6562V72.625V106.344Z" fill="#CEEDFF"/>
<path d="M54.8057 108.6C55.7654 111.817 58.7222 114.125 62.2497 114.125H98.5622C102.86 114.125 106.343 110.642 106.343 106.344V59.6562C106.343 56.9068 104.917 54.4947 102.764 53.12V53.094C102.168 52.7309 101.519 52.4197 100.819 52.2122C101.052 52.9125 101.156 53.6906 101.156 54.4687V64.8437C101.156 89.0953 81.3138 108.937 57.0622 108.937C56.2841 108.937 55.506 108.808 54.8057 108.6Z" fill="#E1F4FF"/>
<path d="M96.6428 28.5312H64.3247C64.4544 27.4938 64.5841 26.4563 64.7138 25.4188C65.025 22.7731 67.2038 20.75 69.8753 20.75H91.0922C93.7638 20.75 95.9425 22.7731 96.2538 25.4188C96.3835 26.4563 96.4872 27.4938 96.6428 28.5312Z" fill="#DCEBFF"/>
<path d="M97.8363 36.3125H63.0801C63.5729 33.7706 63.9879 31.1509 64.3251 28.5312H96.6432C96.9804 31.1509 97.3695 33.7706 97.8363 36.3125Z" fill="#AFCFFF"/>
<path d="M99.5223 44.0938H61.3423C61.9907 41.6556 62.5873 39.0359 63.0801 36.3125H97.8363C98.3292 39.0359 98.8998 41.6556 99.5223 44.0938Z" fill="#8BB8FB"/>
<path d="M102.764 112.906C101.545 113.658 100.118 114.125 98.5622 114.125H62.2497C60.6935 114.125 59.2669 113.658 58.0479 112.906C61.3679 119.546 63.5466 130.258 64.7138 140.581C65.025 143.227 67.2038 145.25 69.8754 145.25H91.0922C93.7638 145.25 95.9426 143.227 96.2538 140.581C97.421 130.258 99.4441 119.546 102.764 112.906Z" fill="#6DA8FF"/>
<path d="M96.6428 137.469H64.3247C64.4544 138.506 64.5841 139.544 64.7138 140.581C65.025 143.227 67.2038 145.25 69.8753 145.25H91.0922C93.7638 145.25 95.9425 143.227 96.2538 140.581C96.3835 139.544 96.4872 138.506 96.6428 137.469Z" fill="#DCEBFF"/>
<path d="M97.8363 129.688H63.0801C63.5729 132.229 63.9879 134.849 64.3251 137.469H96.6432C96.9804 134.849 97.3695 132.229 97.8363 129.688Z" fill="#AFCFFF"/>
<path d="M99.5223 121.906H61.3423C61.9907 124.344 62.5873 126.964 63.0801 129.688H97.8363C98.3292 126.964 98.8998 124.344 99.5223 121.906Z" fill="#8BB8FB"/>
<path d="M106.344 64.8438H108.938C110.369 64.8438 111.531 66.0058 111.531 67.4375V75.2188C111.531 76.6505 110.369 77.8125 108.938 77.8125H106.344V64.8438Z" fill="#6DA8FF"/>
<path d="M63.0621 56.3025L65.4146 58.5176C66.1902 59.2464 67.2432 59.6562 68.3378 59.6562H92.4726C93.5698 59.6562 94.6202 59.2464 95.3958 58.5176L97.7483 56.3025C99.4861 54.6685 98.2567 51.875 95.8004 51.875H65.0126C62.5563 51.875 61.3269 54.6685 63.0621 56.3025Z" fill="#E1F4FF"/>
<path d="M62.25 115.422H98.5625C103.568 115.422 107.641 111.35 107.641 106.344C107.641 105.628 107.06 105.047 106.344 105.047C105.628 105.047 105.047 105.628 105.047 106.344C105.047 109.918 102.139 112.828 98.5625 112.828H62.25C58.6732 112.828 55.7656 109.918 55.7656 106.344V59.6562C55.7656 57.4386 56.8809 55.4051 58.7433 54.212C58.7977 54.1757 58.8522 54.1368 58.9015 54.0953C59.9545 53.4831 61.0802 53.1719 62.25 53.1719H98.5625C99.7297 53.1719 100.855 53.4805 101.906 54.0927C101.958 54.1367 102.01 54.1757 102.069 54.212C103.932 55.4051 105.047 57.4386 105.047 59.6562V72.625C105.047 73.3409 105.628 73.9219 106.344 73.9219C107.06 73.9219 107.641 73.3409 107.641 72.625V66.1406H108.938C109.651 66.1406 110.234 66.7216 110.234 67.4375V75.2188C110.234 75.9346 109.651 76.5156 108.938 76.5156H106.344C105.628 76.5156 105.047 77.0966 105.047 77.8125C105.047 78.5284 105.628 79.1094 106.344 79.1094H108.938C111.083 79.1094 112.828 77.3638 112.828 75.2188V67.4375C112.828 65.2925 111.083 63.5469 108.938 63.5469H107.641V59.6562C107.641 56.6293 106.157 53.8411 103.662 52.1551C103.597 52.0955 103.524 52.0384 103.447 51.9917C101.95 51.0658 100.259 50.5781 98.5625 50.5781H62.25C60.5537 50.5781 58.8626 51.0658 57.366 51.9917C57.2933 52.0384 57.2233 52.0903 57.1611 52.1525C57.1507 52.1603 57.1429 52.1707 57.1325 52.1785L57.1299 52.1811C54.6477 53.8644 53.1719 56.6371 53.1719 59.6562V106.344C53.1719 111.35 57.2441 115.422 62.25 115.422Z" fill="black"/>
<path d="M60.1725 47.9247C60.3022 47.9662 60.4345 47.9844 60.5616 47.9844C61.1141 47.9844 61.6224 47.6316 61.7988 47.0766C61.9726 46.5241 62.1308 45.9535 62.2916 45.3906H93.3751C94.091 45.3906 94.672 44.8096 94.672 44.0938C94.672 43.3779 94.091 42.7969 93.3751 42.7969H62.9945C63.4303 41.0694 63.8194 39.3316 64.1617 37.6094H90.7814C91.4973 37.6094 92.0783 37.0284 92.0783 36.3125C92.0783 35.5966 91.4973 35.0156 90.7814 35.0156H64.6494C64.9658 33.213 65.2381 31.47 65.4664 29.8281H90.7814C91.4973 29.8281 92.0783 29.2471 92.0783 28.5313C92.0783 27.8154 91.4973 27.2344 90.7814 27.2344H65.8036C65.8736 26.6663 65.9436 26.0957 66.0007 25.5692C66.2393 23.5616 67.9045 22.0469 69.8758 22.0469H91.0926C93.0665 22.0469 94.7291 23.5616 94.9651 25.5614C95.9066 34.0274 97.3125 41.4637 99.0347 47.0688C99.2422 47.7535 99.9762 48.1426 100.653 47.9299C101.341 47.7198 101.722 46.9936 101.512 46.3088C99.8388 40.8568 98.4667 33.5839 97.5407 25.2683C97.1516 21.9509 94.3815 19.4531 91.0926 19.4531H69.8758C66.5869 19.4531 63.8168 21.9509 63.4251 25.2735C62.7948 30.9357 61.568 39.1786 59.327 46.2958C59.1117 46.9806 59.4904 47.7094 60.1725 47.9247Z" fill="black"/>
<path d="M94.6721 121.906C94.6721 121.19 94.0911 120.609 93.3752 120.609H62.2943C62.1309 120.044 61.9753 119.476 61.8015 118.923C61.5862 118.241 60.8626 117.863 60.1752 118.075C59.4905 118.291 59.1144 119.019 59.3296 119.702C61.5706 126.821 62.7975 135.064 63.4304 140.732C63.8194 144.046 66.5921 146.544 69.8784 146.544H91.0953C94.3842 146.544 97.1543 144.046 97.546 140.721C98.4693 132.413 99.844 125.141 101.514 119.689C101.724 119.004 101.343 118.28 100.656 118.067C99.9737 117.855 99.2449 118.241 99.0374 118.929C97.3151 124.531 95.9093 131.967 94.9704 140.426C94.7317 142.433 93.0691 143.948 91.0953 143.948H69.8784C67.9046 143.948 66.242 142.433 66.006 140.433C65.9463 139.904 65.8763 139.331 65.8062 138.76H90.7815C91.4973 138.76 92.0783 138.179 92.0783 137.464C92.0783 136.748 91.4973 136.167 90.7815 136.167H65.4665C65.2382 134.525 64.9659 132.782 64.6494 130.979H90.7815C91.4973 130.979 92.0783 130.398 92.0783 129.682C92.0783 128.966 91.4973 128.385 90.7815 128.385H64.1618C63.8194 126.663 63.4304 124.925 62.9946 123.198H93.3752C94.0911 123.203 94.6721 122.622 94.6721 121.906Z" fill="black"/>
<path d="M105.047 88.1875V101.156C105.047 101.872 105.628 102.453 106.344 102.453C107.06 102.453 107.641 101.872 107.641 101.156V88.1875C107.641 87.4716 107.06 86.8906 106.344 86.8906C105.628 86.8906 105.047 87.4716 105.047 88.1875Z" fill="black"/>
<path d="M106.349 84.302C107.065 84.302 107.646 83.7214 107.646 83.0051C107.646 82.2889 107.065 81.7083 106.349 81.7083C105.633 81.7083 105.052 82.2889 105.052 83.0051C105.052 83.7214 105.633 84.302 106.349 84.302Z" fill="black"/>
</svg>
